<?xml version="1.0" encoding="utf-8"?>
<!-- Generator: Adobe Illustrator 25.0.1, SVG Export Plug-In . SVG Version: 6.00 Build 0)  -->
<svg version="1.1" id="Layer_1" xmlns="http://www.w3.org/2000/svg" xmlns:xlink="http://www.w3.org/1999/xlink" x="0px" y="0px"
	 viewBox="0 0 4326 3048" style="enable-background:new 0 0 4326 3048;" xml:space="preserve">
<style type="text/css">
	.st0{fill:#FFFFFF;stroke:#000000;stroke-width:0.5;stroke-miterlimit:10;}
	.st1{fill:#030303;}
	.st2{fill:#8D54F6;}
	.st3{stroke:#000000;stroke-width:0.5;stroke-miterlimit:10;}
	.st4{fill:#6B6B6B;}
	.st5{fill:none;stroke:#6B6B6B;stroke-miterlimit:10;}
	.st6{fill:#FFFFFF;}
	.st7{fill:none;stroke:#FFFFFF;stroke-miterlimit:10;}
	.st8{fill:#1C4231;}
	.st9{fill:#FAFAFA;}
	.st10{fill:#FCFCFC;}
	.st11{fill:none;stroke:#FFFFFF;stroke-width:2;stroke-linecap:round;stroke-linejoin:round;}
	.st12{fill:none;stroke:#87FA58;stroke-width:2;stroke-linecap:round;stroke-linejoin:round;}
	.st13{fill:#CCE35B;}
	.st14{fill:none;stroke:#000000;stroke-width:2;stroke-linecap:round;stroke-linejoin:round;}
	.st15{fill:none;stroke:#000000;stroke-width:7;stroke-miterlimit:10;}
	.st16{fill:#87FA58;}
	.st17{fill:#AEFBBA;}
	.st18{fill:#0DFF8B;}
	.st19{fill:#D8612C;}
	.st20{fill:none;stroke:#FFFFFF;stroke-width:6;stroke-miterlimit:10;}
</style>
<g>
	<line class="st11" x1="391.63" y1="1699.35" x2="687.48" y2="1678.74"/>
	<line class="st11" x1="3637.09" y1="1647.95" x2="3933.17" y2="1662.09"/>
	<line class="st11" x1="360.33" y1="1652.42" x2="656.05" y2="1639.93"/>
	<line class="st11" x1="3599.38" y1="1686.71" x2="3894.28" y2="1709.04"/>
	<line class="st11" x1="3646.48" y1="1609.28" x2="3938" y2="1615.58"/>
	<line class="st11" x1="458.23" y1="1745.98" x2="747.91" y2="1717.01"/>
	<line class="st11" x1="362.74" y1="1606.12" x2="652.7" y2="1601.38"/>
	<line class="st11" x1="3532.56" y1="1724.77" x2="3819.83" y2="1755.48"/>
	<line class="st11" x1="3628.91" y1="1571.43" x2="3910.78" y2="1570.38"/>
	<line class="st11" x1="396.69" y1="1561.28" x2="676" y2="1563.77"/>
	<line class="st11" x1="560.94" y1="1791.24" x2="837.59" y2="1753.9"/>
	<line class="st11" x1="3436.55" y1="1761.27" x2="3709.23" y2="1800.31"/>
	<line class="st11" x1="3586.07" y1="1535.01" x2="3854.02" y2="1527.2"/>
	<line class="st11" x1="459.59" y1="1518.59" x2="724.14" y2="1527.72"/>
	<line class="st11" x1="699.59" y1="1833.99" x2="955.99" y2="1788.51"/>
	<line class="st11" x1="3312.04" y1="1795.29" x2="3562.94" y2="1842.39"/>
	<line class="st11" x1="3519.99" y1="1500.57" x2="3770.48" y2="1486.63"/>
	<line class="st11" x1="548.66" y1="1478.62" x2="795.02" y2="1493.75"/>
	<line class="st11" x1="872.8" y1="1873.02" x2="1101.68" y2="1819.91"/>
	<line class="st11" x1="3432.93" y1="1468.56" x2="3663.07" y2="1449.14"/>
	<line class="st11" x1="3160.7" y1="1825.92" x2="3382.51" y2="1880.51"/>
	<line class="st11" x1="661" y1="1441.82" x2="886.42" y2="1462.29"/>
	<line class="st11" x1="3327.19" y1="1439.34" x2="3534.64" y2="1415.11"/>
	<line class="st11" x1="793.71" y1="1408.55" x2="996" y2="1433.68"/>
	<line class="st11" x1="1077.91" y1="1907.16" x2="1272.28" y2="1847.22"/>
	<line class="st11" x1="2985.1" y1="1852.28" x2="3170.97" y2="1913.49"/>
	<line class="st11" x1="3205.08" y1="1413.2" x2="3388.07" y2="1384.84"/>
	<polyline class="st11" points="1942.86,1837.18 1931.52,1836.65 1843.87,1832.58 1782.58,1829.73 1762.28,1828.79 1750.87,1827.9 
		1750.55,1827.87 1591.08,1815.46 1433.22,1797.6 1292.1,1775.73 1170.47,1750.46 1070.4,1722.48 993.26,1692.48 939.73,1661.16 
		909.88,1629.22 903.26,1597.28 918.94,1565.94 955.67,1535.72 1011.91,1507.07 1085.96,1480.4 1175.96,1456.03 1280.01,1434.25 
		1396.16,1415.27 1522.47,1399.27 1657,1386.39 1722.28,1381.91 	"/>
	<line class="st11" x1="729.79" y1="1636.82" x2="909.88" y2="1629.22"/>
	<line class="st11" x1="3383.28" y1="1635.83" x2="3563.3" y2="1644.43"/>
	<line class="st11" x1="943.95" y1="1379.08" x2="1121.43" y2="1408.22"/>
	<line class="st11" x1="760.92" y1="1673.62" x2="939.73" y2="1661.16"/>
	<line class="st11" x1="3394.91" y1="1603.84" x2="3573.53" y2="1607.71"/>
	<line class="st11" x1="3348.27" y1="1667.7" x2="3526.23" y2="1681.17"/>
	<line class="st11" x1="725.33" y1="1600.19" x2="903.26" y2="1597.28"/>
	<line class="st11" x1="819.5" y1="1709.85" x2="993.26" y2="1692.48"/>
	<line class="st11" x1="3384.05" y1="1572.34" x2="3558.04" y2="1571.69"/>
	<line class="st11" x1="3289.55" y1="1698.8" x2="3461.63" y2="1717.19"/>
	<line class="st11" x1="746.27" y1="1564.4" x2="918.94" y2="1565.94"/>
	<line class="st11" x1="1310.88" y1="1935.28" x2="1464.43" y2="1869.62"/>
	<line class="st11" x1="3351.82" y1="1541.84" x2="3518.42" y2="1536.98"/>
	<line class="st11" x1="905.66" y1="1744.71" x2="1070.4" y2="1722.48"/>
	<line class="st11" x1="790.97" y1="1530.03" x2="955.67" y2="1535.72"/>
	<line class="st11" x1="3207.33" y1="1728.45" x2="3369.5" y2="1751.66"/>
	<line class="st11" x1="3068.94" y1="1390.39" x2="3226.09" y2="1358.53"/>
	<line class="st11" x1="2788.81" y1="1873.56" x2="2932.63" y2="1940.24"/>
	<line class="st11" x1="3299.73" y1="1512.84" x2="3456.53" y2="1504.11"/>
	<polyline class="st11" points="1972.54,1799.7 1922.22,1797.4 1830.84,1793.23 1817.79,1792.63 1766.32,1788.69 1732.93,1786.14 
		1730.95,1785.99 1670.78,1781.38 1534.78,1766.29 1412.68,1747.75 1306.84,1726.28 1219.09,1702.41 1150.71,1676.73 
		1102.42,1649.83 1074.44,1622.27 1066.52,1594.61 1078.03,1567.36 1108.02,1540.97 1155.29,1515.88 1218.43,1492.43 
		1295.89,1470.93 1386.06,1451.66 1487.24,1434.82 1597.7,1420.6 1710.86,1409.6 	"/>
	<line class="st11" x1="1109" y1="1353.61" x2="1260.38" y2="1386.11"/>
	<line class="st11" x1="857.51" y1="1497.59" x2="1011.91" y2="1507.07"/>
	<line class="st11" x1="1018.82" y1="1777.36" x2="1170.47" y2="1750.46"/>
	<line class="st11" x1="3102.42" y1="1755.93" x2="3250.61" y2="1783.75"/>
	<polyline class="st11" points="2525.09,1297.85 2673.41,1304.77 2866.33,1318.41 3051.34,1336.35 3226.09,1358.53 3388.07,1384.84 
		3534.64,1415.11 3663.07,1449.14 3770.48,1486.63 3854.02,1527.2 3910.78,1570.38 3938,1615.58 3933.17,1662.09 3894.28,1709.04 
		3819.83,1755.48 3709.23,1800.31 3562.94,1842.39 3382.51,1880.51 3170.97,1913.49 2932.63,1940.24 2673.1,1959.82 
		2403.01,1971.34 2399.02,1971.42 2352.69,1898.33 2262.31,1899.37 2154.55,1900.62 2123.78,1900.98 2046.21,1899.61 
		1948.97,1897.9 1895.52,1896.95 1837.86,1969.77 1566.36,1956.4 1310.88,1935.28 1077.91,1907.16 872.8,1873.02 699.59,1833.99 
		560.94,1791.24 458.23,1745.98 391.63,1699.35 360.33,1652.42 362.74,1606.12 396.69,1561.28 459.59,1518.59 548.66,1478.62 
		661,1441.82 793.71,1408.55 943.95,1379.08 1109,1353.61 1286.26,1332.29 1473.26,1315.23 1667.63,1302.5 1773.55,1298.06 	"/>
	<line class="st11" x1="3229.46" y1="1485.73" x2="3374.4" y2="1473.5"/>
	<line class="st11" x1="943.8" y1="1467.5" x2="1085.96" y2="1480.4"/>
	<line class="st11" x1="1157.56" y1="1806.95" x2="1292.1" y2="1775.73"/>
	<line class="st11" x1="2921.05" y1="1371.08" x2="3051.34" y2="1336.35"/>
	<line class="st11" x1="2976.35" y1="1780.55" x2="3106.58" y2="1812.6"/>
	<line class="st11" x1="3142.83" y1="1460.86" x2="3274.24" y2="1445.52"/>
	<line class="st11" x1="1047.67" y1="1440.1" x2="1175.96" y2="1456.03"/>
	<line class="st11" x1="1286.26" y1="1332.29" x2="1410.59" y2="1367.55"/>
	<line class="st11" x1="1566.36" y1="1956.4" x2="1673.86" y2="1886.38"/>
	<polyline class="st11" points="2025.54,1125.1 2148.89,1108.77 2272.21,1124.59 	"/>
	<polyline class="st11" points="1812.53,1247.43 1910.76,1172.44 2025.54,1125.1 2029.67,1120.41 2148.89,1108.77 2237.95,1137.61 
		2322.09,1197.48 2395.09,1284.64 2451.4,1393.05 2486.67,1514.87 2498.22,1641.04 2485.25,1762.17 2474.99,1792.47 	"/>
	<polyline class="st11" points="2606.3,1455.34 2621.44,1575.65 2612.16,1599.02 2570.41,1621.36 2498.22,1641.04 2400.09,1656.5 
		2282.93,1666.48 2155.48,1670.15 2027.53,1667.19 1908.91,1657.85 1808.51,1642.92 1733.44,1623.63 1688.49,1601.5 
		1675.91,1578.16 1691.05,1457.62 	"/>
	<polyline class="st11" points="2621.44,1575.65 2614.92,1621.57 2604.41,1695.55 2595.28,1719.37 2566.55,1786.07 	"/>
	<line class="st11" x1="2576.27" y1="1889.08" x2="2673.1" y2="1959.82"/>
	<line class="st11" x1="1319.59" y1="1832.64" x2="1433.22" y2="1797.6"/>
	<line class="st11" x1="3041.72" y1="1438.52" x2="3158.24" y2="1420.47"/>
	<line class="st11" x1="1909.32" y1="1170.67" x2="1919.36" y2="1163.13"/>
	<line class="st11" x1="2376.69" y1="1162.16" x2="2387.58" y2="1170.36"/>
	<line class="st11" x1="1166.89" y1="1415.68" x2="1280.01" y2="1434.25"/>
	<line class="st11" x1="2831.33" y1="1801.64" x2="2939.89" y2="1837.39"/>
	<line class="st11" x1="2763.62" y1="1355.42" x2="2866.33" y2="1318.41"/>
	<polyline class="st11" points="2041.86,1116.04 2148.89,1108.77 2234.26,1111.93 	"/>
	<polyline class="st11" points="2272.97,1203.53 2325.54,1293.68 2366.2,1404.87 2391.73,1528.93 2400.09,1656.5 2390.71,1777.9 
		2386.02,1796.84 	"/>
	<line class="st11" x1="1473.26" y1="1315.23" x2="1569.85" y2="1352.64"/>
	<line class="st11" x1="2928.09" y1="1418.95" x2="3028.6" y2="1398.57"/>
	<line class="st11" x1="1299.26" y1="1394.46" x2="1396.16" y2="1415.27"/>
	<line class="st11" x1="1501.7" y1="1853.68" x2="1591.08" y2="1815.46"/>
	<polyline class="st11" points="2575.9,1381.75 2671.01,1388.79 2803.87,1402.32 2928.09,1418.95 3041.72,1438.52 3142.83,1460.86 
		3229.46,1485.73 3299.73,1512.84 3351.82,1541.84 3384.05,1572.34 3394.91,1603.84 3383.28,1635.83 3348.27,1667.7 3289.55,1698.8 
		3207.33,1728.45 3102.42,1755.93 2976.35,1780.55 2831.33,1801.64 2670.27,1818.6 2548.81,1827.23 2519.99,1829.28 
		2496.68,1830.93 2461.49,1832.35 2376.4,1835.78 2314.63,1838.27 	"/>
	<line class="st11" x1="2670.27" y1="1818.6" x2="2753.91" y2="1857.38"/>
	<polyline class="st11" points="2061.22,1112.28 2148.89,1108.77 2208.56,1109.14 	"/>
	<line class="st11" x1="2803.87" y1="1402.32" x2="2887.53" y2="1380.02"/>
	<line class="st11" x1="2598.81" y1="1343.48" x2="2673.41" y2="1304.77"/>
	<line class="st11" x1="1442.59" y1="1376.62" x2="1522.47" y2="1399.27"/>
	<line class="st11" x1="1667.63" y1="1302.5" x2="1736.03" y2="1341.49"/>
	<line class="st11" x1="999.97" y1="1625.41" x2="1074.44" y2="1622.27"/>
	<line class="st11" x1="3218.91" y1="1627.98" x2="3293.27" y2="1631.53"/>
	<line class="st11" x1="1699.91" y1="1869.41" x2="1762.28" y2="1828.79"/>
	<line class="st11" x1="3231.18" y1="1600.3" x2="3305.34" y2="1601.91"/>
	<line class="st11" x1="2118.04" y1="1974.87" x2="2123.78" y2="1900.98"/>
	<line class="st11" x1="992.56" y1="1595.82" x2="1066.52" y2="1594.61"/>
	<line class="st11" x1="1028.88" y1="1654.95" x2="1102.42" y2="1649.83"/>
	<line class="st11" x1="3186.49" y1="1655.45" x2="3259.6" y2="1660.99"/>
	<line class="st11" x1="3223.86" y1="1572.93" x2="3296.49" y2="1572.66"/>
	<polyline class="st11" points="2182.75,1142.52 2214.93,1207.41 2243.01,1299.51 2264.76,1412.49 2278.44,1538 2282.93,1666.48 
		2277.91,1788.05 2276.22,1800.78 	"/>
	<line class="st11" x1="1005.88" y1="1566.71" x2="1078.03" y2="1567.36"/>
	<line class="st11" x1="1079.62" y1="1683.84" x2="1150.71" y2="1676.73"/>
	<line class="st11" x1="3133.77" y1="1682.15" x2="3204.1" y2="1689.67"/>
	<line class="st11" x1="2671.01" y1="1388.79" x2="2737.15" y2="1364.95"/>
	<line class="st11" x1="3197.84" y1="1546.33" x2="3267.73" y2="1544.29"/>
	<polyline class="st11" points="1732.93,1786.14 1705.33,1721.9 1693.02,1698.11 1684.23,1636.51 1675.91,1578.16 	"/>
	<line class="st11" x1="2496.68" y1="1830.93" x2="2552.83" y2="1871.95"/>
	<line class="st11" x1="1038.86" y1="1538.59" x2="1108.02" y2="1540.97"/>
	<polyline class="st11" points="2318.79,1972.47 2271.33,2022.47 2260.95,2026.58 2211.73,2046.05 2182.37,2048.99 	"/>
	<line class="st11" x1="1152.02" y1="1711.46" x2="1219.09" y2="1702.41"/>
	<line class="st11" x1="1594.76" y1="1362.28" x2="1657" y2="1386.39"/>
	<line class="st11" x1="3061.08" y1="1707.51" x2="3127.04" y2="1716.95"/>
	<polyline class="st11" points="2371.56,1971.84 2319.06,2014.18 2305.2,2019.11 2260.45,2033.94 2255.56,2035.56 2236.7,2041.47 	
		"/>
	<line class="st11" x1="3154.26" y1="1520.94" x2="3220.35" y2="1517.26"/>
	<line class="st11" x1="1090.14" y1="1511.87" x2="1155.29" y2="1515.88"/>
	<polyline class="st11" points="2086.42,1109.39 2148.89,1108.77 2178.91,1107.43 	"/>
	<line class="st11" x1="1245.38" y1="1737.18" x2="1306.84" y2="1726.28"/>
	<polyline class="st11" points="2214.12,2028.15 2152.2,2030.23 2090.04,2028.55 2032.16,2023.24 1985.8,1972.46 	"/>
	<line class="st11" x1="3094.5" y1="1497.12" x2="3155.88" y2="1491.94"/>
	<line class="st11" x1="2969.26" y1="1730.93" x2="3029.26" y2="1742.19"/>
	<line class="st11" x1="1158.18" y1="1486.96" x2="1218.43" y2="1492.43"/>
	<polyline class="st11" points="2030.33,1204.05 2089.05,1207.68 2152.11,1208.83 2214.93,1207.41 2272.97,1203.53 	"/>
	<line class="st11" x1="3020.06" y1="1475.2" x2="3075.94" y2="1468.67"/>
	<line class="st11" x1="1358.39" y1="1760.35" x2="1412.68" y2="1747.75"/>
	<polyline class="st11" points="2582.16,1396.91 2637.09,1401.01 2761.04,1413.74 2876.71,1429.37 2982.29,1447.74 3075.94,1468.67 
		3155.88,1491.94 3220.35,1517.26 3267.73,1544.29 3296.49,1572.66 3305.34,1601.91 3293.27,1631.53 3259.6,1660.99 3204.1,1689.67 
		3127.04,1716.95 3029.26,1742.19 2912.22,1764.76 2777.98,1784.07 2629.23,1799.57 2558.59,1804.55 2529.07,1806.63 
		2469.18,1810.84 2468.76,1810.86 2381.7,1814.33 2301.48,1817.54 2290.76,1800.62 2276.22,1800.78 2155.19,1802.12 
		2131.44,1802.39 2033.57,1800.73 1972.54,1799.7 1959.2,1816.54 1926.4,1815.03 1836.69,1810.9 1792.84,1808.88 1773.74,1807.41 
		1740.98,1804.88 1739.05,1804.73 1634.94,1796.71 1489.09,1780.37 1358.39,1760.35 1245.38,1737.18 1152.02,1711.46 
		1079.62,1683.84 1028.88,1654.95 999.97,1625.41 992.56,1595.82 1005.88,1566.71 1038.86,1538.59 1090.14,1511.87 1158.18,1486.96 
		1241.3,1464.15 1337.75,1443.73 1445.72,1425.91 1563.38,1410.87 1688.92,1398.75 1716.11,1396.87 	"/>
	<line class="st11" x1="1241.3" y1="1464.15" x2="1295.89" y2="1470.93"/>
	<line class="st11" x1="2859.71" y1="1751.84" x2="2912.22" y2="1764.76"/>
	<polyline class="st11" points="2398.73,1971.51 2356.03,2002.26 2319.76,2013.62 2302.63,2019.36 2261.06,2033.3 2236.7,2041.47 
		2211.73,2046.05 	"/>
	<line class="st11" x1="2932.56" y1="1455.45" x2="2982.29" y2="1447.74"/>
	<line class="st11" x1="1337.75" y1="1443.73" x2="1386.06" y2="1451.66"/>
	<line class="st11" x1="1489.09" y1="1780.37" x2="1534.78" y2="1766.29"/>
	<polyline class="st11" points="1766.32,1788.69 1748.79,1744.45 1733.44,1623.63 1747.02,1499.03 1788.66,1379.72 1855.31,1274.4 
		1941.99,1190.63 1980.14,1198.22 2030.33,1204.05 2088.03,1140.86 2118.2,1142.65 2148.09,1107.83 2178.91,1107.43 
		2208.56,1109.14 2234.26,1111.93 2254.28,1115.6 2267.24,1119.91 2273.77,1122.44 2282.92,1125.97 2376.69,1162.16 
		2387.23,1170.89 2391.49,1173.31 2469.85,1232.29 2485,1245.93 2525.09,1297.85 2558.85,1341.57 2559.81,1342.83 2563.9,1352.72 
		2566.92,1360.03 2575.9,1381.75 2582.16,1396.91 2587.43,1409.67 2606.3,1455.34 2597.15,1476.62 2612.16,1599.02 2595.28,1719.37 
		2554.9,1742.14 2485.25,1762.17 2390.71,1777.9 2277.91,1788.05 2155.26,1791.78 2032.12,1788.77 1917.92,1779.27 1821.2,1764.08 
		1748.79,1744.45 1705.33,1721.9 1688.49,1601.5 1703.39,1478.88 1691.05,1457.62 1710.86,1409.6 1711.7,1407.57 1716.11,1396.87 
		1722.28,1381.91 1734.26,1352.86 1737.6,1344.77 1740.26,1341.31 1773.55,1298.06 1812.53,1247.43 1825.43,1233.71 
		1902.36,1175.91 1910.04,1171.56 1919.36,1163.13 2013.39,1126.71 2023.46,1122.81 2029.67,1120.41 2041.86,1116.04 
		2061.22,1112.28 2086.42,1109.39 2115.76,1107.56 2147.28,1106.89 2148.89,1108.77 2182.75,1142.52 2212.58,1140.6 
		2272.97,1203.53 2322.09,1197.48 2358.87,1189.73 2446.8,1273.06 2514.38,1377.98 2556.62,1496.97 2570.41,1621.36 2554.9,1742.14 
		2536.46,1788.17 	"/>
	<line class="st11" x1="2734.36" y1="1769.7" x2="2777.98" y2="1784.07"/>
	<polyline class="st11" points="2597.15,1476.62 2556.62,1496.97 2486.67,1514.87 2391.73,1528.93 2278.44,1538 2155.24,1541.34 
		2031.56,1538.64 1916.87,1530.16 1819.73,1516.58 1747.02,1499.03 1703.39,1478.88 	"/>
	<line class="st11" x1="2833.67" y1="1438.09" x2="2876.71" y2="1429.37"/>
	<line class="st11" x1="2125.17" y1="1883.11" x2="2128.49" y2="1840.37"/>
	<line class="st11" x1="1445.72" y1="1425.91" x2="1487.24" y2="1434.82"/>
	<line class="st11" x1="1634.94" y1="1796.71" x2="1670.78" y2="1781.38"/>
	<line class="st11" x1="2725.12" y1="1423.31" x2="2761.04" y2="1413.74"/>
	<line class="st11" x1="2595.71" y1="1784.03" x2="2629.23" y2="1799.57"/>
	<line class="st11" x1="1563.38" y1="1410.87" x2="1597.7" y2="1420.6"/>
	<polyline class="st11" points="2148.89,1108.77 2150.53,1143.22 2152.11,1208.83 2153.48,1301.65 2154.56,1415.28 2155.24,1541.34 
		2155.48,1670.15 2155.26,1791.78 2155.19,1802.12 	"/>
	<polyline class="st11" points="2397.5,1878.33 2364.46,1884.07 2263.87,1893.54 2154.59,1897.02 2044.89,1894.21 1943.07,1885.35 
		1909.12,1879.78 1906.01,1879.27 1905.12,1879.13 	"/>
	<polyline class="st11" points="2115.76,1107.56 2148.89,1108.77 2268.78,1129.31 	"/>
	<polyline class="st11" points="2118.2,1142.65 2150.53,1143.22 2182.75,1142.52 	"/>
	<polyline class="st11" points="1830.84,1793.23 1821.2,1764.08 1808.51,1642.92 1819.73,1516.58 1854.1,1394.49 1908.99,1285.74 
		1980.14,1198.22 2062.13,1137.98 2088.03,1140.86 2148.89,1108.77 2267.24,1119.91 2272.21,1124.59 2386.89,1171.43 2485,1245.93 	
		"/>
	<line class="st11" x1="2608.63" y1="1411.27" x2="2637.09" y2="1401.01"/>
	<polyline class="st11" points="2118.84,2049.2 2089.14,2046.45 2032.16,2023.24 1982.68,2014.7 1945.06,2003.58 1921.78,1990.68 
		1893.61,1970.78 	"/>
	<line class="st11" x1="1792.84" y1="1808.88" x2="1817.79" y2="1792.63"/>
	<polyline class="st11" points="2089.14,2046.45 2063.65,2042.03 2042.93,2035.03 1998.95,2020.19 1982.68,2014.7 1929.99,1971.44 	
		"/>
	<line class="st11" x1="1750.87" y1="1827.9" x2="1740.98" y2="1804.88"/>
	<line class="st11" x1="2558.59" y1="1804.55" x2="2548.81" y2="1827.23"/>
	<line class="st11" x1="1688.92" y1="1398.75" x2="1711.7" y2="1407.57"/>
	<line class="st11" x1="2529.07" y1="1806.63" x2="2519.99" y2="1829.28"/>
	<line class="st11" x1="1801.55" y1="1892.47" x2="1786.24" y2="1873.5"/>
	<line class="st11" x1="2512.13" y1="1873.62" x2="2497" y2="1892.36"/>
	<line class="st11" x1="1782.58" y1="1829.73" x2="1773.74" y2="1807.41"/>
	<line class="st11" x1="1822.62" y1="1893.47" x2="1808.24" y2="1874.54"/>
	<line class="st11" x1="2493.22" y1="1874.4" x2="2478.87" y2="1893.11"/>
	<polyline class="st11" points="2265.26,1973.11 2242.01,1975.37 2153.54,1978.28 2064.74,1975.93 2036.37,1973.38 	"/>
	<line class="st11" x1="1843.87" y1="1832.58" x2="1836.69" y2="1810.9"/>
	<line class="st11" x1="2468.76" y1="1810.86" x2="2461.49" y2="1832.35"/>
	<line class="st11" x1="1872.62" y1="1895.86" x2="1860.42" y2="1877.01"/>
	<line class="st11" x1="2444.31" y1="1876.41" x2="2431.99" y2="1895.05"/>
	<line class="st11" x1="1931.52" y1="1836.65" x2="1926.4" y2="1815.03"/>
	<line class="st11" x1="2381.7" y1="1814.33" x2="2376.4" y2="1835.78"/>
	<polyline class="st11" points="1737.6,1344.77 1749.13,1362.73 1788.66,1379.72 1854.1,1394.49 1941.24,1405.9 2043.93,1413.02 
		2154.56,1415.28 2264.76,1412.49 2366.2,1404.87 2451.4,1393.05 2514.38,1377.98 2551.14,1360.83 2559.81,1342.83 	"/>
	<polyline class="st11" points="2587.43,1409.67 2608.63,1411.27 2725.12,1423.31 2833.67,1438.09 2932.56,1455.45 3020.06,1475.2 
		3094.5,1497.12 3154.26,1520.94 3197.84,1546.33 3223.86,1572.93 3231.18,1600.3 3218.91,1627.98 3186.49,1655.45 3133.77,1682.15 
		3061.08,1707.51 2969.26,1730.93 2859.71,1751.84 2734.36,1769.7 2595.71,1784.03 2566.55,1786.07 2536.46,1788.17 
		2474.99,1792.47 2446.73,1794.44 2386.02,1796.84 2290.76,1800.62 	"/>
	<line class="st11" x1="2038.18" y1="1838.82" x2="2035.64" y2="1817.84"/>
	<line class="st11" x1="2273.95" y1="1817.84" x2="2271.16" y2="1838.76"/>
	<line class="st11" x1="2155.08" y1="1819.17" x2="2154.95" y2="1840.07"/>
	<polyline class="st11" points="1750.55,1827.87 1741.03,1809.33 1739.05,1804.73 	"/>
	<polyline class="st11" points="2063.65,2042.03 2044.1,2036.24 2044,2036.21 1994.09,2019.75 1985.3,2016.85 1974.52,2013.29 
		1945.06,2003.58 1899.92,1970.9 	"/>
	<polyline class="st11" points="1922.22,1797.4 1917.92,1779.27 1908.91,1657.85 1916.87,1530.16 1941.24,1405.9 1980.09,1294.48 
		2030.33,1204.05 	"/>
	<polyline class="st11" points="1812.53,1247.43 1822.54,1261.31 1855.31,1274.4 1908.99,1285.74 1980.09,1294.48 2063.62,1299.92 
		2153.48,1301.65 2243.01,1299.51 2325.54,1293.68 2395.09,1284.64 2446.8,1273.06 2477.32,1259.85 2485,1245.93 	"/>
	<line class="st11" x1="2130.12" y1="1819.45" x2="2131.44" y2="1802.39"/>
	<polyline class="st11" points="2563.9,1352.72 2579.56,1353.47 2737.15,1364.95 2887.53,1380.02 3028.6,1398.57 3158.24,1420.47 
		3274.24,1445.52 3374.4,1473.5 3456.53,1504.11 3518.42,1536.98 3558.04,1571.69 3573.53,1607.71 3563.3,1644.43 3526.23,1681.17 
		3461.63,1717.19 3369.5,1751.66 3250.61,1783.75 3106.58,1812.6 2939.89,1837.39 2753.91,1857.38 2552.83,1871.95 2512.13,1873.62 
		2493.22,1874.4 2444.31,1876.41 2397.5,1878.33 2365.55,1879.64 2341.47,1880.62 2314.63,1838.27 2271.16,1838.76 2154.95,1840.07 
		2128.49,1840.37 2038.18,1838.82 1942.86,1837.18 1909.47,1879.33 1905.12,1879.13 1860.42,1877.01 1808.24,1874.54 
		1786.24,1873.5 1699.91,1869.41 1501.7,1853.68 1319.59,1832.64 1157.56,1806.95 1018.82,1777.36 905.66,1744.71 819.5,1709.85 
		760.92,1673.62 729.79,1636.82 725.33,1600.19 746.27,1564.4 790.97,1530.03 857.51,1497.59 943.8,1467.5 1047.67,1440.1 
		1166.89,1415.68 1299.26,1394.46 1442.59,1376.62 1594.76,1362.28 1734.26,1352.86 	"/>
	<polyline class="st11" points="2154.68,1882.77 2154.59,1897.02 2154.55,1900.62 	"/>
	<line class="st11" x1="2566.92" y1="1360.03" x2="2579.56" y2="1353.47"/>
	<polyline class="st11" points="1948.97,1897.9 1943.07,1885.35 1941.77,1879.9 	"/>
	<polyline class="st11" points="2265.47,1881.5 2263.87,1893.54 2262.31,1899.37 	"/>
	<polyline class="st11" points="1910.76,1172.44 1918.39,1181.82 1941.99,1190.63 2042.28,1134.21 2148.89,1108.77 2257.11,1133.76 
		2358.87,1189.73 2380.91,1180.83 2386.89,1171.43 	"/>
	<polyline class="st11" points="2033.57,1800.73 2032.12,1788.77 2027.53,1667.19 2031.56,1538.64 2043.93,1413.02 2063.62,1299.92 
		2089.05,1207.68 2118.2,1142.65 	"/>
	<polyline class="st11" points="2025.54,1125.1 2029.82,1129.81 2148.89,1108.77 2254.28,1115.6 	"/>
	<line class="st11" x1="2268.78" y1="1129.31" x2="2272.21" y2="1124.59"/>
	<polyline class="st11" points="2046.21,1899.61 2044.89,1894.21 2043.38,1881.68 	"/>
	<polyline class="st11" points="2365.55,1879.64 2364.46,1884.07 2357.56,1898.13 	"/>
	<polyline class="st11" points="2153.59,1974.44 2153.54,1978.28 2152.2,2030.23 2150.66,2050.06 	"/>
	<polyline class="st11" points="2242.54,1973.38 2242.01,1975.37 2214.12,2028.15 	"/>
	<polyline class="st11" points="1895.52,1896.95 1872.62,1895.86 1822.62,1893.47 1801.55,1892.47 1673.86,1886.38 1464.43,1869.62 
		1272.28,1847.22 1101.68,1819.91 955.99,1788.51 837.59,1753.9 747.91,1717.01 687.48,1678.74 656.05,1639.93 652.7,1601.38 
		676,1563.77 724.14,1527.72 795.02,1493.75 886.42,1462.29 996,1433.68 1121.43,1408.22 1260.38,1386.11 1410.59,1367.55 
		1569.85,1352.64 1736.03,1341.49 1740.26,1341.31 	"/>
	<polyline class="st11" points="1730.95,1785.99 1706.31,1728.88 1702.7,1720.53 1693.02,1698.11 	"/>
	<polyline class="st11" points="2403.01,1971.34 2400.22,1973.32 2377.77,1989.23 2356.03,2002.26 2324.22,2012.8 2319.06,2014.18 
		2271.33,2022.47 2214.12,2028.15 2182.37,2048.99 2150.66,2050.06 2118.84,2049.2 2090.04,2028.55 2064.74,1975.93 
		2064.24,1973.89 	"/>
	<polyline class="st11" points="2399.08,1971.51 2398.73,1971.51 2371.56,1971.84 2318.79,1972.47 2265.26,1973.11 2242.54,1973.38 
		2153.59,1974.44 2118.04,1974.87 2064.24,1973.89 2036.37,1973.38 1985.8,1972.46 1929.99,1971.44 1899.92,1970.9 1893.61,1970.78 
		1837.86,1969.77 	"/>
	<polyline class="st11" points="2558.85,1341.57 2560.39,1341.65 2598.81,1343.48 2763.62,1355.42 2921.05,1371.08 3068.94,1390.39 
		3205.08,1413.2 3327.19,1439.34 3432.93,1468.56 3519.99,1500.57 3586.07,1535.01 3628.91,1571.43 3646.48,1609.28 
		3637.09,1647.95 3599.38,1686.71 3532.56,1724.77 3436.55,1761.27 3312.04,1795.29 3160.7,1825.92 2985.1,1852.28 2788.81,1873.56 
		2576.27,1889.08 2497,1892.36 2478.87,1893.11 2431.99,1895.05 2357.56,1898.13 2352.69,1898.33 	"/>
	<polyline class="st11" points="2446.73,1794.44 2468.85,1810.6 2469.18,1810.84 	"/>
	<polyline class="st11" points="1703.39,1478.88 1728.86,1414.22 1731.46,1407.6 1742.11,1380.55 1749.13,1362.73 1796.64,1297.1 
		1822.54,1261.31 1918.39,1181.82 2029.82,1129.81 2042.28,1134.21 2062.13,1137.98 2148.89,1108.77 2212.58,1140.6 
		2237.95,1137.61 2257.11,1133.76 2268.78,1129.31 2380.91,1180.83 2477.32,1259.85 2504.4,1296.89 2551.14,1360.83 2558.96,1380.5 
		2564.97,1395.63 2570.03,1408.37 2597.15,1476.62 	"/>
	<polyline class="st11" points="2301.48,1817.54 2273.95,1817.84 2155.08,1819.17 2130.12,1819.45 2035.64,1817.84 1959.2,1816.54 	
		"/>
	<polyline class="st11" points="2341.47,1880.62 2265.47,1881.5 2154.68,1882.77 2125.17,1883.11 2043.38,1881.68 1941.77,1879.9 
		1909.47,1879.33 	"/>
</g>
</svg>
