<?xml version="1.0" encoding="utf-8"?>
<!-- Generator: Adobe Illustrator 25.0.1, SVG Export Plug-In . SVG Version: 6.00 Build 0)  -->
<svg version="1.1" id="Layer_1" xmlns="http://www.w3.org/2000/svg" xmlns:xlink="http://www.w3.org/1999/xlink" x="0px" y="0px"
	 viewBox="0 0 768 768" style="enable-background:new 0 0 768 768;" xml:space="preserve">
<style type="text/css">
	.st0{fill:#FFFFFF;stroke:#000000;stroke-width:0.5;stroke-miterlimit:10;}
	.st1{fill:#030303;}
	.st2{fill:#8D54F6;}
	.st3{stroke:#000000;stroke-width:0.5;stroke-miterlimit:10;}
	.st4{fill:#6B6B6B;}
	.st5{fill:none;stroke:#6B6B6B;stroke-miterlimit:10;}
	.st6{fill:#FFFFFF;}
	.st7{fill:none;stroke:#FFFFFF;stroke-miterlimit:10;}
	.st8{fill:#1C4231;}
	.st9{fill:#FAFAFA;}
	.st10{fill:#FCFCFC;}
	.st11{fill:none;stroke:#FFFFFF;stroke-width:2;stroke-linecap:round;stroke-linejoin:round;}
	.st12{fill:none;stroke:#87FA58;stroke-width:2;stroke-linecap:round;stroke-linejoin:round;}
	.st13{fill:#CCE35B;}
	.st14{fill:none;stroke:#000000;stroke-width:2;stroke-linecap:round;stroke-linejoin:round;}
	.st15{fill:none;stroke:#000000;stroke-width:7;stroke-miterlimit:10;}
	.st16{fill:#87FA58;}
	.st17{fill:#AEFBBA;}
	.st18{fill:#0DFF8B;}
	.st19{fill:#D8612C;}
	.st20{fill:none;stroke:#FFFFFF;stroke-width:6;stroke-miterlimit:10;}
</style>
<path class="st1" d="M626,416.56v1.88C625.47,552.16,517.16,660.47,383.44,661h-1.88C247.84,660.47,139.53,552.16,139,418.44v-1.88
	C139.53,282.84,247.84,174.53,381.56,174h1.88C517.16,174.53,625.47,282.84,626,416.56z"/>
<path class="st2" d="M626,416.56c-6.75,0.65-13.61,0.94-20.54,0.94c-123.16,0-222.96-99.81-222.96-222.96
	c0-6.92,0.29-13.79,0.94-20.54C517.16,174.53,625.47,282.84,626,416.56z"/>
<path class="st2" d="M159.54,417.5c-6.92,0-13.79-0.29-20.54-0.94C139.53,282.84,247.84,174.53,381.56,174
	c0.65,6.75,0.94,13.62,0.94,20.54C382.5,317.7,282.7,417.5,159.54,417.5z"/>
<path class="st2" d="M382.5,640.46c0,6.92-0.29,13.79-0.94,20.54C247.84,660.47,139.53,552.16,139,418.44
	c6.75-0.65,13.62-0.94,20.54-0.94C282.7,417.5,382.5,517.3,382.5,640.46z"/>
<path class="st2" d="M626,418.44C625.47,552.16,517.16,660.47,383.44,661c-0.65-6.75-0.94-13.61-0.94-20.54
	c0-123.16,99.81-222.96,222.96-222.96C612.39,417.5,619.25,417.79,626,418.44z"/>
<polygon class="st2" points="381.56,174 383.44,174 383.54,191.61 380.43,197.83 "/>
<polygon class="st2" points="139,418.86 138.98,416.46 156.6,416.21 162.84,420.11 "/>
<polygon class="st2" points="378.36,661 386.91,661 384.57,644.6 381.46,638.38 "/>
<polygon class="st2" points="605.28,407.14 610.46,424.75 626,418.44 626,416.56 "/>
</svg>
