<?xml version="1.0" encoding="utf-8"?>
<!-- Generator: Adobe Illustrator 25.0.1, SVG Export Plug-In . SVG Version: 6.00 Build 0)  -->
<svg version="1.1" id="Layer_1" xmlns="http://www.w3.org/2000/svg" xmlns:xlink="http://www.w3.org/1999/xlink" x="0px" y="0px"
	 viewBox="0 0 768 768" style="enable-background:new 0 0 768 768;" xml:space="preserve">
<style type="text/css">
	.st0{fill:#FFFFFF;stroke:#000000;stroke-width:0.5;stroke-miterlimit:10;}
	.st1{fill:#030303;}
	.st2{fill:#8D54F6;}
	.st3{stroke:#000000;stroke-width:0.5;stroke-miterlimit:10;}
	.st4{fill:#6B6B6B;}
	.st5{fill:none;stroke:#6B6B6B;stroke-miterlimit:10;}
	.st6{fill:#FFFFFF;}
	.st7{fill:none;stroke:#FFFFFF;stroke-miterlimit:10;}
	.st8{fill:#1C4231;}
	.st9{fill:#FAFAFA;}
	.st10{fill:#FCFCFC;}
	.st11{fill:none;stroke:#FFFFFF;stroke-width:2;stroke-linecap:round;stroke-linejoin:round;}
	.st12{fill:none;stroke:#87FA58;stroke-width:2;stroke-linecap:round;stroke-linejoin:round;}
	.st13{fill:#CCE35B;}
	.st14{fill:none;stroke:#000000;stroke-width:2;stroke-linecap:round;stroke-linejoin:round;}
	.st15{fill:none;stroke:#000000;stroke-width:7;stroke-miterlimit:10;}
	.st16{fill:#87FA58;}
	.st17{fill:#AEFBBA;}
	.st18{fill:#0DFF8B;}
	.st19{fill:#D8612C;}
	.st20{fill:none;stroke:#FFFFFF;stroke-width:6;stroke-miterlimit:10;}
</style>
<polygon class="st2" points="139,418.86 138.98,416.46 156.6,416.21 162.84,420.11 "/>
<g>
	<path class="st2" d="M630.19,409.53c-0.19-8.12-1.66-15.88-4.16-23.18c-13.28-37.37-53.24-62.4-87.59-55.35
		c-15.39,3.8-30.1,9.38-43.67,15.81c-49.87,23.7-84.83,58.96-84.83,58.96l-7.89,7.53h-0.84l6.53-6.53c0,0,58.44-55.19,77.92-126.62
		c9.74-42.21-29.22-94.15-81.17-94.15h-15.65c-51.95,0-90.91,51.95-81.17,94.15c19.48,71.43,77.92,126.62,77.92,126.62l6.53,6.53
		h-0.68l-7.92-7.53c0,0-34.97-35.26-84.83-58.96c-13.57-6.43-28.28-12.01-43.67-15.81c-33.6-6.88-72.56,16.91-86.68,52.89
		c-0.26,0.62-0.49,1.23-0.68,1.85c-2.63,7.47-4.19,15.45-4.38,23.8L163,419.82l0.26,10.26c0.19,8.38,1.75,16.36,4.38,23.83
		c0.19,0.62,0.42,1.2,0.68,1.82c14.12,35.97,53.08,59.77,86.68,52.89c15.55-3.83,30.42-9.51,44.12-16.07
		c49.64-23.67,84.38-58.7,84.38-58.7l7.92-7.53h0.68l-6.53,6.53c0,0-58.44,55.19-77.92,126.62c-9.74,42.21,29.22,94.15,81.17,94.15
		h15.65c51.95,0,90.91-51.95,81.17-94.15c-19.48-71.43-77.92-126.62-77.92-126.62l-6.53-6.53h0.84l7.89,7.53
		c0,0,34.74,35.03,84.38,58.7c13.7,6.56,28.57,12.24,44.12,16.07c34.35,7.05,74.32-17.99,87.59-55.35c2.5-7.3,3.96-15.06,4.16-23.18
		l0.26-10.26L630.19,409.53z M396.63,419.85v-0.1h0.23v0.1H396.63z"/>
	<path class="st2" d="M238.91,653.09c-0.03,0.16-0.06,0.36-0.1,0.52v-1.1C238.81,652.7,238.84,652.9,238.91,653.09z"/>
	<path class="st2" d="M238.97,652.51v1.1c-0.03-0.16-0.07-0.36-0.07-0.52C238.94,652.9,238.97,652.7,238.97,652.51z"/>
	<g>
		<circle class="st2" cx="557.46" cy="246.55" r="53.57"/>
		<circle class="st2" cx="557.46" cy="246.55" r="53.57"/>
	</g>
	<g>
		<circle class="st2" cx="239.3" cy="246.55" r="53.57"/>
		<circle class="st2" cx="239.3" cy="246.55" r="53.57"/>
	</g>
	<g>
		<circle class="st2" cx="557.46" cy="600.43" r="53.57"/>
		<circle class="st2" cx="557.46" cy="600.43" r="53.57"/>
	</g>
	<g>
		<circle class="st2" cx="239.3" cy="600.43" r="53.57"/>
		<circle class="st2" cx="239.3" cy="600.43" r="53.57"/>
	</g>
</g>
</svg>
