<svg viewBox="0 0 60 604" fill="none" xmlns="http://www.w3.org/2000/svg">
<line x1="31.5" y1="29.0027" x2="28.5" y2="575.003" stroke="white"/>
<path d="M24.3019 570.541L28 548L31.522 570.541L43.1447 560.855L33.283 572.302L56 576L33.283 579.522L43.1447 591.145L31.522 581.283L28 604L24.3019 581.283L12.8553 591.145L22.5409 579.522L0 576L22.5409 572.302L12.8553 560.855L24.3019 570.541Z" fill="#5245EF"/>
<g clip-path="url(#clip0)">
<path d="M30.4057 26.9908L26.6216 30.4991C26.6216 30.4991 12.1438 20.6252 9.60127 14.3187C9.60127 14.3187 8.23865 11.9467 10.0004 10.2797L9.99374 10.2704C11.7974 8.61806 14.234 10.0267 14.234 10.0267C20.6918 12.7139 30.4057 26.9908 30.4057 26.9908Z" fill="#7B49D7"/>
</g>
<g clip-path="url(#clip1)">
<path d="M33.7296 30.6767L30.1883 26.9234C30.1883 26.9234 39.9356 12.3599 46.2196 9.7625C46.2196 9.7625 48.5796 8.37923 50.2619 10.1263L50.2712 10.1196C51.9392 11.9088 50.5519 14.3576 50.5519 14.3576C47.9211 20.8386 33.7296 30.6767 33.7296 30.6767Z" fill="#7B49D7"/>
</g>
<g clip-path="url(#clip2)">
<path d="M29.957 34.0576L33.6793 30.4837C33.6793 30.4837 48.3273 40.1035 50.9794 46.3646C50.9794 46.3646 52.3832 48.7124 50.6509 50.4099L50.6577 50.4191C48.8832 52.1027 46.4224 50.7368 46.4224 50.7368C39.9186 48.1627 29.957 34.0576 29.957 34.0576Z" fill="#7B49D7"/>
</g>
<g clip-path="url(#clip3)">
<path d="M26.6592 30.1451L30.1675 33.9292C30.1675 33.9292 20.2936 48.4071 13.9871 50.9495C13.9871 50.9495 11.6151 52.3122 9.9481 50.5504L9.9388 50.5571C8.28646 48.7534 9.69506 46.3168 9.69506 46.3168C12.3823 39.859 26.6592 30.1451 26.6592 30.1451Z" fill="#7B49D7"/>
</g>
<path d="M30.4609 1.00192C32.4069 7.97497 40.7745 23.4292 58.6774 29.4617" stroke="#7B49D7" stroke-width="1.5"/>
<path d="M58.5493 29.3399C51.6113 31.4073 36.3055 40.0434 30.5864 58.0488" stroke="#7B49D7" stroke-width="1.5"/>
<path d="M30.34 57.8027C28.394 50.8297 20.0264 35.3755 2.12347 29.343" stroke="#7B49D7" stroke-width="1.5"/>
<path d="M2.24625 29.4638C9.20205 27.4571 24.5827 18.9549 30.4587 0.999991" stroke="#7B49D7" stroke-width="1.5"/>
<defs>
<clipPath id="clip0">
<rect width="20.9192" height="21.4056" fill="white" transform="translate(9.02087 9.54889) rotate(-1.5)"/>
</clipPath>
<clipPath id="clip1">
<rect width="20.9192" height="21.4056" fill="white" transform="translate(50.9813 9.13788) rotate(88)"/>
</clipPath>
<clipPath id="clip2">
<rect width="20.9192" height="21.4056" fill="white" transform="translate(51.643 51.1235) rotate(177.5)"/>
</clipPath>
<clipPath id="clip3">
<rect width="20.9192" height="21.4056" fill="white" transform="translate(9.22012 51.5326) rotate(-91.5)"/>
</clipPath>
</defs>
</svg>
