<?xml version="1.0" encoding="utf-8"?>
<!-- Generator: Adobe Illustrator 25.0.1, SVG Export Plug-In . SVG Version: 6.00 Build 0)  -->
<svg version="1.1" id="Layer_1" xmlns="http://www.w3.org/2000/svg" xmlns:xlink="http://www.w3.org/1999/xlink" x="0px" y="0px"
	 viewBox="0 0 7843 8192" style="enable-background:new 0 0 7843 8192;" xml:space="preserve">
<style type="text/css">
	.st0{fill-rule:evenodd;clip-rule:evenodd;}
	.st1{font-family:'HelveticaNeue-Bold';}
	.st2{font-size:4.9283px;}
</style>
<g>
	<polygon class="st0" points="2680.07,698.83 7582.7,698.83 5215.17,2003.83 2680.07,2003.83 	"/>
	<polygon class="st0" points="2538.14,2003.83 2538.14,748.11 260.3,2003.83 	"/>
	<polygon class="st0" points="5162.93,7252.43 5162.93,5947.42 2627.83,5947.42 260.3,7252.43 	"/>
	<polygon class="st0" points="56.27,2145.76 56.27,7203.14 2538.14,5834.07 2538.14,2145.76 	"/>
	<polygon class="st0" points="5304.86,5947.42 5304.86,7203.14 7582.7,5947.42 	"/>
	<polygon class="st0" points="5304.86,5805.49 7786.73,5805.49 7786.73,748.11 5304.86,2116.19 	"/>
	<polygon class="st0" points="2680.07,5805.49 5162.93,5805.49 5162.93,2145.76 2680.07,2145.76 	"/>
</g>
<text transform="matrix(1 0 0 1 56.2661 6568.3848)" class="st1 st2">Created by rama</text>
<text transform="matrix(1 0 0 1 56.2661 6573.3125)" class="st1 st2">from the Noun Project</text>
</svg>
