<?xml version="1.0" encoding="utf-8"?>
<!-- Generator: Adobe Illustrator 25.0.1, SVG Export Plug-In . SVG Version: 6.00 Build 0)  -->
<svg version="1.1" id="Layer_1" xmlns="http://www.w3.org/2000/svg" xmlns:xlink="http://www.w3.org/1999/xlink" x="0px" y="0px"
	 viewBox="0 0 6586 8192" style="enable-background:new 0 0 6586 8192;" xml:space="preserve">
<style type="text/css">
	.st0{font-family:'HelveticaNeue-Bold';}
	.st1{font-size:3.2936px;}
</style>
<g>
	<path d="M4883.81,2148.58c-891.91,314.21-2376.66,315.53-3261.32-29.64c-179.83-70.48-368.88-167.31-498.65-312.89v4564.93
		l28.98-30.96l78.39,77.07c-44.13,44.13-83.66,98.81-99.47,160.07l-7.9-1.98c0,329.36,343.19,468.35,614.59,563.86
		c859.63,303.01,2249.53,303.01,3109.16,0c366.91-129.11,598.78-298.4,613.93-482.18c5.27-64.55-14.49-118.57-50.06-171.93
		l50.72-34.91V1806.04C5315.93,1970.72,5088.67,2076.12,4883.81,2148.58z M3059.81,5801.18l3.95,110.01l-216.72,11.86l-8.56-110.01
		L3059.81,5801.18z M2728.48,5822.26l9.88,109.35l-216.06,24.37l-14.49-109.35L2728.48,5822.26z M2397.8,5862.44l17.13,108.69
		l-214.08,37.55l-21.74-107.37L2397.8,5862.44z M2070.42,5924.36l25.03,107.37l-209.47,54.02l-30.96-104.74L2070.42,5924.36z
		 M1748.3,6013.94l34.91,104.08c-69.17,23.06-133.72,47.43-200.91,76.41l-44.13-100.12C1608,6064.01,1675.84,6038.32,1748.3,6013.94
		z M1436.07,6142.39l50.06,97.49c-60.6,31.62-123.84,68.51-177.85,110.01l-67.19-86.95
		C1301.69,6216.83,1368.88,6177.31,1436.07,6142.39z M5423.96,6330.79l-75.75,79.05c-50.06-48.75-106.05-88.27-165.34-123.84
		l55.99-94.2C5306.05,6231.98,5367.97,6276.11,5423.96,6330.79z M5138.73,6137.12l-48.75,98.15
		c-65.87-32.94-127.13-59.28-196.3-84.97l38.86-102.76C5004.35,6074.55,5069.57,6102.21,5138.73,6137.12z M4826.5,6010.65
		l-34.25,104.08c-67.85-22.4-137.67-42.82-206.84-60.6l27.01-106.05C4683.56,5966.52,4756.67,5986.94,4826.5,6010.65z
		 M4503.73,5921.72l-23.71,107.37l-212.77-42.16l18.44-108.69L4503.73,5921.72z M4176.34,5860.46l-16.47,108.69l-215.4-27.67
		l11.86-109.35L4176.34,5860.46z M3846.32,5821.6l-9.88,109.35l-216.72-15.81l5.27-109.35L3846.32,5821.6z M3514.33,5801.18
		c-1.32,36.23-2.63,73.12-3.29,109.35c-112.64-3.95-225.28-4.61-338.58-2.64c-0.66-36.23-1.32-73.12-1.98-110.01
		C3285.1,5796.57,3399.71,5796.57,3514.33,5801.18z"/>
	<path d="M1738.42,2045.16c856.99,302.35,2252.82,302.35,3109.16,0c818.79-289.18,818.79-717.35,0-1005.86
		c-856.34-302.35-2252.16-302.35-3109.16,0C923.59,1326.5,923.59,1757.3,1738.42,2045.16z"/>
</g>
<text transform="matrix(1 0 0 1 1123.8369 7376.1748)" class="st0 st1">Created by etika</text>
<text transform="matrix(1 0 0 1 1123.8369 7379.4697)" class="st0 st1">from the Noun Project</text>
</svg>
