<?xml version="1.0" encoding="utf-8"?>
<!-- Generator: Adobe Illustrator 25.0.1, SVG Export Plug-In . SVG Version: 6.00 Build 0)  -->
<svg version="1.1" id="Layer_1" xmlns="http://www.w3.org/2000/svg" xmlns:xlink="http://www.w3.org/1999/xlink" x="0px" y="0px"
	 viewBox="0 0 7972 8192" style="enable-background:new 0 0 7972 8192;" xml:space="preserve">
<style type="text/css">
	.st0{font-family:'HelveticaNeue-Bold';}
	.st1{font-size:4.1104px;}
</style>
<g>
	<path d="M7235.67,4291.21c-171.81,213.74-469.41,402.82-859.07,553.26c-1323.54,511.33-3457.66,511.33-4780.38,0
		c-390.49-150.44-688.08-339.52-859.89-553.26C945.96,5909.88,2329.51,7142.99,3986,7142.99S7026.04,5909.88,7235.67,4291.21z"/>
	<path d="M7140.31,3540.65c-23.02-29.59-17.26-73.16,12.33-96.18c25.48-18.91,59.19-18.09,83.03,0
		C7027.69,1824.15,5643.31,589.39,3986,589.39c-1655.66,0-3039.22,1232.29-3249.67,2850.96c6.58-8.22,12.33-15.62,18.91-22.2
		c55.9-67.41,166.88,13.98,101.12,92.07c-89.61,106.05-147.15,221.14-147.15,355.96c0,326.36,357.6,627.24,936.35,850.85
		c1289.84,499,3391.89,499,4681.73,0c577.92-223.6,935.52-524.48,935.52-850.85C7262.8,3743.7,7214.3,3637.66,7140.31,3540.65z
		 M3986,2504.01l276.22,4.93c89.61,2.47,86.32,138.93-4.11,136.46c-166.06-4.93-330.47-5.75-496.53-0.82
		c-89.61,2.47-93.72-134.82-3.29-137.29L3986,2504.01z M3343.96,2527.85c90.43-6.58,100.29,129.89,10.69,136.46l-270.46,24.66
		c-89.61,9.86-104.4-125.78-14.8-135.64L3343.96,2527.85z M2658.35,2609.24c87.14-13.98,115.91,120.02,18.09,135.64l-262.24,49.32
		c-87.96,18.91-116.74-115.91-27.95-134L2658.35,2609.24z M1981.78,2758.86c87.14-24.66,124.96,107.69,37.82,132.35l-257.31,81.39
		c-84.67,29.59-129.89-99.47-45.21-129.07C1800.1,2813.94,1897.92,2782.7,1981.78,2758.86z M1329.87,3003.01
		c78.1-37.82,147.15,80.56,54.26,126.6c-75.63,36.99-155.37,80.56-226.07,125.78c-73.99,48.5-154.55-64.12-69.88-117.56
		C1165.45,3088.51,1247.66,3043.29,1329.87,3003.01z M6929.86,3167.43c73.16,49.32,0.82,166.06-79.74,111.8
		c-73.17-49.32-147.97-92.07-226.07-132.35c-80.56-40.28-18.09-162.77,61.66-121.67
		C6769.55,3067.96,6851.76,3114.82,6929.86,3167.43z M6300.97,2859.15c84.67,30.42,37.82,159.48-46.86,129.07l-256.49-83.85
		c-85.5-25.48-50.15-157.84,41.93-130.71L6300.97,2859.15z M5633.44,2670.07c87.14,18.91,62.48,153.73-32.06,133.18l-263.06-50.97
		c-88.78-14.8-65.77-150.44,23.02-134.82L5633.44,2670.07z M4951.12,2558.27c88.78,10.69,75.63,147.15-17.26,136.46l-268.82-26.31
		c-89.61-7.4-78.92-143.86,10.69-136.46L4951.12,2558.27z"/>
</g>
<text transform="matrix(1 0 0 1 709.2002 6565.9316)" class="st0 st1">Created by ayu</text>
<text transform="matrix(1 0 0 1 709.2002 6570.041)" class="st0 st1">from the Noun Project</text>
</svg>
