<svg viewBox="0 0 195 49" fill="none" xmlns="http://www.w3.org/2000/svg">
<path d="M194 29.02C191.69 25.77 185.13 17.49 173.4 14.02C165.77 11.77 159.36 12.56 155.89 13.02C143.71 14.65 135.42 20.63 132.2 23.02C123.64 29.35 124.93 32.23 115.72 39.02C109.63 43.51 104 47.65 96.15 48.02C87.15 48.44 79.98 43.66 74.52 40.02C66.36 34.58 67.55 32.26 60.1 28.02C51.57 23.17 43.25 22.35 39.5 22.02C35.54 21.67 31.97 21.78 28.91 22.1" stroke="white" stroke-linecap="round" stroke-linejoin="round" stroke-dasharray="5 5"/>
<path d="M38.5312 35.6938L32.1587 22.2884L37.3639 8.40247L5.60854 23.4575L38.5312 35.6938Z" fill="white"/>
</svg>
