<svg viewBox="0 0 131 131" fill="none" xmlns="http://www.w3.org/2000/svg">
<path d="M65.5 131C101.675 131 131 101.675 131 65.5C131 29.3253 101.675 0 65.5 0C29.3253 0 0 29.3253 0 65.5C0 101.675 29.3253 131 65.5 131Z" fill="#CCE35B"/>
<path d="M25.9657 20.5228C25.8102 20.3989 25.5229 20.1564 25.1855 20.4648C24.9931 20.6414 24.9298 20.9472 25.1143 21.1501C25.3489 21.4085 25.515 21.3531 26.6088 20.9946C27.7449 20.6203 28.2905 20.8075 28.7491 21.3083C29.3264 21.9383 29.5978 22.9636 28.4539 24.01C27.2045 25.1513 26.1476 24.6162 25.6415 24.0627L25.5123 23.923L26.6088 22.9214C27.0675 23.4222 27.4576 23.2272 27.5973 23.1006C27.8608 22.8608 27.8213 22.4997 27.6394 22.302C27.3785 22.0173 27.1334 22.1122 26.2108 22.4391C25.7944 22.5946 24.7638 22.9794 24.0231 22.1676C23.2824 21.3557 23.6488 20.1749 24.3737 19.5133C24.8007 19.1232 25.4043 18.8596 25.9894 18.9361C26.535 19.0178 26.8197 19.2919 27.0543 19.5265L25.9657 20.5228Z" fill="black"/>
<path d="M32.8158 18.5299C32.945 19.0492 32.9344 19.5368 32.7947 19.9638C32.6656 20.3934 32.402 20.7651 32.0462 21.0392C31.0498 21.8062 29.5817 21.6507 28.7857 20.6148C28.0371 19.6448 28.1109 18.1582 29.1705 17.3438C30.2301 16.5293 31.6534 16.7692 32.4679 17.8288C32.5733 17.9658 32.605 18.0317 32.655 18.124L30.0482 20.1325C30.4304 20.4988 30.9628 20.4778 31.3688 20.1641C31.6877 19.919 31.7457 19.6448 31.751 19.3496L32.8158 18.5299ZM31.0973 18.2057C30.8943 18.0317 30.3882 17.8024 29.8479 18.2189C29.3102 18.6327 29.4024 19.1809 29.5184 19.4208L31.0973 18.2057Z" fill="black"/>
<path d="M31.0576 14.3416L32.1462 13.6089L35.412 18.4641L34.3234 19.1968L31.0576 14.3416Z" fill="black"/>
<path d="M34.4263 15.0665L34.0072 15.3222L33.4854 14.4734L33.9018 14.2178L33.7806 14.0227C33.1348 12.971 33.9598 12.3358 34.5054 12.001L34.6662 11.9009L35.1828 12.7443L35.0537 12.8234C34.9588 12.8814 34.7321 13.0685 34.9245 13.3848L35.0168 13.5324L35.4886 13.2425L36.0105 14.0912L35.5386 14.3812L37.3125 17.2727L36.195 17.9606L34.4263 15.0665Z" fill="black"/>
<path d="M41.1454 14.2231L41.2245 15.1193L39.7721 15.7993L39.4189 9.50501L40.4865 9.00684L45.0728 13.319L43.6046 14.007L42.9878 13.3612L41.1454 14.2231ZM41.0136 12.9764L42.1233 12.4571L40.7316 10.8994L40.7237 10.902L40.7105 10.9073L41.0136 12.9764Z" fill="black"/>
<path d="M44.408 8.90907L45.9315 11.2655L45.9473 11.2602L45.7206 8.4478L46.7644 8.08143L48.3564 10.4141L48.3722 10.4089L48.0876 7.61752L49.3633 7.16943L49.5504 11.7558L48.4012 12.159L46.767 9.72617L46.7512 9.73144L46.999 12.6519L45.8498 13.0552L43.127 9.36243L44.408 8.90907Z" fill="black"/>
<path d="M55.4657 10.2296L54.19 10.538L54.0793 10.0767L54.0635 10.0794C53.9475 10.5459 53.4652 10.8675 52.9643 10.9861C51.6122 11.3129 50.5631 10.4431 50.2705 9.22007C49.9332 7.82046 50.7292 6.70287 51.8678 6.42875C52.5663 6.26006 53.0408 6.50519 53.2569 6.72923L53.2727 6.72659L53.1647 6.27323L54.4404 5.96484L55.4657 10.2296ZM52.8695 9.74987C53.6681 9.55746 53.7762 8.8168 53.676 8.40034C53.5521 7.88635 53.0619 7.40136 52.3397 7.57533C51.6095 7.75193 51.4356 8.44514 51.5515 8.9275C51.6464 9.32814 52.1024 9.93438 52.8695 9.74987Z" fill="black"/>
<path d="M55.4814 4.29398L56.7809 4.10156L57.229 7.12221L57.2448 7.11957L58.2148 5.36675L59.7567 5.13744L58.4046 7.28826L60.3551 9.4839L58.8843 9.70267L57.345 7.79697L57.3292 7.79961L57.6402 9.88718L56.3407 10.0796L55.4814 4.29398Z" fill="black"/>
<path d="M64.6671 7.81797C64.4879 8.32142 64.2059 8.72206 63.85 8.99882C63.5047 9.28349 63.0804 9.44691 62.6297 9.4759C61.375 9.56025 60.2416 8.61399 60.1546 7.3119C60.0729 6.08888 60.9586 4.89486 62.2923 4.80787C63.626 4.71826 64.6751 5.70932 64.7647 7.04304C64.7752 7.21701 64.7647 7.28818 64.7568 7.39361L61.4752 7.61502C61.5885 8.13164 62.0445 8.4084 62.5559 8.37413C62.9591 8.34777 63.1595 8.15272 63.3255 7.91023L64.6671 7.81797ZM63.4204 6.59232C63.3466 6.33665 63.054 5.86484 62.3766 5.90964C61.6992 5.95445 61.4699 6.46053 61.433 6.72675L63.4204 6.59232Z" fill="black"/>
<path d="M65.6134 4.79199L66.8391 4.81835L66.8286 5.28489H66.8444C66.9841 5.07402 67.2687 4.67602 68.0516 4.69447C68.4707 4.70501 68.9346 4.88688 69.1665 5.09775C69.3985 5.30861 69.6594 5.66181 69.641 6.52372L69.5804 9.26761L68.2677 9.23861L68.3204 6.84266C68.3283 6.53427 68.3389 5.9333 67.6536 5.91749C66.9024 5.90167 66.8892 6.55008 66.8839 6.81893L66.8312 9.20698L65.5186 9.17799L65.6134 4.79199Z" fill="black"/>
<path d="M74.7537 8.41358C74.4875 8.87748 74.1396 9.22014 73.7416 9.431C73.3515 9.64977 72.9034 9.73676 72.4553 9.68668C71.2059 9.54961 70.2544 8.41885 70.3994 7.12203C70.5338 5.90428 71.6171 4.88422 72.9456 5.03183C74.274 5.1768 75.1333 6.33919 74.9883 7.66764C74.9699 7.84161 74.9462 7.91014 74.9198 8.0103L71.6488 7.65183C71.6698 8.17899 72.0705 8.53219 72.5792 8.59018C72.9798 8.63499 73.2118 8.47684 73.4174 8.26861L74.7537 8.41358ZM73.739 6.9876C73.7126 6.72138 73.507 6.2074 72.8296 6.13096C72.1522 6.05716 71.8412 6.51579 71.7568 6.76883L73.739 6.9876Z" fill="black"/>
<path d="M79.8209 10.8044L78.5979 10.554L78.6928 10.0901L78.677 10.0874C78.532 10.243 78.1366 10.6067 77.2668 10.4301C75.9647 10.1639 75.3189 8.98304 75.5825 7.68886C75.8804 6.23389 77.0876 5.61447 78.1788 5.83851C78.9379 5.99403 79.2252 6.43948 79.3359 6.60817L79.7023 4.81055L80.9886 5.07413L79.8209 10.8044ZM77.7228 9.27034C78.5294 9.43376 78.9564 8.83544 79.0486 8.38735C79.154 7.86809 78.8957 7.2355 78.1841 7.09053C77.4408 6.93765 76.9742 7.449 76.8714 7.94453C76.7344 8.60876 77.1166 9.14646 77.7228 9.27034Z" fill="black"/>
<path d="M93.5449 11.5345C93.6029 11.3421 93.7241 10.9889 93.313 10.7859C93.0784 10.6699 92.7726 10.7227 92.6487 10.9704C92.4959 11.2815 92.6066 11.4159 93.3393 12.3068C94.1037 13.2293 94.1274 13.8039 93.8269 14.4154C93.45 15.1825 92.596 15.8098 91.2043 15.1271C89.6861 14.3812 89.7968 13.203 90.1289 12.5282L90.2133 12.3569L91.547 13.0132C91.2465 13.6221 91.5707 13.9146 91.742 13.999C92.061 14.1545 92.3825 13.9884 92.5011 13.7459C92.6725 13.398 92.4932 13.2056 91.8527 12.4676C91.5575 12.1381 90.8221 11.3184 91.3071 10.3326C91.7921 9.34677 93.0257 9.25715 93.906 9.68943C94.4253 9.94246 94.8892 10.4116 95.0315 10.9836C95.1554 11.5213 95.0025 11.8851 94.8707 12.1908L93.5449 11.5345Z" fill="black"/>
<path d="M97.8993 17.1781C97.4644 17.4891 97.0058 17.6551 96.5551 17.6815C96.1096 17.7184 95.6668 17.6103 95.2793 17.3784C94.2013 16.7326 93.8085 15.3093 94.4807 14.189C95.1106 13.1373 96.5181 12.6629 97.6647 13.3508C98.8113 14.0388 99.1065 15.4516 98.4212 16.5982C98.3316 16.7484 98.2815 16.8011 98.2156 16.8802L95.3927 15.1906C95.1923 15.6783 95.4058 16.1685 95.8487 16.4321C96.1939 16.6403 96.4707 16.5929 96.7448 16.4901L97.8993 17.1781ZM97.5751 15.4621C97.6621 15.2091 97.6885 14.6556 97.1059 14.305C96.5234 13.9544 96.0463 14.2418 95.8645 14.4368L97.5751 15.4621Z" fill="black"/>
<path d="M101.155 14.0098L102.236 14.7557L98.9147 19.574L97.834 18.828L101.155 14.0098Z" fill="black"/>
<path d="M101.721 17.4152L101.328 17.12L101.927 16.3239L102.319 16.6192L102.456 16.4346C103.197 15.4489 104.093 15.9813 104.605 16.3661L104.758 16.4795L104.164 17.2702L104.043 17.1806C103.956 17.1147 103.698 16.9697 103.474 17.2676L103.368 17.4073L103.811 17.7394L103.213 18.5354L102.77 18.2033L100.733 20.9155L99.6836 20.1274L101.721 17.4152Z" fill="black"/>
<path d="M104.967 23.3509L104.16 23.7542L102.995 22.6524L108.723 20.0166L109.579 20.8258L107.247 26.672L106.068 25.5571L106.443 24.7479L104.967 23.3509ZM106.082 22.7737L106.973 23.6171L107.911 21.751L107.906 21.7457L107.895 21.7352L106.082 22.7737Z" fill="black"/>
<path d="M111.113 24.45L109.473 26.7274L109.484 26.7406L112.02 25.5044L112.742 26.3426L111.15 28.6726L111.16 28.6858L113.656 27.4022L114.539 28.4275L110.338 30.2726L109.545 29.35L111.216 26.9409L111.205 26.9303L108.575 28.2245L107.781 27.302L110.23 23.4194L111.113 24.45Z" fill="black"/>
<path d="M113.901 35.2303L113.152 34.1523L113.542 33.8808L113.535 33.8676C113.057 33.9309 112.583 33.5935 112.29 33.1718C111.494 32.0305 111.927 30.7363 112.957 30.0193C114.138 29.1969 115.472 29.5317 116.139 30.4938C116.55 31.0842 116.495 31.614 116.363 31.8987L116.371 31.9118L116.753 31.6456L117.504 32.7237L113.901 35.2303ZM113.405 32.6367C113.875 33.3115 114.605 33.1428 114.955 32.8976C115.39 32.5945 115.662 31.9619 115.237 31.3504C114.808 30.7336 114.099 30.8232 113.69 31.1079C113.353 31.3425 112.955 31.9856 113.405 32.6367Z" fill="black"/>
<path d="M119.439 33.0903L120.09 34.2316L117.438 35.7446L117.446 35.7578L119.431 36.0266L120.203 37.3788L117.707 36.8991L116.368 39.5138L115.63 38.2223L116.848 36.0978L116.84 36.0846L115.006 37.131L114.354 35.9897L119.439 33.0903Z" fill="black"/>
<path d="M119.489 42.9193C118.954 42.9351 118.48 42.8165 118.092 42.5872C117.702 42.3684 117.394 42.0336 117.204 41.6251C116.669 40.4864 117.138 39.0868 118.319 38.5333C119.429 38.0114 120.863 38.4041 121.429 39.614C121.999 40.8238 121.456 42.1628 120.246 42.7295C120.088 42.8033 120.016 42.8191 119.916 42.8481L118.517 39.8696C118.079 40.1622 117.984 40.6867 118.203 41.1533C118.374 41.517 118.63 41.633 118.915 41.7015L119.489 42.9193ZM120.175 41.3114C120.388 41.1506 120.72 40.7052 120.43 40.0911C120.14 39.4769 119.587 39.4479 119.326 39.5085L120.175 41.3114Z" fill="black"/>
<path d="M122.655 42.6978L123.077 43.8496L122.639 44.0104L122.644 44.0262C122.892 44.0789 123.364 44.2002 123.635 44.9356C123.78 45.3283 123.778 45.8265 123.664 46.1217C123.554 46.4143 123.319 46.7885 122.51 47.0838L119.932 48.0274L119.481 46.7938L121.732 45.9688C122.022 45.8634 122.586 45.6551 122.349 45.0094C122.091 44.303 121.482 44.527 121.229 44.6193L118.986 45.4416L118.535 44.2081L122.655 42.6978Z" fill="black"/>
<path d="M122.628 52.5267C122.099 52.4503 121.651 52.2526 121.311 51.96C120.963 51.678 120.72 51.2932 120.602 50.8582C120.272 49.6458 120.973 48.3463 122.233 48.0037C123.417 47.6821 124.761 48.3147 125.111 49.6036C125.462 50.8925 124.698 52.1182 123.409 52.4687C123.24 52.5135 123.169 52.5188 123.066 52.5293L122.201 49.3558C121.719 49.5693 121.535 50.0701 121.672 50.5657C121.777 50.9558 122.009 51.1139 122.278 51.2273L122.628 52.5267ZM123.583 51.0612C123.82 50.94 124.223 50.5578 124.044 49.9014C123.865 49.2451 123.324 49.1212 123.055 49.1371L123.583 51.0612Z" fill="black"/>
<path d="M122.264 58.1253L122.048 56.8943L122.515 56.8126L122.512 56.7968C122.314 56.7204 121.832 56.4831 121.677 55.6107C121.447 54.3033 122.309 53.2675 123.609 53.0408C125.072 52.7825 126.089 53.6813 126.281 54.7778C126.416 55.5395 126.105 55.9718 125.991 56.1379L127.797 55.8189L128.024 57.1105L122.264 58.1253ZM122.921 55.6081C123.063 56.4173 123.777 56.5965 124.228 56.5174C124.75 56.4252 125.245 55.9534 125.119 55.2364C124.987 54.4878 124.341 54.2401 123.843 54.3297C123.174 54.4483 122.815 55.0018 122.921 55.6081Z" fill="black"/>
<path d="M126.595 71.1646C126.796 71.1488 127.17 71.133 127.207 70.677C127.228 70.4161 127.07 70.1498 126.793 70.1261C126.445 70.0971 126.363 70.2474 125.802 71.2569C125.222 72.3033 124.695 72.5353 124.018 72.4799C123.166 72.4087 122.27 71.842 122.399 70.2974C122.542 68.6105 123.68 68.2863 124.429 68.3496L124.619 68.3654L124.495 69.8467C123.817 69.7887 123.664 70.1973 123.649 70.3871C123.62 70.7403 123.894 70.9801 124.16 71.0012C124.545 71.0328 124.661 70.7982 125.114 69.9311C125.314 69.5357 125.81 68.5525 126.904 68.6448C127.998 68.737 128.533 69.852 128.448 70.8299C128.401 71.4045 128.135 72.0107 127.655 72.3507C127.202 72.6618 126.804 72.6512 126.472 72.6407L126.595 71.1646Z" fill="black"/>
<path d="M122.921 77.2797C122.473 76.9872 122.152 76.6208 121.965 76.2122C121.767 75.809 121.709 75.3582 121.783 74.9154C121.994 73.6766 123.177 72.7936 124.463 73.0124C125.673 73.2179 126.625 74.3566 126.403 75.6745C126.179 76.9924 124.972 77.7832 123.654 77.5591C123.483 77.5301 123.414 77.5038 123.317 77.4695L123.865 74.2275C123.338 74.2169 122.961 74.5965 122.874 75.1025C122.805 75.5006 122.95 75.7404 123.146 75.9592L122.921 77.2797ZM124.4 76.3519C124.666 76.3414 125.194 76.1648 125.307 75.4953C125.42 74.8258 124.98 74.4858 124.732 74.3882L124.4 76.3519Z" fill="black"/>
<path d="M127.057 79.1592L126.757 80.4376L121.061 79.0933L121.361 77.8149L127.057 79.1592Z" fill="black"/>
<path d="M124.091 80.9197L124.223 80.4479L125.183 80.7168L125.051 81.1886L125.272 81.2492C126.461 81.5813 126.287 82.6093 126.116 83.226L126.066 83.4079L125.114 83.1417L125.154 82.9967C125.183 82.8913 125.225 82.5987 124.866 82.4986L124.698 82.4511L124.547 82.9836L123.588 82.7147L123.738 82.1823L120.47 81.2676L120.823 80.0024L124.091 80.9197Z" fill="black"/>
<path d="M119.74 86.0966L119.07 85.493L119.674 84.0063L124.215 88.3818L123.773 89.473L117.476 89.4282L118.084 87.9258L118.975 87.9812L119.74 86.0966ZM120.686 86.9242L120.225 88.0602L122.304 88.2553L122.307 88.2474L122.312 88.2316L120.686 86.9242Z" fill="black"/>
<path d="M120.96 92.2196L118.242 91.5264L118.234 91.5396L120.311 93.4479L119.795 94.4284L117.043 93.7985L117.035 93.8116L119.141 95.6646L118.511 96.8613L115.256 93.6245L115.825 92.5464L118.68 93.2212L118.688 93.208L116.521 91.2338L117.09 90.1558L121.6 91.015L120.96 92.2196Z" fill="black"/>
<path d="M111.946 98.7618L112.674 97.6705L113.069 97.9341L113.077 97.921C112.845 97.4992 112.982 96.9352 113.267 96.5082C114.039 95.351 115.397 95.2772 116.443 95.9757C117.64 96.7744 117.816 98.1345 117.168 99.1097C116.77 99.708 116.256 99.8504 115.945 99.8346L115.937 99.8477L116.324 100.106L115.597 101.197L111.946 98.7618ZM114.179 97.3516C113.723 98.0369 114.15 98.6511 114.503 98.8883C114.943 99.1835 115.634 99.2046 116.045 98.5852C116.461 97.9605 116.119 97.3332 115.705 97.0564C115.362 96.8297 114.616 96.6927 114.179 97.3516Z" fill="black"/>
<path d="M115.97 103.124L115.148 104.147L112.768 102.236L112.757 102.249L113.234 104.194L112.259 105.409L111.787 102.913L108.864 102.626L109.795 101.466L112.22 101.819L112.23 101.806L110.583 100.486L111.405 99.4629L115.97 103.124Z" fill="black"/>
<path d="M106.834 106.782C106.624 106.289 106.56 105.807 106.632 105.361C106.692 104.919 106.892 104.51 107.201 104.181C108.063 103.266 109.539 103.192 110.488 104.086C111.379 104.927 111.539 106.405 110.622 107.375C109.705 108.348 108.26 108.332 107.29 107.415C107.164 107.296 107.122 107.236 107.059 107.154L109.317 104.763C108.883 104.463 108.361 104.568 108.007 104.94C107.731 105.232 107.717 105.512 107.757 105.802L106.834 106.782ZM108.582 106.832C108.809 106.972 109.346 107.117 109.813 106.624C110.28 106.128 110.103 105.604 109.95 105.383L108.582 106.832Z" fill="black"/>
<path d="M108.204 109.645L107.286 110.459L106.975 110.111L106.965 110.122C107.007 110.37 107.068 110.857 106.482 111.376C106.169 111.656 105.705 111.835 105.391 111.838C105.078 111.84 104.645 111.759 104.073 111.115L102.252 109.062L103.232 108.19L104.825 109.982C105.03 110.214 105.428 110.662 105.942 110.206C106.504 109.708 106.074 109.223 105.895 109.023L104.311 107.238L105.291 106.366L108.204 109.645Z" fill="black"/>
<path d="M99.0386 113.201C98.9174 112.679 98.9411 112.191 99.0887 111.767C99.2258 111.34 99.4946 110.973 99.8584 110.705C100.868 109.956 102.333 110.141 103.111 111.187C103.841 112.173 103.738 113.654 102.665 114.45C101.593 115.246 100.172 114.977 99.376 113.905C99.2732 113.765 99.2442 113.699 99.1941 113.607L101.838 111.648C101.464 111.277 100.931 111.287 100.517 111.593C100.193 111.833 100.13 112.107 100.119 112.399L99.0386 113.201ZM100.749 113.557C100.95 113.733 101.45 113.97 101.999 113.567C102.544 113.161 102.463 112.613 102.352 112.37L100.749 113.557Z" fill="black"/>
<path d="M93.6904 114.893L94.7579 114.244L95.0057 114.65L95.0189 114.642C95.0189 114.429 95.0637 113.894 95.8202 113.435C96.9562 112.747 98.2319 113.174 98.9172 114.302C99.6895 115.573 99.223 116.846 98.2688 117.426C97.6072 117.829 97.0933 117.697 96.8956 117.647L97.8471 119.216L96.7242 119.896L93.6904 114.893ZM96.2735 114.592C95.5698 115.019 95.662 115.749 95.8992 116.142C96.1734 116.596 96.7928 116.886 97.4148 116.506C98.0632 116.113 98.0606 115.42 97.797 114.988C97.4491 114.408 96.8007 114.273 96.2735 114.592Z" fill="black"/>
<path d="M83.1309 123.683C83.2179 123.863 83.3707 124.205 83.8083 124.073C84.0587 124 84.2485 123.752 84.1694 123.486C84.0692 123.153 83.8979 123.13 82.754 122.977C81.5678 122.821 81.1567 122.415 80.9642 121.764C80.7191 120.947 80.9194 119.904 82.4034 119.461C84.0244 118.976 84.744 119.914 84.9575 120.634L85.0128 120.816L83.5895 121.243C83.3945 120.591 82.9595 120.597 82.7777 120.652C82.4377 120.755 82.3164 121.095 82.3928 121.353C82.5036 121.725 82.7671 121.746 83.7371 121.849C84.1773 121.891 85.2738 121.991 85.5901 123.043C85.9064 124.094 85.0629 125.001 84.1246 125.281C83.5711 125.447 82.9121 125.42 82.4192 125.099C81.9632 124.79 81.8261 124.419 81.7154 124.105L83.1309 123.683Z" fill="black"/>
<path d="M76.0983 122.505C76.2064 121.98 76.4304 121.546 76.7415 121.221C77.0446 120.892 77.4426 120.67 77.8828 120.578C79.1137 120.32 80.3683 121.097 80.6372 122.373C80.8902 123.573 80.1786 124.877 78.8712 125.154C77.5638 125.431 76.3856 124.595 76.1089 123.288C76.0746 123.117 76.0746 123.045 76.0693 122.94L79.2877 122.263C79.1032 121.767 78.6129 121.556 78.1095 121.662C77.7141 121.746 77.5428 121.967 77.4136 122.228L76.0983 122.505ZM77.5032 123.544C77.6113 123.789 77.9671 124.213 78.634 124.073C79.2982 123.934 79.4537 123.399 79.4537 123.132L77.5032 123.544Z" fill="black"/>
<path d="M75.8557 127.044L74.5563 127.231L73.7207 121.44L75.0202 121.253L75.8557 127.044Z" fill="black"/>
<path d="M73.1414 124.93L73.6291 124.88L73.7292 125.871L73.2416 125.921L73.2653 126.15C73.3918 127.376 72.3718 127.592 71.7366 127.658L71.5468 127.676L71.4466 126.693L71.5969 126.677C71.7076 126.667 71.9949 126.596 71.9553 126.227L71.9369 126.053L71.386 126.108L71.2832 125.117L71.8341 125.061L71.4862 121.688L72.7909 121.553L73.1414 124.93Z" fill="black"/>
<path d="M66.7233 122.776L67.0422 121.933L68.6474 121.951L66.2304 127.774L65.0522 127.761L62.7959 121.883L64.4169 121.901L64.6911 122.75L66.7233 122.776ZM66.2963 123.957L65.0706 123.944L65.6479 125.95H65.6558H65.6716L66.2963 123.957Z" fill="black"/>
<path d="M61.4621 126.142L61.1194 123.356L61.1036 123.354L60.0783 125.982L58.9791 125.855L58.5653 123.061L58.5495 123.058L57.5874 125.694L56.2432 125.541L58.0777 121.332L59.2875 121.469L59.6961 124.374L59.7119 124.376L60.7636 121.64L61.9734 121.777L62.8116 126.29L61.4621 126.142Z" fill="black"/>
<path d="M52.094 120.125L53.375 120.407L53.2749 120.871L53.2907 120.874C53.5991 120.505 54.1737 120.428 54.6745 120.539C56.0346 120.837 56.596 122.078 56.3271 123.306C56.0187 124.711 54.8142 125.37 53.6702 125.12C52.9665 124.967 52.6475 124.54 52.55 124.242L52.5342 124.24L52.434 124.695L51.1504 124.413L52.094 120.125ZM54.2185 121.691C53.4146 121.514 52.9955 122.136 52.9032 122.553C52.7899 123.069 53.0192 123.72 53.7467 123.878C54.4794 124.039 54.9407 123.494 55.0461 123.006C55.1357 122.605 54.9908 121.859 54.2185 121.691Z" fill="black"/>
<path d="M49.4871 125.457L48.2351 125.064L49.1497 122.152L49.1339 122.146L47.4944 123.298L46.0078 122.832L48.1639 121.487L47.3705 118.659L48.7886 119.105L49.3395 121.49L49.3553 121.495L49.9879 119.482L51.2399 119.874L49.4871 125.457Z" fill="black"/>
<path d="M42.7637 118.285C43.1459 117.911 43.5729 117.674 44.0131 117.579C44.448 117.473 44.9014 117.51 45.3205 117.679C46.4855 118.151 47.0944 119.495 46.6068 120.705C46.1481 121.841 44.8302 122.529 43.5914 122.028C42.3526 121.527 41.8386 120.178 42.3394 118.939C42.4053 118.778 42.4448 118.717 42.5002 118.628L45.5498 119.859C45.6711 119.345 45.3838 118.897 44.9067 118.704C44.5324 118.554 44.2662 118.641 44.0131 118.786L42.7637 118.285ZM43.3542 119.93C43.3067 120.193 43.3647 120.744 43.9973 121C44.6273 121.253 45.0543 120.897 45.2019 120.676L43.3542 119.93Z" fill="black"/>
<path d="M40.599 120.6L39.5078 120.043L39.7186 119.627L39.7054 119.619C39.4893 119.748 39.0597 119.983 38.3612 119.627C37.9869 119.437 37.6495 119.071 37.5335 118.778C37.4176 118.486 37.3332 118.056 37.7233 117.286L38.9674 114.84L40.1377 115.436L39.0518 117.571C38.9121 117.845 38.6406 118.383 39.2521 118.694C39.9216 119.034 40.2168 118.457 40.338 118.217L41.4214 116.087L42.5917 116.683L40.599 120.6Z" fill="black"/>
<path d="M33.9362 113.369C34.3763 113.066 34.8402 112.908 35.2883 112.89C35.7338 112.861 36.174 112.977 36.5562 113.216C37.6237 113.883 37.9874 115.315 37.2968 116.419C36.6484 117.457 35.2303 117.906 34.0969 117.199C32.9635 116.49 32.692 115.072 33.4011 113.939C33.4933 113.791 33.5434 113.738 33.6119 113.659L36.4006 115.402C36.6089 114.917 36.4059 114.426 35.9684 114.152C35.6257 113.939 35.349 113.981 35.0722 114.078L33.9362 113.369ZM34.2314 115.093C34.1391 115.344 34.1022 115.897 34.6795 116.258C35.2567 116.619 35.7364 116.34 35.9236 116.15L34.2314 115.093Z" fill="black"/>
<path d="M30.4012 109.015L31.3949 109.772L31.1076 110.149L31.1208 110.159C31.3185 110.083 31.8351 109.927 32.5389 110.462C33.5958 111.266 33.667 112.61 32.8683 113.662C31.9695 114.846 30.6121 114.877 29.7265 114.202C29.1097 113.733 29.0438 113.206 29.0174 113.006L27.9077 114.466L26.8613 113.673L30.4012 109.015ZM31.6295 111.308C30.9758 110.81 30.3301 111.163 30.0507 111.53C29.7291 111.951 29.6869 112.634 30.2668 113.074C30.8704 113.533 31.5135 113.277 31.8193 112.874C32.2305 112.334 32.1198 111.683 31.6295 111.308Z" fill="black"/>
<path d="M18.3557 102.396C18.2186 102.544 17.955 102.81 18.237 103.171C18.3978 103.377 18.6983 103.464 18.9144 103.295C19.1886 103.082 19.1464 102.913 18.8749 101.79C18.5902 100.628 18.8169 100.098 19.3546 99.6789C20.0268 99.1518 21.0705 98.9593 22.0247 100.182C23.0659 101.516 22.4517 102.528 21.8613 102.99L21.711 103.105L20.7964 101.933C21.3315 101.513 21.1681 101.11 21.0521 100.96C20.8333 100.681 20.4696 100.691 20.2587 100.857C19.953 101.097 20.0294 101.347 20.2851 102.291C20.4063 102.718 20.7121 103.775 19.8449 104.452C18.9777 105.13 17.8285 104.674 17.2249 103.899C16.8691 103.443 16.6529 102.821 16.7742 102.244C16.8954 101.706 17.1933 101.445 17.4463 101.226L18.3557 102.396Z" fill="black"/>
<path d="M16.9006 95.4139C17.4277 95.3242 17.9127 95.3743 18.3292 95.5457C18.7456 95.7064 19.0962 95.999 19.344 96.3759C20.0319 97.4276 19.7631 98.88 18.6718 99.5943C17.6465 100.264 16.1731 100.077 15.4403 98.959C14.7102 97.8415 15.0581 96.4392 16.1784 95.7091C16.3233 95.6142 16.3919 95.5878 16.4867 95.5457L18.287 98.2975C18.6797 97.9469 18.7008 97.4118 18.4188 96.9822C18.1974 96.6448 17.9285 96.5657 17.6386 96.5394L16.9006 95.4139ZM16.4446 97.1008C16.2574 97.2906 15.9886 97.7756 16.3629 98.3449C16.7345 98.9142 17.288 98.8642 17.5358 98.7666L16.4446 97.1008Z" fill="black"/>
<path d="M12.5862 96.8428L11.9404 95.7014L17.0328 92.8179L17.6786 93.9592L12.5862 96.8428Z" fill="black"/>
<path d="M13.5663 93.5398L13.7904 93.9747L12.9047 94.4307L12.6807 93.9931L12.4777 94.0986C11.3812 94.6626 10.8092 93.7902 10.5167 93.2209L10.4297 93.0522L11.31 92.6014L11.3786 92.7359C11.4287 92.8334 11.5974 93.0759 11.9295 92.9072L12.085 92.8281L11.8319 92.3352L12.7176 91.8792L12.9706 92.3721L15.9886 90.8223L16.5869 91.9899L13.5663 93.5398Z" fill="black"/>
<path d="M13.2314 86.7873H14.1329L14.6837 88.295L8.3815 88.1026L7.97559 86.9955L12.67 82.7993L13.2288 84.3202L12.5329 84.879L13.2314 86.7873ZM11.9768 86.8084L11.555 85.6565L9.88392 86.9085L9.88655 86.9165L9.89182 86.9323L11.9768 86.8084Z" fill="black"/>
<path d="M8.18401 83.1208L10.6485 81.7792L10.6432 81.7634L7.8229 81.7739L7.5356 80.7038L9.98163 79.2936L9.97636 79.2778L7.17185 79.3516L6.82129 78.0469L11.4076 78.2077L11.7239 79.3832L9.17244 80.8277L9.17771 80.8435L12.1087 80.8171L12.425 81.9927L8.53457 84.4282L8.18401 83.1208Z" fill="black"/>
<path d="M10.3457 72.1953L10.5539 73.4921L10.0847 73.5686L10.0874 73.5844C10.5434 73.7346 10.8254 74.2433 10.9071 74.7494C11.1285 76.1227 10.1796 77.1006 8.93816 77.3009C7.51745 77.5302 6.46313 76.6498 6.27598 75.4954C6.16264 74.7837 6.44204 74.3303 6.6819 74.1326L6.67926 74.1168L6.218 74.1906L6.00977 72.8938L10.3457 72.1953ZM9.66828 74.7468C9.53649 73.9349 8.80637 73.7715 8.38464 73.8401C7.86011 73.9244 7.34085 74.3751 7.45946 75.1105C7.57808 75.8512 8.25548 76.0805 8.74838 76.0014C9.15429 75.9355 9.79216 75.5296 9.66828 74.7468Z" fill="black"/>
<path d="M4.42819 71.7235L4.33594 70.4135L7.3803 70.2V70.1842L5.7092 69.0797L5.59849 67.5246L7.63861 69.0376L9.97922 67.2637L10.0846 68.7476L8.06562 70.1341V70.1499L10.1716 70.0023L10.2639 71.3123L4.42819 71.7235Z" fill="black"/>
<path d="M8.65068 62.8405C9.13831 63.0592 9.51523 63.3703 9.763 63.7446C10.0213 64.1109 10.1505 64.5458 10.1452 64.9966C10.132 66.2539 9.10141 67.3108 7.79668 67.2976C6.57102 67.2845 5.4508 66.3092 5.46398 64.9729C5.47716 63.6365 6.5473 62.6665 7.88366 62.6823C8.05762 62.685 8.12879 62.7008 8.23159 62.7166L8.19732 66.0035C8.71921 65.9297 9.03288 65.4974 9.03815 64.9834C9.04342 64.5801 8.86155 64.364 8.63487 64.1795L8.65068 62.8405ZM7.33541 63.9897C7.07447 64.0424 6.58157 64.2981 6.57366 64.9781C6.56575 65.6582 7.05338 65.9244 7.31432 65.9824L7.33541 63.9897Z" fill="black"/>
<path d="M5.7041 61.6706L5.82535 60.4502L6.28925 60.495L6.29189 60.4792C6.09157 60.3237 5.71728 60.01 5.79372 59.2298C5.83589 58.8133 6.05467 58.3653 6.28135 58.1491C6.50803 57.933 6.88231 57.6984 7.73895 57.7827L10.4697 58.0516L10.3405 59.359L7.95509 59.1244C7.6467 59.0954 7.051 59.0348 6.98247 59.7201C6.90867 60.4686 7.55444 60.5319 7.8233 60.5583L10.2008 60.7928L10.0716 62.1002L5.7041 61.6706Z" fill="black"/>
<path d="M10.0162 52.8297C10.459 53.1301 10.7753 53.5044 10.9545 53.9156C11.1443 54.3215 11.1944 54.7723 11.1127 55.2177C10.8807 56.4539 9.67877 57.3132 8.39776 57.0707C7.19319 56.844 6.26012 55.6869 6.50788 54.3742C6.75565 53.0616 7.97867 52.2946 9.2913 52.5424C9.46263 52.574 9.52853 52.603 9.62605 52.6372L9.01718 55.8687C9.54434 55.8872 9.92917 55.5182 10.0241 55.0121C10.0979 54.6167 9.9608 54.3716 9.76839 54.1502L10.0162 52.8297ZM8.51901 53.7311C8.25279 53.7364 7.72299 53.9024 7.59647 54.5719C7.46995 55.2388 7.90486 55.5867 8.15 55.6895L8.51901 53.7311Z" fill="black"/>
<path d="M12.7891 47.9538L12.4464 49.1558L11.9904 49.024L11.9851 49.0398C12.1301 49.1953 12.4622 49.6197 12.2171 50.471C11.8533 51.7494 10.6251 52.3029 9.35459 51.9418C7.92334 51.5333 7.40145 50.2839 7.70721 49.2111C7.92071 48.4652 8.38725 48.2122 8.56385 48.1146L6.79785 47.6112L7.15896 46.3486L12.7891 47.9538ZM11.0995 49.9307C11.3262 49.14 10.7621 48.6655 10.3193 48.5416C9.81059 48.3967 9.15691 48.6049 8.95922 49.306C8.75099 50.0361 9.2228 50.5422 9.71043 50.6793C10.3641 50.8638 10.9282 50.5238 11.0995 49.9307Z" fill="black"/>
<path d="M12.1039 38.8181C11.9115 38.7601 11.5557 38.6415 11.358 39.0553C11.2447 39.2899 11.3 39.5983 11.5478 39.7169C11.8614 39.8671 11.9932 39.7564 12.8762 39.0131C13.7908 38.2434 14.3681 38.2118 14.9796 38.507C15.7493 38.876 16.3845 39.7274 15.7124 41.1244C14.9796 42.6505 13.7988 42.5477 13.1214 42.2209L12.95 42.1392L13.5932 40.8002C14.2073 41.0954 14.4946 40.7686 14.5763 40.5972C14.7318 40.2757 14.5605 39.9567 14.318 39.8407C13.9674 39.6721 13.7777 39.8513 13.0449 40.4997C12.7181 40.7975 11.9036 41.5382 10.9152 41.0638C9.92411 40.5867 9.82395 39.3558 10.2509 38.4701C10.5014 37.9509 10.9653 37.4791 11.5346 37.3341C12.0697 37.2049 12.436 37.3552 12.7418 37.4843L12.1039 38.8181Z" fill="black"/>
<path d="M17.7182 34.4159C18.0319 34.8481 18.2032 35.3068 18.2322 35.7549C18.2717 36.2003 18.1689 36.6431 17.9396 37.0332C17.3018 38.1165 15.8811 38.5198 14.7582 37.8582C13.7012 37.2362 13.2162 35.8313 13.8937 34.6795C14.5711 33.5276 15.9812 33.2192 17.1331 33.8966C17.2833 33.9836 17.336 34.0337 17.4177 34.0996L15.7493 36.9331C16.2395 37.1308 16.7245 36.912 16.9855 36.4692C17.1884 36.1212 17.141 35.8445 17.0355 35.573L17.7182 34.4159ZM16.0023 34.7559C15.7493 34.6715 15.1957 34.6478 14.8505 35.233C14.5052 35.8181 14.7951 36.2926 14.9928 36.4718L16.0023 34.7559Z" fill="black"/>
<path d="M14.5205 31.187L15.2559 30.1011L20.1005 33.3827L19.3651 34.4686L14.5205 31.187Z" fill="black"/>
<path d="M17.9128 30.5995L17.6229 30.9949L16.8216 30.4019L17.1116 30.0065L16.927 29.8694C15.936 29.1367 16.4605 28.2379 16.8427 27.7212L16.956 27.5684L17.7521 28.1561L17.6598 28.28C17.5939 28.3696 17.4516 28.628 17.7521 28.8494L17.8918 28.9522L18.2212 28.5067L19.0225 29.0998L18.693 29.5452L21.4211 31.5616L20.6409 32.6186L17.9128 30.5995Z" fill="black"/>
<path d="M52.3213 53.7705C55.4511 53.7705 57.9883 51.2333 57.9883 48.1035C57.9883 44.9737 55.4511 42.4365 52.3213 42.4365C49.1915 42.4365 46.6543 44.9737 46.6543 48.1035C46.6543 51.2333 49.1915 53.7705 52.3213 53.7705Z" fill="black"/>
<path d="M57.9883 59.4375C57.9883 59.4823 57.9883 59.5245 57.9857 59.5693H46.6569C46.6543 59.5245 46.6543 59.4823 46.6543 59.4375C46.6543 56.3088 49.1926 53.7705 52.3213 53.7705C55.45 53.7705 57.9883 56.3088 57.9883 59.4375Z" fill="black"/>
<path d="M78.6787 53.7705C81.8085 53.7705 84.3457 51.2333 84.3457 48.1035C84.3457 44.9737 81.8085 42.4365 78.6787 42.4365C75.5489 42.4365 73.0117 44.9737 73.0117 48.1035C73.0117 51.2333 75.5489 53.7705 78.6787 53.7705Z" fill="black"/>
<path d="M84.3457 59.4375C84.3457 59.4823 84.3457 59.5245 84.3431 59.5693H73.0144C73.0117 59.5245 73.0117 59.4823 73.0117 59.4375C73.0117 56.3088 75.55 53.7705 78.6787 53.7705C81.8074 53.7705 84.3457 56.3088 84.3457 59.4375Z" fill="black"/>
<path d="M39.1416 84.3462C42.2714 84.3462 44.8086 81.809 44.8086 78.6792C44.8086 75.5494 42.2714 73.0122 39.1416 73.0122C36.0118 73.0122 33.4746 75.5494 33.4746 78.6792C33.4746 81.809 36.0118 84.3462 39.1416 84.3462Z" fill="black"/>
<path d="M125.465 63.5231C125.756 63.5231 125.992 63.2871 125.992 62.9959C125.992 62.7048 125.756 62.4688 125.465 62.4688C125.174 62.4688 124.938 62.7048 124.938 62.9959C124.938 63.2871 125.174 63.5231 125.465 63.5231Z" fill="black"/>
<path d="M45.2041 93.5713C48.3339 93.5713 50.8711 91.0341 50.8711 87.9043C50.8711 84.7745 48.3339 82.2373 45.2041 82.2373C42.0743 82.2373 39.5371 84.7745 39.5371 87.9043C39.5371 91.0341 42.0743 93.5713 45.2041 93.5713Z" fill="black"/>
<path d="M54.166 99.8975C57.2958 99.8975 59.833 97.3603 59.833 94.2305C59.833 91.1007 57.2958 88.5635 54.166 88.5635C51.0362 88.5635 48.499 91.1007 48.499 94.2305C48.499 97.3603 51.0362 99.8975 54.166 99.8975Z" fill="black"/>
<path d="M65.5 102.27C68.6298 102.27 71.167 99.7323 71.167 96.6025C71.167 93.4727 68.6298 90.9355 65.5 90.9355C62.3702 90.9355 59.833 93.4727 59.833 96.6025C59.833 99.7323 62.3702 102.27 65.5 102.27Z" fill="black"/>
<path d="M76.834 99.8975C79.9638 99.8975 82.501 97.3603 82.501 94.2305C82.501 91.1007 79.9638 88.5635 76.834 88.5635C73.7042 88.5635 71.167 91.1007 71.167 94.2305C71.167 97.3603 73.7042 99.8975 76.834 99.8975Z" fill="black"/>
<path d="M86.0596 93.5713C89.1894 93.5713 91.7266 91.0341 91.7266 87.9043C91.7266 84.7745 89.1894 82.2373 86.0596 82.2373C82.9298 82.2373 80.3926 84.7745 80.3926 87.9043C80.3926 91.0341 82.9298 93.5713 86.0596 93.5713Z" fill="black"/>
<path d="M91.8584 83.8189C94.9882 83.8189 97.5254 81.2817 97.5254 78.1519C97.5254 75.0221 94.9882 72.4849 91.8584 72.4849C88.7286 72.4849 86.1914 75.0221 86.1914 78.1519C86.1914 81.2817 88.7286 83.8189 91.8584 83.8189Z" fill="black"/>
<path d="M85.9276 10.0162C86.2187 10.0162 86.4547 9.78022 86.4547 9.48908C86.4547 9.19793 86.2187 8.96191 85.9276 8.96191C85.6364 8.96191 85.4004 9.19793 85.4004 9.48908C85.4004 9.78022 85.6364 10.0162 85.9276 10.0162Z" fill="black"/>
<path d="M22.1404 27.1491C22.4316 27.1491 22.6676 26.913 22.6676 26.6219C22.6676 26.3307 22.4316 26.0947 22.1404 26.0947C21.8493 26.0947 21.6133 26.3307 21.6133 26.6219C21.6133 26.913 21.8493 27.1491 22.1404 27.1491Z" fill="black"/>
<path d="M24.2498 108.595C24.541 108.595 24.777 108.359 24.777 108.068C24.777 107.777 24.541 107.541 24.2498 107.541C23.9587 107.541 23.7227 107.777 23.7227 108.068C23.7227 108.359 23.9587 108.595 24.2498 108.595Z" fill="black"/>
<path d="M90.6717 120.457C90.9628 120.457 91.1989 120.221 91.1989 119.93C91.1989 119.638 90.9628 119.402 90.6717 119.402C90.3806 119.402 90.1445 119.638 90.1445 119.93C90.1445 120.221 90.3806 120.457 90.6717 120.457Z" fill="black"/>
</svg>
