<svg xmlns="http://www.w3.org/2000/svg" version="1.1" width="1280" height="1024" viewBox="0 0 1280 1024" >
	<desc>Created with Fabric.js 3.6.3</desc>
	<defs></defs>
	<g transform="matrix(1.9662058371735789 0 0 1.9662058371735789 640.2456813819576 512.1966205837173)" id="background-logo">
		<rect style="stroke: none; stroke-width: 1; stroke-dasharray: none; stroke-linecap: butt; stroke-dashoffset: 0; stroke-linejoin: miter; stroke-miterlimit: 4; fill: rgb(255,255,255); fill-rule: nonzero; opacity: 1;" paint-order="stroke" x="-325" y="-260" rx="0" ry="0" width="650" height="520" />
	</g>
	<g transform="matrix(1.9699870022450665 0 0 1.9699870022450665 640.2456813819576 404.2406753081784)" id="logo-logo">
		<g style="" paint-order="stroke">
			<g transform="matrix(0.20958762461200217 0 0 -0.20958762461200217 0.001194740377798098 90.5807369718614)">
				<path style="stroke: none; stroke-width: 1; stroke-dasharray: none; stroke-linecap: butt; stroke-dashoffset: 0; stroke-linejoin: miter; stroke-miterlimit: 4; fill: rgb(39,39,109); fill-rule: nonzero; opacity: 1;" paint-order="stroke" transform=" translate(-1625.0049999999999, -866.6015)" d="m 1829.23 962.426 c -1.66 -0.063 -3.3 -0.086 -4.94 -0.086 h -0.02 c -56.78 0 -107.47 31.68 -132.31 82.68 l -8.31 17.06 c -0.65 1.31 -2 2.15 -3.45 2.15 h -110.39 c -1.47 0 -2.81 -0.82 -3.45 -2.15 l -8.32 -17.07 c -24.84 -50.99 -75.52 -82.67 -132.29 -82.67 c -1.64 0 -3.3 0.023 -4.96 0.086 c -20.54 0.683 -44.69 2.078 -71.02 4.535 V 744.012 c 0 -41.446 33.59 -75.039 75.03 -75.039 h 400.4 c 41.44 0 75.04 33.593 75.04 75.039 v 222.949 c -26.33 -2.457 -50.47 -3.852 -71.01 -4.535" stroke-linecap="round" />
			</g>
			<g transform="matrix(0.20958762461200217 0 0 -0.20958762461200217 0.001194740377798098 -99.90707188565858)">
				<path style="stroke: none; stroke-width: 1; stroke-dasharray: none; stroke-linecap: butt; stroke-dashoffset: 0; stroke-linejoin: miter; stroke-miterlimit: 4; fill: rgb(39,39,109); fill-rule: nonzero; opacity: 1;" paint-order="stroke" transform=" translate(-1625.005, -1777.9)" d="m 1625 1637.66 c 89.09 0 186.11 -5.57 275.24 -12.89 v 231.22 c 0 41.44 -33.6 75.04 -75.04 75.04 h -400.4 c -41.44 0 -75.03 -33.6 -75.03 -75.04 v -231.22 c 89.12 7.32 186.15 12.89 275.23 12.89" stroke-linecap="round" />
			</g>
			<g transform="matrix(0.20958762461200217 0 0 -0.20958762461200217 0 -0.25415974821976306)">
				<path style="stroke: none; stroke-width: 1; stroke-dasharray: none; stroke-linecap: butt; stroke-dashoffset: 0; stroke-linejoin: miter; stroke-miterlimit: 4; fill: rgb(39,39,109); fill-rule: nonzero; opacity: 1;" paint-order="stroke" transform=" translate(-1624.9992995662076, -1299.9996879332746)" d="m 2304.76 1412.76 c -1.18 17.11 -16.01 30.02 -33.12 28.84 c -9.22 -0.64 -17.13 -5.31 -22.36 -12.09 l -5.6 66.76 c -2.2 26.16 -22.23 47.25 -48.27 50.66 c -101.56 13.28 -358.03 43.8 -570.41 43.8 c -212.38 0 -468.85 -30.52 -570.41 -43.8 c -26.04 -3.41 -46.07 -24.5 -48.27 -50.66 l -5.39 -64.27 c -5.035 5.22 -11.817 8.8 -19.614 9.47 c -17.093 1.45 -32.125 -11.22 -33.578 -28.31 l -13.062 -153.52 c -1.453 -17.09 11.222 -32.12 28.312 -33.57 c 7.903 -0.68 15.297 1.77 21.18 6.18 l -4.492 -53.54 c -1.848 -22.02 6.984 -44 24.584 -57.37 c 119.25 -90.56 310.97 -108.81 406.94 -112.02 c 35.22 -1.18 67.76 18.36 83.2 50.05 l 8.8 18.06 c 11.82 24.25 36.43 39.64 63.41 39.64 h 116.78 c 26.98 0 51.59 -15.39 63.41 -39.64 l 8.8 -18.06 c 15.44 -31.7 48 -51.23 83.23 -50.05 c 95.97 3.21 287.66 21.47 406.9 112.01 c 17.61 13.37 26.44 35.37 24.59 57.4 l -4.48 53.44 c 5.75 -4.31 12.94 -6.77 20.68 -6.23 v 0 c 17.11 1.18 30.03 16.01 28.84 33.11 z m -607.05 61.28 h -145.42 c -14.92 0 -27.01 12.1 -27.01 27.01 c 0 14.92 12.09 27.01 27.01 27.01 h 145.42 c 14.92 0 27.01 -12.09 27.01 -27.01 c 0 -14.91 -12.09 -27.01 -27.01 -27.01" stroke-linecap="round" />
			</g>
			<g transform="matrix(0.20958762461200217 0 0 -0.20958762461200217 -71.46608937606882 -0.026822580839365173)">
				<linearGradient id="SVGID_5_2_11968" gradientUnits="userSpaceOnUse" gradientTransform="matrix(1 0 0 1 1247.0099999999998 1073.04)" x1="0" y1="0" x2="0" y2="452">
					<stop offset="0%" style="stop-color:rgb(113,23,234);stop-opacity: 1" />
					<stop offset="100%" style="stop-color:rgb(234,96,96);stop-opacity: 1" />
				</linearGradient>
				<path style="stroke: none; stroke-width: 1; stroke-dasharray: none; stroke-linecap: butt; stroke-dashoffset: 0; stroke-linejoin: miter; stroke-miterlimit: 4; fill: url(#SVGID_5_2_11968); fill-rule: nonzero; opacity: 1;" paint-order="stroke" transform=" translate(-1284.0149999999999, -1298.915)" d="m 1247.01 1078.47 c 10.46 -2.02 20.77 -3.82 30.92 -5.43 l 43.09 451.75 c -10.72 -0.93 -21.28 -1.88 -31.71 -2.84 l -42.3 -443.48" stroke-linecap="round" />
			</g>
			<g transform="matrix(0.20958762461200217 0 0 -0.20958762461200217 28.832231293150016 0.15132690008073268)">
				<linearGradient id="SVGID_5_2_11969" gradientUnits="userSpaceOnUse" gradientTransform="matrix(1 0 0 1 1305.38 1060.0900000000001)" x1="0" y1="0" x2="0" y2="452">
					<stop offset="0%" style="stop-color:rgb(113,23,234);stop-opacity: 1" />
					<stop offset="100%" style="stop-color:rgb(234,96,96);stop-opacity: 1" />
				</linearGradient>
				<path style="stroke: none; stroke-width: 1; stroke-dasharray: none; stroke-linecap: butt; stroke-dashoffset: 0; stroke-linejoin: miter; stroke-miterlimit: 4; fill: url(#SVGID_5_2_11969); fill-rule: nonzero; opacity: 1;" paint-order="stroke" transform=" translate(-1762.5657772937238, -1298.065)" d="m 2193.03 1492.02 c -0.19 2.36 -1.92 4.21 -4.21 4.51 c -77.86 10.18 -250.08 30.9 -421.59 39.51 c 5.32 -10.52 8.31 -22.42 8.31 -34.99 c 0 -42.91 -34.91 -77.83 -77.83 -77.83 h -145.42 c -42.91 0 -77.83 34.92 -77.83 77.83 c 0 12.57 2.99 24.46 8.31 34.99 c -45.11 -2.27 -90.22 -5.38 -133.7 -8.9 l -43.69 -458.09 c 44.01 -5.75 82.76 -8.09 108.85 -8.96 c 14.8 0 28.01 8.25 34.48 21.53 l 8.8 18.07 c 20.19 41.44 63.01 68.2 109.1 68.2 h 116.78 c 46.09 0 88.91 -26.76 109.11 -68.21 l 8.78 -18.05 c 6.48 -13.29 19.7 -21.54 34.53 -21.54 l 1.33 0.03 c 76.72 2.56 267.13 17.61 377.85 101.67 c 3.28 2.5 5.13 7.48 4.7 12.69 l -26.66 317.54" stroke-linecap="round" />
			</g>
			<g transform="matrix(0.20958762461200217 0 0 -0.20958762461200217 -103.50412102557425 -1.0454184364537298)">
				<linearGradient id="SVGID_5_2_11970" gradientUnits="userSpaceOnUse" gradientTransform="matrix(1 0 0 1 1030.2555402775743 1091.17)" x1="0" y1="0" x2="0" y2="452">
					<stop offset="0%" style="stop-color:rgb(113,23,234);stop-opacity: 1" />
					<stop offset="100%" style="stop-color:rgb(234,96,96);stop-opacity: 1" />
				</linearGradient>
				<path style="stroke: none; stroke-width: 1; stroke-dasharray: none; stroke-linecap: butt; stroke-dashoffset: 0; stroke-linejoin: miter; stroke-miterlimit: 4; fill: url(#SVGID_5_2_11970); fill-rule: nonzero; opacity: 1;" paint-order="stroke" transform=" translate(-1131.1527701387872, -1303.775)" d="m 1232.05 1516.38 c -72.09 -7.37 -132.81 -14.87 -170.89 -19.85 c -2.27 -0.3 -4 -2.15 -4.2 -4.51 l -26.64 -317.56 c -0.44 -5.19 1.4 -10.16 4.68 -12.65 c 43.68 -33.18 99.79 -55.49 156.5 -70.64 l 40.55 425.21" stroke-linecap="round" />
			</g>
		</g>
	</g>
	<g transform="matrix(1.9699870022450665 0 0 1.9699870022450665 641.7477745337666 779.4344044853738)" id="text-logo-path">
		<linearGradient id="SVGID_64_65_66_67_68_69_70_71_72_73_74_75_76_9_6_11972" gradientUnits="userSpaceOnUse" gradientTransform="matrix(1 0 0 1 1.3199999999999932 -46.21)" x1="0" y1="0" x2="0" y2="77">
			<stop offset="0%" style="stop-color:rgb(113,23,234);stop-opacity: 1" />
			<stop offset="100%" style="stop-color:rgb(234,96,96);stop-opacity: 1" />
		</linearGradient>
		<path style="stroke: rgb(255,255,255); stroke-width: 18; stroke-dasharray: none; stroke-linecap: butt; stroke-dashoffset: 0; stroke-linejoin: miter; stroke-miterlimit: 4; fill: url(#SVGID_64_65_66_67_68_69_70_71_72_73_74_75_76_9_6_11972); fill-rule: nonzero; opacity: 1;" paint-order="stroke" transform=" translate(-241.44, 23.105)" d="M 11.96 0 L 1.32 0 L 1.32 -32 Q 1.32 -34.97 2.45 -37.54 Q 3.58 -40.12 5.48 -42.04 Q 7.38 -43.96 9.96 -45.08 Q 12.54 -46.21 15.5 -46.21 L 15.5 -46.21 L 22.62 -46.21 Q 25.59 -46.21 28.17 -45.08 Q 30.74 -43.96 32.66 -42.04 Q 34.58 -40.12 35.71 -37.54 Q 36.83 -34.97 36.83 -32 L 36.83 -32 L 36.83 0 L 26.2 0 L 26.2 -32 Q 26.2 -33.45 25.19 -34.51 Q 24.17 -35.58 22.62 -35.58 L 22.62 -35.58 L 15.5 -35.58 Q 13.99 -35.58 12.97 -34.51 Q 11.96 -33.45 11.96 -32 L 11.96 -32 L 11.96 0 Z M 50.08 0 L 39.45 0 L 39.45 -32 Q 39.45 -34.97 40.57 -37.54 Q 41.7 -40.12 43.6 -42.04 Q 45.5 -43.96 48.08 -45.08 Q 50.66 -46.21 53.63 -46.21 L 53.63 -46.21 L 74.96 -46.21 L 74.96 -35.51 L 53.63 -35.51 Q 52.11 -35.51 51.1 -34.48 Q 50.08 -33.45 50.08 -32 L 50.08 -32 L 50.08 -28.46 L 74.96 -28.46 L 74.96 -17.76 L 50.08 -17.76 L 50.08 0 Z M 88.27 -35.51 L 77.57 -35.51 L 77.57 -46.21 L 109.57 -46.21 L 109.57 -35.51 L 98.87 -35.51 L 98.87 0 L 88.27 0 L 88.27 -35.51 Z M 112.21 -32 L 112.21 -32 L 112.21 -46.21 L 122.85 -46.21 L 122.85 -32 Q 122.85 -30.49 123.86 -29.47 Q 124.88 -28.46 126.39 -28.46 L 126.39 -28.46 L 137.09 -28.46 L 137.09 -46.21 L 147.73 -46.21 L 147.73 0 L 137.09 0 L 137.09 -17.76 L 126.39 -17.76 Q 123.43 -17.76 120.85 -18.88 Q 118.27 -20.01 116.37 -21.91 Q 114.47 -23.82 113.34 -26.43 Q 112.21 -29.04 112.21 -32 Z M 161.04 0 L 150.34 0 L 150.34 -32 Q 150.34 -34.97 151.46 -37.54 Q 152.59 -40.12 154.53 -42.04 Q 156.46 -43.96 159.04 -45.08 Q 161.62 -46.21 164.58 -46.21 L 164.58 -46.21 Q 167.09 -46.21 169.37 -45.38 Q 171.64 -44.54 173.44 -43.09 L 173.44 -43.09 Q 175.28 -44.54 177.55 -45.38 Q 179.82 -46.21 182.34 -46.21 L 182.34 -46.21 Q 185.3 -46.21 187.88 -45.08 Q 190.46 -43.96 192.38 -42.04 Q 194.29 -40.12 195.42 -37.54 Q 196.55 -34.97 196.55 -32 L 196.55 -32 L 196.55 0 L 185.92 0 L 185.92 -32 Q 185.92 -33.45 184.88 -34.48 Q 183.85 -35.51 182.34 -35.51 L 182.34 -35.51 Q 180.82 -35.51 179.81 -34.48 Q 178.79 -33.45 178.79 -32 L 178.79 -32 L 178.79 0 L 168.16 0 L 168.16 -32 Q 168.16 -33.45 167.13 -34.48 Q 166.1 -35.51 164.58 -35.51 L 164.58 -35.51 Q 163.07 -35.51 162.05 -34.48 Q 161.04 -33.45 161.04 -32 L 161.04 -32 L 161.04 0 Z M 199.16 -14.18 L 199.16 -14.18 L 199.16 -32 Q 199.16 -34.97 200.29 -37.54 Q 201.42 -40.12 203.32 -42.04 Q 205.22 -43.96 207.8 -45.08 Q 210.38 -46.21 213.34 -46.21 L 213.34 -46.21 L 234.67 -46.21 L 234.67 -35.51 L 213.34 -35.51 Q 211.83 -35.51 210.81 -34.48 Q 209.79 -33.45 209.79 -32 L 209.79 -32 L 209.79 -28.46 L 234.67 -28.46 L 234.67 -17.76 L 209.79 -17.76 L 209.79 -14.18 Q 209.79 -12.73 210.81 -11.68 Q 211.83 -10.63 213.34 -10.63 L 213.34 -10.63 L 234.67 -10.63 L 234.67 0 L 213.34 0 Q 210.38 0 207.8 -1.13 Q 205.22 -2.26 203.32 -4.16 Q 201.42 -6.06 200.29 -8.64 Q 199.16 -11.21 199.16 -14.18 Z M 247.98 -35.51 L 237.28 -35.51 L 237.28 -46.21 L 269.29 -46.21 L 269.29 -35.51 L 258.59 -35.51 L 258.59 0 L 247.98 0 L 247.98 -35.51 Z M 275.96 0 L 265.32 0 L 277.66 -46.21 L 277.79 -46.21 L 288.36 -46.21 L 288.49 -46.21 L 300.83 0 L 290.2 0 L 283.08 -26.52 L 275.96 0 Z M 308.54 0 L 296.19 -46.21 L 306.83 -46.21 L 313.95 -19.66 L 321.07 -46.21 L 331.71 -46.21 L 319.37 0 L 319.24 0 L 308.67 0 L 308.54 0 Z M 331.68 -14.18 L 331.68 -14.18 L 331.68 -32 Q 331.68 -34.97 332.8 -37.54 Q 333.93 -40.12 335.83 -42.04 Q 337.73 -43.96 340.31 -45.08 Q 342.89 -46.21 345.86 -46.21 L 345.86 -46.21 L 367.19 -46.21 L 367.19 -35.51 L 345.86 -35.51 Q 344.34 -35.51 343.33 -34.48 Q 342.31 -33.45 342.31 -32 L 342.31 -32 L 342.31 -28.46 L 367.19 -28.46 L 367.19 -17.76 L 342.31 -17.76 L 342.31 -14.18 Q 342.31 -12.73 343.33 -11.68 Q 344.34 -10.63 345.86 -10.63 L 345.86 -10.63 L 367.19 -10.63 L 367.19 0 L 345.86 0 Q 342.89 0 340.31 -1.13 Q 337.73 -2.26 335.83 -4.16 Q 333.93 -6.06 332.8 -8.64 Q 331.68 -11.21 331.68 -14.18 Z M 380.43 0 L 369.8 0 L 369.8 -46.21 L 380.43 -46.21 L 391.1 -46.21 Q 394.07 -46.21 396.64 -45.08 Q 399.22 -43.96 401.14 -42.04 Q 403.06 -40.12 404.19 -37.54 Q 405.31 -34.97 405.31 -32 L 405.31 -32 Q 405.31 -29.49 404.49 -27.22 Q 403.67 -24.94 402.22 -23.11 L 402.22 -23.11 Q 403.67 -21.27 404.49 -18.98 Q 405.31 -16.69 405.31 -14.18 L 405.31 -14.18 L 405.31 0 L 394.68 0 L 394.68 -14.18 Q 394.68 -15.69 393.66 -16.73 Q 392.65 -17.76 391.1 -17.76 L 391.1 -17.76 L 380.43 -17.76 L 380.43 0 Z M 380.43 -35.51 L 380.43 -28.46 L 391.1 -28.46 Q 392.62 -28.46 393.65 -29.47 Q 394.68 -30.49 394.68 -32 L 394.68 -32 Q 394.68 -33.45 393.66 -34.48 Q 392.65 -35.51 391.1 -35.51 L 391.1 -35.51 L 380.43 -35.51 Z M 429.23 0 L 407.92 0 L 407.92 -10.63 L 429.23 -10.63 Q 430.74 -10.7 431.77 -11.71 Q 432.8 -12.73 432.8 -14.18 L 432.8 -14.18 Q 432.8 -15.69 431.79 -16.73 Q 430.77 -17.76 429.23 -17.76 L 429.23 -17.76 L 422.1 -17.76 Q 419.14 -17.76 416.56 -18.88 Q 413.98 -20.01 412.08 -21.95 Q 410.18 -23.88 409.05 -26.46 Q 407.92 -29.04 407.92 -32 L 407.92 -32 Q 407.92 -34.97 409.05 -37.54 Q 410.18 -40.12 412.08 -42.04 Q 413.98 -43.96 416.56 -45.08 Q 419.14 -46.21 422.1 -46.21 L 422.1 -46.21 L 436.32 -46.21 L 436.32 -35.51 L 422.1 -35.51 Q 420.59 -35.51 419.57 -34.48 Q 418.56 -33.45 418.56 -32 L 418.56 -32 Q 418.56 -30.49 419.57 -29.47 Q 420.59 -28.46 422.1 -28.46 L 422.1 -28.46 L 429.23 -28.46 Q 432.19 -28.46 434.77 -27.33 Q 437.35 -26.2 439.26 -24.25 Q 441.18 -22.3 442.31 -19.72 Q 443.44 -17.14 443.44 -14.18 L 443.44 -14.18 Q 443.44 -11.21 442.31 -8.64 Q 441.18 -6.06 439.26 -4.16 Q 437.35 -2.26 434.78 -1.13 Q 432.22 0 429.23 0 L 429.23 0 Z M 446.05 -14.18 L 446.05 -14.18 L 446.05 -32 Q 446.05 -34.97 447.18 -37.54 Q 448.3 -40.12 450.21 -42.04 Q 452.11 -43.96 454.68 -45.08 Q 457.26 -46.21 460.23 -46.21 L 460.23 -46.21 L 481.56 -46.21 L 481.56 -35.51 L 460.23 -35.51 Q 458.71 -35.51 457.7 -34.48 Q 456.68 -33.45 456.68 -32 L 456.68 -32 L 456.68 -28.46 L 481.56 -28.46 L 481.56 -17.76 L 456.68 -17.76 L 456.68 -14.18 Q 456.68 -12.73 457.7 -11.68 Q 458.71 -10.63 460.23 -10.63 L 460.23 -10.63 L 481.56 -10.63 L 481.56 0 L 460.23 0 Q 457.26 0 454.68 -1.13 Q 452.11 -2.26 450.21 -4.16 Q 448.3 -6.06 447.18 -8.64 Q 446.05 -11.21 446.05 -14.18 Z" stroke-linecap="round" />
	</g>
</svg>