<svg id="Layer_1" xmlns="http://www.w3.org/2000/svg" viewBox="0 0 1440 1024"><defs><style>.cls-1{fill:none;stroke:#f8f32b;stroke-miterlimit:10;}.cls-2{fill:#f8f32b;}</style></defs><line class="cls-1" x1="-32.95" y1="857.5" x2="1439.47" y2="857.5"/><line class="cls-1" x1="-31.93" y1="745.5" x2="1440.5" y2="745.5"/><line class="cls-1" x1="-33.98" y1="629.5" x2="1438.45" y2="629.5"/><line class="cls-1" x1="-35" y1="503.5" x2="1437.42" y2="503.5"/><line class="cls-1" x1="-33.98" y1="377.5" x2="1438.45" y2="377.5"/><line class="cls-1" x1="-33.98" y1="261.5" x2="1438.45" y2="261.5"/><line class="cls-1" x1="-31.93" y1="149.5" x2="1440.5" y2="149.5"/><line class="cls-1" x1="-31.93" y1="37.5" x2="1440.5" y2="37.5"/><line class="cls-1" x1="-32.44" y1="968.5" x2="1439.99" y2="968.5"/><line class="cls-1" x1="1373.85" y1="1158.25" x2="1373.85" y2="-314.17"/><line class="cls-1" x1="1253.85" y1="1158.25" x2="1253.85" y2="-314.17"/><line class="cls-1" x1="1137.85" y1="1169.25" x2="1137.85" y2="-303.17"/><line class="cls-1" x1="1010.85" y1="1180.25" x2="1010.85" y2="-292.17"/><line class="cls-1" x1="891.85" y1="1180.25" x2="891.85" y2="-292.17"/><line class="cls-1" x1="770.85" y1="1180.25" x2="770.85" y2="-292.17"/><line class="cls-1" x1="649.85" y1="1180.25" x2="649.85" y2="-292.17"/><line class="cls-1" x1="529.85" y1="1180.25" x2="529.85" y2="-292.17"/><line class="cls-1" x1="405.85" y1="1169.25" x2="405.85" y2="-303.17"/><line class="cls-1" x1="286.85" y1="1169.25" x2="286.85" y2="-303.17"/><line class="cls-1" x1="165.85" y1="1158.25" x2="165.85" y2="-314.17"/><line class="cls-1" x1="44.85" y1="1163.25" x2="44.85" y2="-309.17"/><rect class="cls-2" x="44.5" y="149.5" width="121" height="112"/><rect class="cls-2" x="1138" y="377" width="121" height="112"/><rect class="cls-2" x="530" y="630" width="121" height="112" rx="4.9"/><rect class="cls-2" x="287" y="965" width="121" height="59" rx="4.9"/><rect class="cls-2" x="1373" y="965" width="67" height="59"/><rect class="cls-2" width="44" height="37"/><rect class="cls-2" x="1373" y="266" width="67" height="112"/></svg>