<svg viewBox="0 0 562 831" fill="none" xmlns="http://www.w3.org/2000/svg">
<path d="M439.489 507.494L433.119 521.719L429.097 519.923L442.777 489.387L446.799 491.184L441.406 503.211L466.653 514.525L464.002 519.639C463.682 519.457 463.576 519.083 463.774 518.381L455.13 514.517L449.812 526.381L445.758 524.565L451.077 512.701L439.489 507.494Z" fill="#FCFCFC"/>
<path d="M422.565 557.509L423.959 554.709C422.721 554.013 421.647 553.392 420.722 552.804L419.309 555.637L415.979 553.976L417.574 550.776C413.933 548.271 413.849 546.649 415.848 542.638C416.14 542.054 416.434 541.459 416.776 540.863C417.724 541.251 419.348 541.577 420.489 541.491C419.642 542.863 418.978 544.12 418.667 544.735C418.128 545.816 418.638 546.428 419.399 547.098L424.065 537.748L422.579 536.718L424.646 533.144C426.665 534.635 429.31 536.439 432.125 538.295L433.697 535.138L437.254 536.911L435.461 540.499C437.228 541.619 438.969 542.696 440.633 543.683C439.985 542.629 439.461 541.555 439.054 540.497C440.085 540.157 441.904 539.431 442.88 538.861C444.085 542.309 447.301 546.391 450.859 549.467L447.482 553.232C447.27 553.002 447.249 552.624 447.517 552.192C446.917 551.607 446.273 551 445.712 550.352L438.453 564.927L434.96 563.192L442.972 547.128C442.438 546.414 441.911 545.665 441.419 544.925L435.225 557.346L434.852 558.176L433.701 560.08C433.411 559.929 432.964 559.669 432.612 559.419C430.727 558.393 428.973 557.482 427.444 556.635L426.124 559.271L422.565 557.509ZM428.793 522.963C430.668 525.65 433.872 529.681 436.985 533.064L433.247 535.106C430.405 532.063 427.526 528.71 425.649 526.191C425.296 526.254 425.031 526.205 424.803 526.092C424.674 526.026 424.53 525.921 424.428 525.789L428.793 522.963ZM424.049 546.122L422.503 549.213C423.397 549.781 424.471 550.403 425.733 551.152L427.259 548.093L424.049 546.122ZM425.729 542.761C426.712 543.41 427.799 544.083 428.919 544.764L430.352 541.9L427.189 539.831L425.729 542.761ZM430.686 550.114L429.206 553.075L432.317 554.746L433.749 551.882L430.686 550.114ZM432.344 546.796C433.367 547.43 434.378 548.013 435.408 548.564L436.728 545.927L433.711 544.061L432.344 546.796ZM447.268 534.003C445.58 535.518 443.108 537.298 441.422 537.97L439.468 534.059C441.076 533.514 443.651 531.866 445.468 530.417L447.268 534.003ZM455.266 539.985C453.544 541.492 451.008 543.233 449.29 543.885C448.589 542.433 447.948 541.188 447.336 539.974C448.996 539.417 451.668 537.816 453.517 536.386L455.266 539.985Z" fill="#FCFCFC"/>
<path d="M403.896 577.177C402.69 576.501 402.392 576.589 401.821 577.602L400.181 580.527C399.582 581.606 400.298 582.265 404.847 585.015C403.738 585.434 402.14 586.717 401.343 587.558C395.819 584.016 394.731 582.149 396.522 578.934L398.695 575.06C400.665 571.537 402.375 571.232 406.057 573.3L416.264 579.008L425.446 562.575L429.162 564.65L413.16 593.287L409.444 591.212L414.103 582.885L403.896 577.177ZM417.916 574.41C417.635 574.165 417.571 573.764 417.794 573.213C412.532 569.273 407.845 565.19 409.236 555.614C410.458 555.751 412.487 555.472 413.733 555.036C412.247 563.301 416.177 566.33 421.139 569.693L417.916 574.41ZM423.777 595.341L420.092 593.285L432.827 570.499L436.511 572.555L423.777 595.341Z" fill="#FCFCFC"/>
<path d="M387.994 620.834L384.46 618.595L391.89 606.881L386.791 603.643C383.257 601.404 383.594 599.373 387.746 592.821C388.983 593.311 391.085 593.604 392.459 593.608C391.114 595.515 389.635 597.85 389.231 598.504C388.866 599.143 388.86 599.431 389.385 599.769L394.4 602.952L401.695 591.46L405.228 593.699L397.934 605.191L401.563 607.487L405.599 601.126L409.038 603.306L398.475 619.975L395.036 617.794L399.073 611.433L395.444 609.136L387.994 620.834ZM411.921 603.767L407.43 600.922L409.727 597.293L417.593 602.279L410.648 613.249L414.087 615.43L410.778 620.103C410.46 619.86 410.436 619.493 410.723 618.824L408.135 617.19L401.043 628.379L393.177 623.393L395.587 619.585L400.078 622.43L411.921 603.767Z" fill="#FCFCFC"/>
<path d="M381.831 645.703C381.53 645.441 381.53 645.127 381.823 644.484L378.294 641.909L372.158 650.317L356.343 638.77L358.988 635.149L359.813 635.75L369.35 622.69L368.525 622.089L371.03 618.653L386.844 630.2L380.852 638.401L385.207 641.576L381.831 645.703ZM366.534 633.323L363.039 638.122L365.886 640.202L369.381 635.403L366.534 633.323ZM375.412 627.139L372.565 625.059L369.089 629.826L371.936 631.906L375.412 627.139ZM371.531 644.314L375.026 639.515L372.375 637.577L368.88 642.376L371.531 644.314ZM377.581 636.018L381.056 631.251L378.406 629.313L374.93 634.08L377.581 636.018ZM386.648 648.177L378.835 658.887L371.478 653.524L374.139 649.882L378.225 652.863L391.254 635.016L387.168 632.035L389.704 628.57L397.061 633.933L389.393 644.435L392.858 646.971L389.251 651.418C388.95 651.156 388.938 650.792 389.282 650.136L386.648 648.177Z" fill="#FCFCFC"/>
<path d="M349.061 685.249L353.662 679.886L351.314 681.284C351.178 680.879 351.331 680.48 351.692 680.118C349.181 675.379 347.697 670.793 347.2 666.158C342.605 667.207 338.02 669.367 333.504 672.845C333.421 671.379 332.716 668.95 332.195 667.6C337.164 664.094 342.069 661.959 347.063 661.111C347.296 656.078 348.625 650.948 351.074 645.51C352.241 645.888 354.506 646.206 355.809 646.253C353.373 651.164 351.956 655.948 351.647 660.626C356.562 660.483 361.629 661.46 366.888 663.325L365.923 665.574L370.857 659.817L374.098 662.591L364.711 673.54L369.139 677.335L365.338 681.267C365.085 681.004 365.091 680.667 365.456 680.077L361.804 676.943L352.299 688.034L349.061 685.249ZM364.489 667.244C360.299 665.758 356.031 665.135 351.743 665.434C352.159 669.533 353.428 673.539 355.677 677.53L364.489 667.244Z" fill="#FCFCFC"/>
<path d="M319.616 690.133C318.069 688.534 317.66 688.475 316.375 689.71L312.496 693.455C311.239 694.672 311.86 695.792 315.276 699.691C313.98 699.874 312.14 700.534 311.049 701.186C307.071 696.277 306.265 693.765 309.353 690.777L313.912 686.381C317.217 683.189 319.22 683.338 322.841 687.08L341.178 706.08L337.076 709.642C336.823 709.331 336.882 708.97 337.283 708.436L328.905 699.763C327.754 703.656 326.992 707.844 326.649 711.104L321.382 710.576C321.441 710.372 321.597 710.011 321.969 709.759C322.624 705.98 324.126 701.095 325.804 696.54L319.616 690.133ZM325.697 674.394L338.674 687.842C338.404 685.826 338.229 683.869 338.212 682.009C339.313 682.516 341.747 683.355 342.971 683.638C342.861 688.555 344.539 695.489 347.162 701.254L342.283 703.539C342.167 703.102 342.352 702.771 342.743 702.488C341.828 700.131 340.974 697.667 340.294 695.184L338.971 695.903C338.795 695.621 338.825 695.23 339.194 694.725L322.53 677.46L325.697 674.394Z" fill="#FCFCFC"/>
<path d="M276.838 753.708L262.177 730.323C259.877 726.658 261.378 725.064 266.907 721.687C267.661 722.548 269.17 723.789 270.199 724.4C269.378 724.873 268.529 725.365 267.783 725.831C265.557 727.222 265.47 727.286 265.939 728.021L278.434 747.94L294.843 737.648L290.263 730.334C287.073 725.246 283.043 717.589 283.683 710.949C284.743 711.266 287.068 711.538 288.163 711.441C287.616 717.415 291.082 723.495 293.946 728.062L300.661 738.762L276.838 753.708ZM267.921 726.068L276.562 720.649L275.476 718.928L278.843 716.824L285.233 727.003L273.237 734.528L267.921 726.068ZM274.888 729.569L280.103 726.301L278.322 723.467L273.107 726.735L274.888 729.569ZM289.343 731.026L284.041 734.359L285.285 736.333L289.939 733.406L291.702 736.212L287.048 739.139L288.389 741.269L283.943 743.715C283.777 743.387 283.903 743.103 284.345 742.65L283.535 741.354L278.658 744.412L276.895 741.605L281.772 738.548L280.528 736.573L275.043 740.021L273.23 737.119L287.539 728.138L289.343 731.026Z" fill="#FCFCFC"/>
<path d="M242.405 740.719L228.001 746.664L226.326 742.589L257.255 729.814L258.941 733.892L246.76 738.928L257.324 764.5L251.884 766.391C251.784 766.042 251.949 765.695 252.58 765.31L248.971 756.557L236.951 761.521L235.259 757.417L247.279 752.453L242.405 740.719Z" fill="#FCFCFC"/>
<path d="M193.567 759.787L196.649 759.232C196.469 757.817 196.33 756.591 196.245 755.499L193.127 756.056L192.476 752.398L195.984 751.774C195.821 747.36 197.085 746.326 201.487 745.534C202.129 745.417 202.782 745.302 203.464 745.219C203.719 746.206 204.433 747.709 205.172 748.578C203.573 748.716 202.161 748.932 201.482 749.053C200.301 749.262 200.11 750.038 200.031 751.056L210.315 749.223L210.249 747.424L214.349 746.948C214.36 749.458 214.478 752.656 214.675 756.028L218.157 755.41L218.858 759.321L214.91 760.025C215.056 762.108 215.238 764.139 215.432 766.064C215.893 764.905 216.438 763.849 217.045 762.892C217.928 763.506 219.593 764.542 220.636 764.987C218.588 768.01 217.225 773.024 216.877 777.718L211.837 777.253C211.894 776.953 212.18 776.706 212.698 776.656C212.805 775.825 212.909 774.957 213.093 774.108L197.075 776.967L196.393 773.133L214.059 769.978C214.317 769.122 214.6 768.259 214.901 767.425L201.246 769.866L200.358 770.058L198.139 770.269C198.082 769.943 198.03 769.436 198.022 769.001C197.719 766.869 197.407 764.929 197.168 763.198L194.262 763.72L193.567 759.787ZM203.587 754.192L200.179 754.803C200.261 755.859 200.397 757.096 200.557 758.543L203.925 757.947L203.587 754.192ZM204.33 761.886L201.072 762.472L201.592 765.967L204.747 765.406L204.33 761.886ZM207.273 753.524C207.34 754.697 207.454 755.977 207.575 757.282L210.73 756.721L210.503 752.955L207.273 753.524ZM207.988 761.235C208.096 762.442 208.227 763.593 208.394 764.753L211.299 764.23L211.007 760.691L207.988 761.235ZM224.992 744.185C223.96 747.298 222.622 752.258 221.77 756.786L217.902 755.001C218.654 750.908 219.614 746.596 220.525 743.588C220.258 743.334 220.143 743.102 220.093 742.849C220.065 742.71 220.073 742.519 220.121 742.362L224.992 744.185ZM227.152 765.587C224.93 765.135 222.021 764.21 220.491 763.266L222.452 759.367C223.843 760.339 226.703 761.421 228.953 762.013L227.152 765.587ZM227.124 775.575C224.887 775.082 221.983 774.086 220.435 773.114C221.176 771.682 221.803 770.428 222.396 769.215C223.828 770.221 226.713 771.405 228.966 772.034L227.124 775.575Z" fill="#FCFCFC"/>
<path d="M167.271 750.726C167.431 749.353 167.247 749.105 166.085 748.97L162.753 748.574C161.522 748.422 161.188 749.346 160.386 754.598C159.572 753.735 157.788 752.744 156.692 752.322C157.857 745.865 159.171 744.143 162.82 744.575L167.232 745.099C171.244 745.58 172.171 747.047 171.674 751.236L170.297 762.841L189 765.061L188.492 769.296L155.911 765.415L156.419 761.18L165.899 762.308L167.271 750.726ZM158.064 776.038L158.563 771.838L184.494 774.919L183.994 779.119L158.064 776.038ZM175.168 762.627C175.284 762.281 175.636 762.06 176.229 762.053C177.869 755.68 179.854 749.798 189.225 747.428C189.557 748.602 190.592 750.384 191.476 751.36C183.268 753.129 181.967 757.928 180.757 763.797L175.168 762.627Z" fill="#FCFCFC"/>
<path d="M141.497 764.558L143.896 759.808L147.727 761.753L143.515 770.075L131.912 764.201L130.071 767.839L125.096 765.003C125.307 764.666 125.673 764.594 126.367 764.826L127.745 762.094L115.914 756.108L120.126 747.786L124.152 749.825L121.753 754.575L141.497 764.558ZM122.182 742.378L124.069 738.643L136.449 744.912L139.178 739.515C141.065 735.779 143.119 735.916 150.038 739.418C149.668 740.707 149.578 742.82 149.708 744.188C147.684 743.034 145.211 741.788 144.533 741.438C143.866 741.139 143.573 741.156 143.289 741.706L140.607 747.005L152.762 753.151L150.875 756.886L138.72 750.741L136.775 754.571L143.501 757.968L141.661 761.606L124.044 752.693L125.885 749.055L132.608 752.464L134.553 748.634L122.182 742.378Z" fill="#FCFCFC"/>
<path d="M93.8278 736.639L84.3123 727.415L90.6536 720.886L93.8932 724.033L90.366 727.667L106.236 743.048L109.763 739.414L112.846 742.404L106.504 748.933L97.1774 739.884L94.1872 742.967L90.2848 738.775C90.5877 738.507 90.9504 738.555 91.5508 738.983L93.8278 736.639ZM96.9562 732.226C97.2591 731.959 97.5734 732.007 98.173 732.387L101.211 729.254L93.734 722.007L107.373 707.941L110.583 711.057L109.873 711.785L121.476 723.035L122.187 722.307L125.238 725.278L111.599 739.344L104.311 732.273L100.56 736.144L96.9562 732.226ZM99.7613 722.217L104.027 726.348L106.307 723.994L102.041 719.862L99.7613 722.217ZM111.353 718.793L107.087 714.662L104.634 717.194L108.9 721.325L111.353 718.793ZM107.131 729.355L111.365 733.467L113.644 731.112L109.41 727L107.131 729.355ZM116.238 728.444L118.691 725.912L114.456 721.8L112.003 724.332L116.238 728.444Z" fill="#FCFCFC"/>
<path d="M66.0524 687.974L69.6527 694.049L69.0886 691.375C69.5103 691.376 69.8457 691.647 70.0649 692.107C75.3606 691.256 80.18 691.32 84.729 692.346C85.2084 687.659 84.6357 682.62 82.8032 677.243C84.2206 677.63 86.7385 677.741 88.1851 677.689C89.9119 683.525 90.3472 688.845 89.5543 693.846C94.2406 695.687 98.6784 698.605 103.034 702.66C102.303 703.636 101.274 705.689 100.803 706.895C96.9375 703.013 92.865 700.132 88.5414 698.338C87.0936 703.042 84.5418 707.516 81.0849 711.89L79.2688 710.253L83.1279 716.774L79.4687 718.943L72.1211 706.542L67.1086 709.507L64.6043 704.637C64.9406 704.486 65.2532 704.594 65.696 705.13L69.8288 702.685L62.3871 690.118L66.0524 687.974ZM78.1262 708.362C80.8866 704.864 82.8432 701.036 83.9362 696.877C79.919 695.949 75.7203 695.86 71.2222 696.702L78.1262 708.362Z" fill="#FCFCFC"/>
<path d="M74.3539 657.45C76.4942 656.847 76.7417 656.507 76.2576 654.792L74.7904 649.607C74.3099 647.929 73.0395 647.949 67.9858 649.109C68.4367 647.887 68.7151 645.95 68.658 644.683C74.8738 643.502 77.4639 643.979 78.6327 648.107L80.3586 654.207C81.6066 658.618 80.5376 660.324 75.5227 661.734L50.117 668.913L48.9183 663.609C49.3101 663.531 49.6077 663.756 49.892 664.352L61.4979 661.076C58.6139 658.216 55.2836 655.567 52.5747 653.724L55.5298 649.331C55.6891 649.476 55.9198 649.783 55.9734 650.229C58.9851 652.588 62.5926 656.23 65.804 659.864L74.3539 657.45ZM85.3499 670.236L67.3715 675.319C69.2792 676.037 71.0796 676.802 72.725 677.664C71.7609 678.394 69.8635 680.138 69.0402 681.093C64.7651 678.672 57.8629 676.873 51.5328 676.461L51.8344 671.081C52.2808 671.184 52.4833 671.508 52.5431 671.98C55.0505 672.294 57.6335 672.697 60.14 673.276L60.1269 671.766C60.4571 671.746 60.7828 671.954 61.061 672.524L84.1564 666.006L85.3499 670.236Z" fill="#FCFCFC"/>
<path d="M41.1487 615.126L68.4074 610.835C72.6863 610.159 73.5489 612.166 74.4912 618.58C73.4091 618.933 71.6703 619.834 70.7114 620.541C70.6032 619.599 70.48 618.619 70.3534 617.758C69.9504 615.169 69.9284 615.056 69.0647 615.194L45.8348 618.848L48.8448 637.975L57.3656 636.627C63.2952 635.693 71.9188 634.996 77.7724 638.204C77.0583 639.052 75.9039 641.076 75.5525 642.128C70.2809 639.271 63.3203 640.075 58.0043 640.909L45.52 642.873L41.1487 615.126ZM57.0751 635.535L56.1029 629.356L53.8014 629.716L54.6576 635.146L51.3815 635.655L50.5254 630.226L48.0479 630.618L47.5492 625.573C47.9163 625.549 48.1285 625.779 48.3784 626.367L49.8928 626.126L48.9979 620.446L52.274 619.937L53.1688 625.616L55.4702 625.255L54.4654 618.851L57.8436 618.317L60.4647 635.004L57.0751 635.535ZM70.0549 617.797L71.636 627.867L73.6504 627.548L74.2655 631.463L62.3948 633.328L60.1871 619.34L70.0549 617.797ZM64.1081 622.826L65.0672 628.906L68.3829 628.381L67.4238 622.301L64.1081 622.826Z" fill="#FCFCFC"/>
<path d="M61.9975 549.309L61.4707 533.733L65.8702 533.579L67.008 567.029L62.6086 567.183L62.1652 554.013L34.5098 554.958L34.645 549.202C35.013 549.227 35.2745 549.504 35.4074 550.234L44.8727 549.912L44.4354 536.924L48.8718 536.767L49.309 549.755L61.9975 549.309Z" fill="#FCFCFC"/>
<path d="M56.0655 496.886L55.9684 500.022C57.3867 500.144 58.6166 500.248 59.7048 500.39L59.8099 497.22L63.519 497.341L63.4069 500.907C67.7542 501.658 68.5157 503.112 68.3744 507.588C68.3549 508.246 68.3355 508.905 68.2738 509.59C67.2517 509.631 65.6431 510.019 64.6359 510.57C64.835 508.977 64.9091 507.559 64.9364 506.866C64.9718 505.669 64.2587 505.311 63.2876 505.027L62.9609 515.476L64.7331 515.788L64.3515 519.895C61.8917 519.376 58.7364 518.84 55.405 518.336L55.2893 521.866L51.3266 521.746L51.4564 517.738C49.3883 517.453 47.3581 517.214 45.4309 516.998C46.4662 517.683 47.3888 518.438 48.2067 519.23C47.4195 519.976 46.0574 521.386 45.4102 522.309C42.8696 519.686 38.245 517.316 33.7251 516.007L35.2276 511.17C35.5146 511.285 35.6888 511.626 35.6325 512.132C36.4239 512.411 37.2524 512.687 38.0482 513.051L38.5604 496.787L42.4518 496.901L41.8901 514.842C42.6842 515.267 43.4704 515.726 44.2196 516.188L44.6496 502.315L44.6418 501.409L44.8868 499.2C45.209 499.214 45.7284 499.261 46.1545 499.348C48.3027 499.494 50.259 499.584 52.0136 499.712L52.1028 496.767L56.0655 496.886ZM33.6863 526.462C34.6259 524.376 36.2021 521.727 37.4805 520.418C38.7271 521.442 39.8284 522.311 40.8892 523.146C39.6116 524.346 37.8603 526.919 36.7666 528.993L33.6863 526.462ZM51.7779 506.999L51.8803 503.683L48.3516 503.459L48.2501 506.667L51.7779 506.999ZM43.4489 528.559C44.3515 526.477 45.8564 523.823 47.0979 522.518L50.5066 525.246C49.2739 526.408 47.6194 528.98 46.5715 531.064L43.4489 528.559ZM51.6569 510.708C50.4604 510.564 49.293 510.452 48.1291 510.376L48.0399 513.321L51.5554 513.759L51.6569 510.708ZM59.4778 507.848L59.5891 504.39C58.5379 504.244 57.2965 504.138 55.8491 503.985L55.7458 507.409L59.4778 507.848ZM59.3577 511.606C58.1947 511.422 56.927 511.274 55.6222 511.129L55.5207 514.336L59.2518 514.884L59.3577 511.606ZM64.8435 530.871C62.0184 529.218 57.4203 526.89 53.1769 525.115L55.7251 521.701C59.5803 523.278 63.5912 525.12 66.3538 526.626C66.6549 526.418 66.9103 526.357 67.1638 526.355C67.3064 526.364 67.4896 526.406 67.6304 526.475L64.8435 530.871Z" fill="#FCFCFC"/>
<path d="M39.9091 462.596L44.1139 463.025L41.4782 489.01L37.2734 488.581L39.9091 462.596ZM65.3838 471.359C66.7625 471.496 67.0011 471.298 67.1227 470.145L67.4584 466.811C67.5871 465.575 66.6583 465.264 61.3882 464.541C62.2423 463.714 63.1898 461.907 63.6002 460.809C70.0816 461.871 71.8256 463.142 71.4502 466.804L70.9973 471.22C70.5884 475.236 69.1382 476.192 64.9335 475.763L53.3069 474.586L51.4061 493.315L47.1643 492.89L50.4716 460.237L54.7133 460.662L53.751 470.156L65.3838 471.359ZM53.6146 479.467C53.9755 479.574 54.1956 479.927 54.2035 480.519C60.6021 482.045 66.5201 483.929 69.0539 493.266C67.8864 493.624 66.1334 494.69 65.1552 495.585C63.2323 487.414 58.4148 486.193 52.525 485.074L53.6146 479.467Z" fill="#FCFCFC"/>
<path d="M47.6076 449.871L52.8442 450.791L52.0972 455.019L42.9103 453.404L45.1662 440.604L41.1472 439.893L42.4226 434.317C42.8091 434.418 42.9745 434.746 42.9595 435.49L45.9722 436.016L48.2748 422.962L57.4617 424.576L56.676 429.024L51.4394 428.105L47.6076 449.871ZM63.2301 424.968L67.3548 425.691L64.9464 439.36L70.9005 440.409C75.0252 441.132 75.489 443.144 74.1368 450.776C72.8039 450.806 70.7419 451.331 69.4776 451.846C69.992 449.566 70.4641 446.842 70.6016 446.09C70.6967 445.365 70.592 445.088 69.9774 444.982L64.1264 443.957L61.7647 457.371L57.6401 456.648L60.0017 443.233L55.7741 442.486L54.4695 449.913L50.4505 449.202L53.8771 429.764L57.8961 430.475L56.5915 437.901L60.8192 438.648L63.2301 424.968Z" fill="#FCFCFC"/>
<path d="M54.3357 399.009L57.6138 386.168L66.4362 388.422L65.3185 392.793L60.4121 391.54L54.9384 412.951L59.8448 414.205L58.7861 418.372L49.9638 416.119L53.1837 403.529L49.016 402.471L50.7122 397.003C51.0907 397.139 51.2307 397.473 51.1584 398.203L54.3357 399.009ZM59.7273 399.519C60.1059 399.654 60.2194 399.946 60.1894 400.65L64.4232 401.736L67.0046 391.651L85.9805 396.502L84.8734 400.828L83.8829 400.575L79.8809 416.239L80.8713 416.491L79.8206 420.625L60.8333 415.771L63.3478 405.924L58.1236 404.585L59.7273 399.519ZM67.2611 406.936L65.7974 412.65L68.9747 413.455L70.4385 407.742L67.2611 406.936ZM69.8108 396.988L68.3392 402.736L71.5165 403.542L72.9882 397.794L69.8108 396.988ZM72.5816 414.385L76.0081 415.26L77.4719 409.546L74.0454 408.671L72.5816 414.385ZM78.5384 405.344L80.0101 399.596L76.5837 398.721L75.112 404.469L78.5384 405.344Z" fill="#FCFCFC"/>
<path d="M75.4836 350.693L73.2168 357.378L74.8731 355.217C75.1468 355.545 75.1574 355.97 74.9522 356.441C79.0466 359.906 82.1339 363.608 84.3055 367.726C88.1804 365.04 91.6293 361.328 94.521 356.426C95.1433 357.751 96.6979 359.737 97.6804 360.808C94.3678 365.914 90.6213 369.714 86.2983 372.357C87.9486 377.114 88.6251 382.381 88.3736 388.327C87.1499 388.406 84.9233 388.965 83.703 389.394C84.134 383.924 83.6767 378.961 82.22 374.514C77.7025 376.484 72.6453 377.451 67.0732 377.671L67.1315 375.225L64.6939 382.39L60.6573 381.024L65.2913 367.375L59.781 365.5L61.8434 360.43C62.1824 360.581 62.3021 360.898 62.1805 361.581L66.7303 363.126L71.4295 349.299L75.4836 350.693ZM67.8545 373.138C72.2962 372.958 76.4809 371.959 80.3504 370.08C78.4324 366.43 75.7721 363.176 72.2129 360.317L67.8545 373.138Z" fill="#FCFCFC"/>
<path d="M101.236 351.888L84.0724 344.514C85.104 346.259 86.016 348.001 86.7536 349.714C85.5448 349.676 82.9775 349.831 81.7335 350.05C79.9326 345.475 75.7028 339.725 71.052 335.432L74.6726 331.446C74.9525 331.8 74.9111 332.188 74.6619 332.589C76.4102 334.415 78.1577 336.35 79.7387 338.378L80.6861 337.199C80.9546 337.393 81.0752 337.759 80.9325 338.377L102.975 347.854L101.236 351.888ZM100.752 335.032C102.791 335.913 103.19 335.8 103.893 334.166L106.023 329.221C106.718 327.621 105.709 326.822 101.061 324.555C102.18 323.885 103.618 322.566 104.371 321.546C109.939 324.531 111.656 326.543 109.961 330.492L107.459 336.315C105.644 340.525 103.744 341.184 98.9623 339.127L74.7142 328.707L77.1279 323.84C77.4818 324.03 77.568 324.387 77.4086 325.026L88.4846 329.789C88.0412 325.757 87.1339 321.593 86.1825 318.456L91.2406 316.911C91.2643 317.122 91.2573 317.518 91.016 317.884C91.867 321.613 92.378 326.71 92.5854 331.555L100.752 335.032Z" fill="#FCFCFC"/>
<path d="M99.2528 281.005L123.687 293.855C127.525 295.874 127.022 298 123.945 303.703C122.859 303.344 120.932 303.02 119.741 303.01C120.208 302.189 120.706 301.34 121.113 300.566C122.336 298.244 122.383 298.147 121.609 297.739L100.788 286.784L91.7663 303.929L99.4096 307.948C104.731 310.744 112.06 315.341 114.843 321.408C113.759 321.664 111.627 322.595 110.721 323.229C108.192 317.787 102.145 314.269 97.3702 311.769L86.1658 305.891L99.2528 281.005ZM99.8296 306.912L102.75 301.365L100.684 300.286L98.1253 305.156L95.1911 303.611L97.75 298.74L95.5236 297.575L98.1405 293.237C98.4434 293.439 98.4918 293.752 98.3262 294.365L99.6811 295.075L102.364 289.981L105.298 291.526L102.615 296.621L104.681 297.7L107.694 291.959L110.726 293.551L102.862 308.504L99.8296 306.912ZM120.843 300.431L116.094 309.461L117.901 310.409L116.052 313.924L105.42 308.335L112.015 295.801L120.843 300.431ZM113.067 300.902L110.205 306.354L113.171 307.918L116.033 302.467L113.067 300.902Z" fill="#FCFCFC"/>
<path d="M151.891 247.926L161.017 235.29L164.591 237.875L144.997 264.996L141.422 262.411L149.145 251.729L126.715 235.52L130.352 231.043C130.622 231.286 130.666 231.67 130.322 232.326L137.998 237.872L145.615 227.334L149.209 229.936L141.593 240.474L151.891 247.926Z" fill="#FCFCFC"/>
<path d="M143.653 212.439C145.682 211.377 148.552 210.279 150.368 210.035C150.716 211.61 151.039 212.975 151.362 214.291C149.616 214.443 146.649 215.385 144.513 216.339L143.653 212.439ZM179.521 203.023L177.507 205.427C178.55 206.391 179.449 207.25 180.221 208.031L182.251 205.606L185.101 207.988L182.806 210.725C185.76 214.011 185.464 215.606 182.586 219.041C182.167 219.547 181.738 220.05 181.271 220.557C180.445 219.957 178.928 219.269 177.802 219.081C178.944 217.947 179.877 216.884 180.326 216.349C181.093 215.429 180.752 214.711 180.159 213.887L173.451 221.898L174.661 223.238L171.825 226.225C170.209 224.296 168.055 221.93 165.754 219.47L163.489 222.178L160.449 219.632L163.026 216.562C161.577 215.058 160.126 213.614 158.739 212.257C159.131 213.433 159.392 214.602 159.54 215.733C158.457 215.833 156.527 216.098 155.438 216.426C155.062 212.783 152.894 208.075 150.147 204.258L154.317 201.387C154.471 201.664 154.4 202.021 154.048 202.398C154.499 203.105 154.98 203.843 155.381 204.611L165.832 192.135L168.824 194.634L157.293 208.391C157.647 209.208 157.982 210.057 158.284 210.887L167.19 200.249L167.744 199.521L169.316 197.931C169.568 198.146 169.933 198.495 170.227 198.84C171.826 200.27 173.311 201.565 174.606 202.744L176.503 200.482L179.521 203.023ZM150.04 220.122C152.038 219.04 154.861 217.884 156.643 217.632L157.637 221.888C155.939 222.038 153.056 223.037 150.946 224.032L150.04 220.122ZM165.425 235.15C164.224 232.101 162.06 227.43 159.816 223.416L163.93 222.304C165.987 225.926 168.01 229.852 169.248 232.742C169.616 232.767 169.857 232.871 170.048 233.035C170.158 233.133 170.272 233.268 170.343 233.429L165.425 235.15ZM167.527 211.164C166.677 210.305 165.824 209.505 164.955 208.726L163.059 210.988L165.552 213.505L167.527 211.164ZM169.909 208.314L172.037 205.78L169.399 203.423L167.337 205.876L169.909 208.314ZM173.017 216.626C172.215 215.766 171.315 214.859 170.37 213.942L168.308 216.395L170.905 219.141L173.017 216.626ZM175.429 213.748L177.644 211.101C176.903 210.339 176.002 209.492 174.96 208.468L172.763 211.095L175.429 213.748Z" fill="#FCFCFC"/>
<path d="M188.03 166.062L191.066 168.993L172.957 187.801L169.909 184.867L188.03 166.062ZM202.648 188.689C203.643 189.654 203.959 189.642 204.767 188.804L207.097 186.389C207.953 185.501 207.431 184.681 203.721 180.859C204.906 180.735 206.763 179.898 207.761 179.285C212.202 184.119 212.784 186.194 210.23 188.848L207.151 192.055C204.346 194.963 202.62 194.818 199.572 191.884L191.148 183.779L178.084 197.339L175.016 194.388L197.771 170.758L200.839 173.708L194.224 180.584L202.648 188.689ZM188.388 187.795C188.596 188.097 188.561 188.51 188.21 188.984C192.301 194.136 195.793 199.27 192.025 208.176C190.886 207.732 188.844 207.49 187.53 207.597C191.071 199.988 188.039 196.045 184.088 191.54L188.388 187.795Z" fill="#FCFCFC"/>
<path d="M201.821 160.891L205.396 164.827L202.221 167.723L195.953 160.827L205.568 152.076L202.829 149.057L207.259 145.427C207.499 145.747 207.428 146.105 206.971 146.674L209.03 148.934L218.841 140.012L225.109 146.907L221.767 149.945L218.191 146.01L201.821 160.891ZM229.427 150.761L232.244 153.859L221.976 163.194L226.043 167.665C228.86 170.762 227.996 172.624 222.258 177.846C221.189 177.044 219.236 176.208 217.925 175.833C219.727 174.344 221.77 172.489 222.337 171.969C222.854 171.45 222.943 171.169 222.53 170.712L218.542 166.319L208.47 175.482L205.653 172.385L215.725 163.221L212.829 160.046L207.259 165.113L204.521 162.093L219.123 148.817L221.861 151.836L216.289 156.914L219.184 160.09L229.427 150.761Z" fill="#FCFCFC"/>
<path d="M237.916 124.741L248.266 116.462L253.954 123.574L250.432 126.401L247.269 122.452L230.004 136.248L233.167 140.196L229.81 142.881L224.123 135.77L234.267 127.648L231.583 124.292L236.226 120.94C236.449 121.28 236.355 121.632 235.858 122.169L237.916 124.741ZM241.92 128.39C242.143 128.731 242.062 129.026 241.611 129.573L244.342 132.988L252.476 126.475L264.726 141.768L261.235 144.567L260.599 143.769L247.971 153.873L248.607 154.671L245.279 157.338L233.029 142.045L240.958 135.69L237.591 131.477L241.92 128.39ZM243.483 138.853L238.882 142.541L240.931 145.099L245.532 141.412L243.483 138.853ZM243.24 147.995L245.447 150.759L250.048 147.071L247.852 144.31L243.24 147.995ZM251.498 132.434L246.87 136.139L248.919 138.698L253.548 134.993L251.498 132.434ZM253.435 144.357L258.064 140.652L255.854 137.9L251.225 141.605L253.435 144.357Z" fill="#FCFCFC"/>
<path d="M283.355 98.5723L277.582 102.64L280.195 101.869C280.231 102.287 279.981 102.639 279.547 102.901C280.815 108.112 281.127 112.922 280.458 117.541C285.17 117.653 290.145 116.679 295.367 114.425C295.094 115.869 295.173 118.395 295.348 119.834C289.66 122.016 284.399 122.875 279.345 122.468C277.882 127.29 275.328 131.932 271.623 136.598C270.591 135.95 268.464 135.085 267.223 134.714C270.789 130.547 273.333 126.264 274.794 121.815C269.991 120.742 265.324 118.556 260.689 115.448L262.173 113.513L255.98 117.881L253.53 114.398L265.321 106.09L261.961 101.324L266.616 98.4449C266.795 98.7636 266.707 99.0928 266.209 99.5805L268.978 103.511L280.913 95.1033L283.355 98.5723ZM263.976 112.229C267.673 114.698 271.655 116.353 275.88 117.111C276.485 113.031 276.246 108.842 275.05 104.418L263.976 112.229Z" fill="#FCFCFC"/>
<path d="M303.534 114.503L293.713 98.6131C293.559 100.639 293.301 102.592 292.929 104.411C291.964 103.682 289.766 102.343 288.622 101.814C289.775 97.0288 289.601 89.9002 288.255 83.7187L293.51 82.521C293.538 82.9735 293.279 83.2631 292.838 83.4506C293.225 85.951 293.545 88.5324 293.674 91.1058L295.122 90.6807C295.231 90.995 295.121 91.3674 294.65 91.7891L307.274 112.196L303.534 114.503ZM312.813 100.419C313.981 102.304 314.369 102.454 315.888 101.514L320.472 98.679C321.963 97.7573 321.582 96.5362 319.084 92.0053C320.387 92.1014 322.329 91.8384 323.53 91.4405C326.373 97.0877 326.634 99.7158 322.979 101.97L317.592 105.307C313.695 107.723 311.764 107.156 309.026 102.727L295.125 80.2778L299.899 77.667C300.082 78.0227 299.943 78.3643 299.444 78.8035L305.781 89.0547C307.737 85.4919 309.367 81.5646 310.399 78.4515L315.434 80.0843C315.344 80.2683 315.102 80.5861 314.689 80.756C313.243 84.3039 310.742 88.7655 308.132 92.8645L312.813 100.419Z" fill="#FCFCFC"/>
<path d="M342.02 54.9994L355.038 79.3422C357.084 83.166 355.478 84.6396 349.723 87.6386C349.028 86.7309 347.605 85.3775 346.627 84.7057C347.482 84.2885 348.364 83.8651 349.134 83.4522C351.445 82.2137 351.541 82.1635 351.128 81.3931L340.043 60.6426L322.958 69.7902L327.036 77.3982C329.876 82.695 333.364 90.6129 332.255 97.192C331.214 96.7949 328.924 96.3747 327.813 96.3834C328.771 90.4566 325.728 84.1605 323.186 79.4026L317.223 68.2613L342.02 54.9994ZM327.977 76.7715L333.505 73.8165L332.4 71.765L327.546 74.3573L325.977 71.4395L330.831 68.8472L329.643 66.632L334.246 64.5C334.385 64.8337 334.248 65.1155 333.766 65.5345L334.491 66.8833L339.565 64.173L341.134 67.0909L336.06 69.8012L337.165 71.8526L342.885 68.7972L344.504 71.811L329.607 79.7879L327.977 76.7715ZM349.013 83.1951L340.019 88.0022L340.977 89.8027L337.484 91.6724L331.818 81.07L344.309 74.3818L349.013 83.1951ZM342.299 79.2221L336.867 82.1269L338.45 85.0844L343.883 82.1795L342.299 79.2221Z" fill="#FCFCFC"/>
<path d="M171.846 212.764C174.058 213.274 176.266 211.895 176.777 209.683C177.287 207.47 175.908 205.263 173.696 204.752C171.483 204.241 169.276 205.621 168.765 207.833C168.254 210.045 169.634 212.253 171.846 212.764Z" fill="white"/>
<path d="M58.3393 443.332C60.5516 443.843 62.7591 442.463 63.2698 440.251C63.7806 438.039 62.4012 435.831 60.1889 435.32C57.9765 434.81 55.7691 436.189 55.2583 438.401C54.7475 440.614 56.1269 442.821 58.3393 443.332Z" fill="white"/>
<path d="M83.6699 709.569C85.8822 710.08 88.0897 708.701 88.6005 706.488C89.1112 704.276 87.7318 702.069 85.5195 701.558C83.3072 701.047 81.0997 702.427 80.5889 704.639C80.0782 706.851 81.4576 709.059 83.6699 709.569Z" fill="white"/>
<path d="M341.633 683.534C343.845 684.045 346.052 682.665 346.563 680.453C347.074 678.241 345.695 676.033 343.482 675.522C341.27 675.012 339.062 676.391 338.552 678.603C338.041 680.816 339.42 683.023 341.633 683.534Z" fill="white"/>
<path d="M121.802 272.986C124.001 273.494 126.196 272.122 126.704 269.923C127.212 267.723 125.84 265.528 123.641 265.02C121.441 264.513 119.246 265.884 118.738 268.084C118.23 270.283 119.602 272.478 121.802 272.986Z" fill="white"/>
<path d="M52.1525 591.169C54.3522 591.677 56.5471 590.306 57.0549 588.106C57.5627 585.906 56.1912 583.712 53.9915 583.204C51.7919 582.696 49.597 584.067 49.0892 586.267C48.5813 588.467 49.9528 590.662 52.1525 591.169Z" fill="white"/>
<path d="M307.002 720.854C309.202 721.362 311.397 719.99 311.904 717.79C312.412 715.591 311.041 713.396 308.841 712.888C306.641 712.38 304.446 713.752 303.939 715.951C303.431 718.151 304.802 720.346 307.002 720.854Z" fill="white"/>
<path d="M325.473 47.8051C323.265 46.5368 111.792 146.942 41.5231 348.638" stroke="white" stroke-miterlimit="10"/>
</svg>
