<svg viewBox="0 0 788 884" fill="none" xmlns="http://www.w3.org/2000/svg">
<path d="M177.859 364.987C171.852 368.978 167.407 369.188 163.286 365.883C158.05 361.684 158.122 355.299 163.514 349.105C168.093 343.838 174.895 341.761 178.378 344.556C180.036 345.882 180.265 348.102 178.929 349.656C178.144 350.557 177.315 350.848 175.58 350.682C172.094 350.38 170.644 350.88 168.585 353.245C166.333 355.837 166.075 358.443 167.912 359.918C169.444 361.138 170.777 360.864 174.172 358.622L178.447 355.788C184.041 352.099 188.679 351.923 192.842 355.263C198.377 359.698 198.375 366.584 192.84 372.936C187.704 378.84 180.536 381.013 176.534 377.798C174.918 376.507 174.669 374.209 175.961 372.74C176.78 371.803 178.009 371.379 179.636 371.667L180.763 371.872C183.599 372.353 185.72 371.316 188.046 368.64C190.435 365.901 190.64 363.253 188.475 361.512C186.65 360.044 185.046 360.232 181.599 362.515L177.859 364.987Z" fill="white"/>
<path d="M197.318 343.6L204.355 349.691L205.675 350.828C208.058 352.901 208.449 355.013 206.83 356.707C205.21 358.4 202.995 358.202 200.648 356.175L199.328 355.038L181.39 339.495L180.07 338.358C177.728 336.321 177.261 334.209 178.88 332.516C180.5 330.822 182.757 331.056 185.104 333.083L186.424 334.22L192.182 339.208L200.712 330.284L194.954 325.295L193.634 324.158C191.286 322.132 190.86 319.973 192.479 318.279C194.098 316.586 196.389 316.783 198.737 318.81L200.057 319.947L217.911 335.419L219.273 336.592C221.657 338.664 222.013 340.814 220.428 342.471C218.809 344.164 216.56 344.002 214.212 341.976L212.85 340.803L205.814 334.713L197.318 343.6Z" fill="white"/>
<path d="M228.328 330.041C229.525 331.905 229.344 333.584 227.898 334.972C226.35 336.471 224.001 336.53 222.416 335.064C222.021 334.695 221.687 334.18 221.357 333.599L208.257 310.005C206.123 306.181 206.102 304.861 208.227 302.803C210.724 300.407 211.513 300.395 216.629 302.772L240.906 314.033C241.688 314.412 242.388 314.859 242.82 315.274C244.453 316.793 244.526 319.053 242.983 320.541C241.503 321.967 240.178 322.027 237.614 320.733L233.962 318.9L226.026 326.538L228.328 330.041ZM228.01 315.815L220.234 311.781C218.606 310.947 216.529 309.702 214.258 308.193C214.868 308.96 215.268 309.551 215.593 309.91C215.678 310.064 216.175 310.787 217.109 312.145C217.642 312.914 218.006 313.458 218.183 313.755L222.645 320.973L228.01 315.815Z" fill="white"/>
<path d="M253.061 292.362L251.832 291.136L250.305 289.673L241.417 280.778L240.23 279.587C238.24 277.597 237.986 275.569 239.6 274.145C241.249 272.685 243.38 273.045 245.37 275.035L246.521 276.18L264.807 294.468C267.18 296.849 267.198 298.781 264.989 300.74C263.34 302.2 262.164 302.379 258.882 301.366L235.898 294.243C236.4 294.667 236.705 294.976 236.933 295.204C237.545 295.822 237.892 296.167 238.046 296.247C238.544 296.738 238.886 297.093 239.005 297.21L248.733 306.952L249.884 308.096C251.951 310.168 252.128 312.114 250.513 313.538C248.899 314.961 246.846 314.684 244.814 312.658L243.627 311.467L225.275 293.104C223.016 290.85 222.996 288.835 225.285 286.809C226.905 285.374 227.954 285.239 230.629 286.058L254.108 293.33L253.061 292.362Z" fill="white"/>
<path d="M277.954 272.305C275.712 274.097 274.147 274.182 272.651 272.545C271.227 270.999 271.59 269.319 273.712 267.615L279.648 262.863C281.3 261.541 282.7 261.656 284.238 263.33L293.247 273.12C295.007 275.032 295.024 276.677 293.406 277.962C291.755 279.284 290.164 279.043 288.344 277.045C287.859 280.898 286.301 283.659 283.467 285.921C276.596 291.427 266.257 289.686 258.971 281.761C251.355 273.487 251.46 263.654 259.237 257.42C263.521 253.991 269.35 252.77 273.787 254.398C274.495 254.658 275.238 255.167 275.761 255.726C277.118 257.196 277.037 259.404 275.541 260.602C274.715 261.263 273.683 261.395 272.472 261.119L271.331 260.852C268.461 260.176 266.044 260.596 263.768 262.424C259.403 265.921 259.874 271.553 265.039 277.16C270.085 282.65 275.871 283.971 280.08 280.599C282.042 279.029 283.126 276.715 283.06 274.267C282.969 272.679 282.658 271.685 281.412 269.509L277.954 272.305Z" fill="white"/>
<path d="M295.378 256.364L301.309 263.42L302.417 264.734C304.423 267.128 304.434 269.247 302.509 270.632C300.584 272.016 298.401 271.466 296.431 269.118L295.324 267.805L280.208 249.817L279.1 248.504C277.119 246.15 277.05 244.028 278.975 242.643C280.9 241.259 283.107 241.849 285.088 244.203L286.196 245.516L291.05 251.288L301.181 244.002L296.327 238.23L295.219 236.917C293.238 234.562 293.203 232.403 295.128 231.019C297.053 229.634 299.306 230.193 301.287 232.548L302.395 233.861L317.444 251.773L318.589 253.132C320.594 255.526 320.559 257.676 318.68 259.03C316.755 260.414 314.543 259.891 312.562 257.536L311.418 256.177L305.486 249.121L295.378 256.364Z" fill="white"/>
<path d="M328.842 248.269C329.68 250.274 329.181 251.869 327.465 252.967C325.629 254.152 323.276 253.813 321.978 252.114C321.657 251.689 321.416 251.14 321.202 250.51L312.637 225.405C311.246 221.339 311.466 220.049 313.981 218.427C316.923 216.535 317.716 216.661 322.371 219.835L344.456 234.904C345.158 235.406 345.774 235.959 346.13 236.431C347.465 238.176 347.115 240.38 345.279 241.565C343.534 242.689 342.203 242.528 339.893 240.835L336.595 238.436L327.218 244.478L328.842 248.269ZM331.253 234.441L324.255 229.203C322.79 228.113 320.951 226.555 318.976 224.709C319.435 225.562 319.737 226.196 319.975 226.607C320.032 226.759 320.384 227.556 321.064 229.028C321.441 229.865 321.706 230.454 321.814 230.768L324.88 238.529L331.253 234.441Z" fill="white"/>
<path d="M353.937 228.835L354.924 230.235C356.723 232.767 356.534 234.864 354.47 236.081C352.453 237.267 350.284 236.575 348.51 234.083L347.487 232.637L334.014 213.691L332.991 212.244C331.217 209.752 331.381 207.615 333.399 206.429C335.462 205.212 337.667 205.951 339.441 208.442L340.465 209.889L353.937 228.835Z" fill="white"/>
<path d="M383.532 210.161C382.175 206.578 381.811 205.802 380.17 201.06C379.228 198.156 378.609 196.279 378.34 195.349L376.188 188.61C375.099 185.179 375.703 183.816 379.06 182.168C383.196 180.121 385.28 180.687 387.533 184.37L400.334 205.243L401.138 206.562C402.611 208.965 402.318 210.831 400.348 211.81C398.418 212.769 396.464 212.011 395.009 209.658L394.169 208.294L388.828 199.581L385.943 194.684L383.944 191.12L382.596 188.823L383.506 191.383C385.898 198.124 386.435 199.754 387.301 202.632L389.828 210.848C391.288 215.563 390.976 216.423 387.85 217.973C384.869 219.449 383.767 219.107 379.55 214.975L373.798 209.308L369.439 204.843L365.577 200.896L363.16 198.424L364.912 200.987L367.671 205L370.172 208.784L375.513 217.497L376.317 218.815C377.79 221.219 377.456 223.104 375.527 224.064C373.557 225.043 371.643 224.265 370.188 221.912L369.348 220.547L356.902 200.267C354.198 195.859 354.539 194.278 358.717 192.211C362.206 190.482 363.61 190.735 366.546 193.655L372.041 199.093L376.206 203.238L379.89 207.093C381.313 208.638 382.208 209.609 382.605 210.061C382.942 210.427 383.399 210.965 384.013 211.666L383.532 210.161Z" fill="white"/>
<path d="M405.422 185.922L416.371 181.489C419.15 180.372 420.902 180.738 421.902 182.664C422.828 184.441 421.997 185.864 419.519 186.865L408.327 191.389L412.548 199.505L424.557 194.655C427.759 193.363 429.297 193.646 430.352 195.668C431.334 197.542 430.451 198.978 427.781 200.057L412.571 206.199C409.27 207.536 408.002 207.08 406.389 203.99L393.922 180.018C392.647 177.581 393.169 176.23 395.798 175.171L411.681 168.751C414.066 167.784 415.854 168.196 416.799 170.025C417.744 171.853 416.992 173.412 414.798 174.302L402.083 179.438L405.422 185.922Z" fill="white"/>
<path d="M424.477 170.776C422.262 171.505 420.368 170.805 419.581 169.018C418.709 167.051 419.6 165.714 422.257 164.833L441.353 158.573C443.766 157.784 445.617 158.393 446.447 160.27C447.233 162.057 446.387 163.594 444.212 164.303L437.988 166.34L447.063 186.965L447.738 188.503C448.963 191.296 448.258 193.288 445.99 194.03C443.669 194.786 441.666 193.689 440.459 190.946L439.784 189.409L430.69 168.733L424.477 170.776Z" fill="white"/>
<path d="M465.972 184.795C466.111 186.899 465.091 188.223 463.057 188.718C460.877 189.261 458.695 188.248 457.992 186.273C457.81 185.783 457.779 185.207 457.769 184.561L457.872 158.826C457.887 154.661 458.538 153.527 461.537 152.798C465.042 151.936 465.776 152.29 469.244 156.618L485.684 177.15C486.203 177.83 486.612 178.52 486.807 179.071C487.517 181.091 486.441 183.013 484.25 183.55C482.163 184.059 480.927 183.511 479.241 181.256L476.842 178.057L465.67 180.806L465.972 184.795ZM472.976 172.758L467.93 165.822C466.866 164.367 465.607 162.389 464.305 160.089C464.474 161.009 464.543 161.686 464.648 162.149C464.652 162.315 464.731 163.147 464.897 164.707C464.995 165.589 465.045 166.216 465.053 166.547L465.438 174.629L472.976 172.758Z" fill="white"/>
<path d="M499.548 164.225L500.095 149.263C500.193 146.328 501.045 145.039 503.118 144.7C505.256 144.354 507.328 145.637 507.856 147.63C508.004 148.184 508.04 148.953 508.01 149.647L505.955 173.52C505.478 179.122 505.016 179.836 501.993 180.322C498.609 180.865 497.583 180.262 494.447 175.384L480.625 154.102C480.241 153.479 479.878 152.703 479.736 152.166C479.213 150.162 480.48 148.394 482.716 148.031C484.638 147.722 486.102 148.525 487.384 150.719L495.585 164.521L497.51 167.705L498.719 170.012L499.602 171.699C499.492 168.151 499.424 167.065 499.548 164.225Z" fill="white"/>
<path d="M522.464 156.325L534.597 155.4C537.673 155.16 539.261 156.014 539.622 158.098C539.949 160.014 538.683 161.087 535.922 161.3L523.52 162.249L525.014 171.004L538.315 169.978C541.863 169.697 543.279 170.42 543.653 172.593C544.001 174.615 542.676 175.684 539.711 175.914L522.856 177.204C519.202 177.484 518.107 176.696 517.529 173.353L513.127 147.51C512.677 144.876 513.621 143.785 516.539 143.559L534.135 142.204C536.785 142.002 538.392 142.906 538.72 144.878C539.049 146.849 537.81 148.072 535.376 148.265L521.282 149.341L522.464 156.325Z" fill="white"/>
<path d="M555.169 169.791L555.273 171.414C555.456 174.359 554.113 175.897 551.651 175.856C549.188 175.815 547.693 174.205 547.511 171.314L547.407 169.692L545.908 146.11C545.692 142.765 546.971 141.726 551.364 141.818L562.081 142.024C569.739 142.178 574.128 145.459 574.508 151.438C574.664 153.974 574.003 156.14 572.594 157.574C571.392 158.871 570.397 159.308 567.85 159.66C571.748 160.298 573.065 161.788 574.196 166.932C574.802 169.729 575.078 170.704 575.386 171.356L575.825 172.334C575.948 172.589 576.079 172.944 576.106 173.299C576.226 175.121 574.793 176.311 572.6 176.274C569.92 176.216 568.208 174.56 567.397 171.056L566.516 167.284C565.786 164.231 564.396 163.344 560.208 163.264L554.738 163.157L555.169 169.791ZM559.349 157.307C565.029 157.414 567.143 156.101 566.925 152.646C566.733 149.6 564.712 148.248 560.319 148.157L553.778 148.025L554.359 157.205L559.349 157.307Z" fill="white"/>
<path d="M590.767 163.093C583.545 160.193 580.66 156.741 581.097 151.882C581.654 145.721 587.406 142.77 596.234 144.147C603.723 145.318 609.72 149.762 609.346 153.864C609.172 155.819 607.325 157.053 605.13 156.701C603.85 156.498 603.083 155.976 602.188 154.515C600.339 151.588 599.012 150.666 595.643 150.14C591.951 149.568 589.474 150.597 589.275 152.743C589.108 154.538 590.172 155.474 594.252 157.121L599.378 159.189C606.075 161.912 609.058 165.523 608.61 170.432C608.021 176.944 601.861 180.187 592.827 178.771C584.434 177.457 578.127 172.769 578.55 168.053C578.726 166.153 580.624 164.878 582.714 165.202C584.052 165.407 585.176 166.197 585.907 167.628L586.417 168.616C587.711 171.103 589.927 172.312 593.725 172.911C597.635 173.528 600.116 172.433 600.346 169.88C600.545 167.734 599.405 166.54 595.26 164.873L590.767 163.093Z" fill="white"/>
<path d="M624.159 164.657L635.982 168.752C638.978 169.794 640.082 171.173 639.474 173.12C638.91 174.927 637.236 175.337 634.553 174.418L622.476 170.231L619.917 178.445L632.873 182.939C636.328 184.138 637.334 185.33 636.694 187.369C636.097 189.268 634.382 189.671 631.486 188.668L615.069 182.985C611.513 181.748 610.831 180.629 611.806 177.482L619.365 153.215C620.136 150.752 621.519 150.177 624.35 151.16L641.493 157.097C644.07 157.988 645.175 159.423 644.588 161.272C644.014 163.128 642.291 163.69 639.92 162.865L626.197 158.108L624.159 164.657Z" fill="white"/>
<path d="M682.129 200.411L694.123 190.904C695.947 189.454 697.504 189.268 699.033 190.323C700.865 191.604 701.478 193.724 700.414 195.161C700.114 195.564 699.479 196.147 698.859 196.615L678.176 211.446C675.032 213.668 673.677 213.754 671.215 212.036C668.663 210.257 668.429 208.826 670.175 204.894L675.621 192.755C676.391 190.988 677.321 189.345 678.807 186.982C676.832 189.185 675.548 190.467 674.098 191.69L663.62 200.8C660.625 203.373 659.021 203.533 656.457 201.749C654.125 200.126 653.647 198.759 654.614 195.975L663.263 171.785C663.547 170.95 663.903 170.468 664.22 170.033C665.341 168.516 667.47 168.301 669.26 169.547C671.051 170.793 671.257 172.277 670.066 175.258L664.259 189.623C663.289 192.036 662.423 193.672 660.62 196.47C663.416 193.152 664.498 191.97 665.872 190.748L677.502 180.438C680.088 178.129 681.359 177.973 683.864 179.727C686.826 181.787 686.942 182.72 684.786 187.585L679.826 198.79C678.257 202.296 677.786 203.115 675.726 206.175C678.229 203.564 679.135 202.808 682.129 200.411Z" fill="white"/>
<path d="M703.904 213.82L712.449 222.796C714.609 225.066 714.884 226.736 713.308 228.057C711.841 229.284 710.105 228.831 708.155 226.793L699.429 217.614L692.753 223.18L702.115 233.017C704.617 235.643 704.898 237.098 703.23 238.48C701.689 239.764 699.905 239.286 697.817 237.08L685.953 224.617C683.372 221.911 683.36 220.663 685.915 218.529L705.646 202.085C707.646 200.412 709.212 200.586 711.264 202.746L723.65 215.767C725.517 217.734 725.751 219.424 724.25 220.688C722.737 221.946 720.887 221.597 719.176 219.793L709.25 209.362L703.904 213.82Z" fill="white"/>
<path d="M725.334 238.3L732.731 248.123C734.598 250.609 734.662 252.279 732.906 253.397C731.271 254.427 729.589 253.783 727.903 251.556L720.343 241.525L712.921 246.211L721.018 256.973C723.182 259.844 723.264 261.306 721.422 262.474C719.7 263.555 717.993 262.871 716.186 260.471L705.925 246.838C703.701 243.88 703.846 242.647 706.674 240.859L728.596 227.001C730.825 225.584 732.366 225.95 734.136 228.303L744.851 242.541C746.458 244.687 746.476 246.387 744.8 247.438C743.125 248.488 741.304 247.936 739.83 245.968L731.242 234.556L725.334 238.3Z" fill="white"/>
<path d="M739.324 288.062C738.825 288.934 738.352 289.438 737.652 289.769C735.79 290.628 733.542 289.798 732.468 287.957C731.644 286.533 731.671 285.238 732.7 283.55L740.892 270.127L735.888 268.518L730.008 271.225L728.522 271.911C725.81 273.159 723.603 272.596 722.364 270.437C721.148 268.318 721.926 266.391 724.58 265.168L726.124 264.458L746.385 255.149L747.929 254.439C750.583 253.216 752.848 253.754 754.069 255.862C755.32 258.028 754.49 259.968 751.836 261.192L750.35 261.877L743.862 264.855L760.292 269.589C761.729 270.037 762.674 270.652 763.205 271.569C764.127 273.181 763.484 275.11 761.842 275.865C760.813 276.338 759.807 276.333 758.204 275.798L748.249 272.566L739.324 288.062Z" fill="white"/>
<path d="M770.686 355.065C771.437 347.955 774.107 344.763 779.25 344.426C785.783 343.995 790.62 348.845 791.946 357.2C793.06 364.285 790.341 370.492 785.986 370.789C783.914 370.924 782.07 369.405 781.733 367.334C781.539 366.115 781.842 365.332 783.079 364.285C785.529 362.123 786.069 360.768 785.564 357.573C785.017 354.084 783.176 351.952 780.887 352.097C778.972 352.219 778.345 353.338 777.911 357.353L777.361 362.399C776.639 368.992 773.82 372.297 768.63 372.637C761.724 373.092 756.457 367.909 755.103 359.349C753.85 351.401 756.737 344.872 761.723 344.549C763.737 344.411 765.646 345.977 765.958 347.953C766.158 349.217 765.689 350.377 764.442 351.269L763.586 351.901C761.426 353.477 760.867 355.708 761.434 359.304C762.021 363.005 763.909 365.133 766.612 364.945C768.9 364.8 769.771 363.562 770.204 359.491L770.686 355.065Z" fill="white"/>
<path d="M773.951 384.912L764.778 384.487L763.057 384.41C759.943 384.261 758.182 382.813 758.095 380.436C758.014 378.048 759.691 376.821 762.752 376.955L764.473 377.033L787.877 378.115L789.598 378.193C792.654 378.338 794.471 379.734 794.553 382.122C794.635 384.511 792.91 385.74 789.855 385.595L788.134 385.518L780.623 385.167L781.045 397.688L788.556 398.038L790.277 398.116C793.333 398.261 795.152 399.713 795.239 402.09C795.321 404.478 793.598 405.763 790.53 405.612L788.809 405.534L765.511 404.452L763.731 404.371C760.617 404.223 758.85 402.73 758.769 400.397C758.688 398.009 760.364 396.727 763.42 396.872L765.199 396.953L774.372 397.378L773.951 384.912Z" fill="white"/>
<path d="M761.469 414.935C759.373 414.076 758.4 412.56 758.556 410.555C758.726 408.407 760.404 406.976 762.546 407.286C763.08 407.359 763.664 407.596 764.291 407.895L789.402 419.985C793.473 421.94 794.365 423.032 794.133 425.993C793.866 429.455 793.287 429.931 787.962 430.936L762.689 435.699C761.868 435.831 761.05 435.869 760.463 435.781C758.263 435.468 756.727 433.618 756.897 431.47C757.051 429.409 757.99 428.589 760.722 428.17L764.619 427.567L765.467 416.539L761.469 414.935ZM771.011 426.653L779.391 425.479C781.151 425.222 783.48 425.057 786.138 424.982C785.19 424.692 784.506 424.445 784.029 424.32C783.869 424.25 783.031 423.923 781.455 423.335C780.559 423.004 779.933 422.76 779.619 422.611L771.595 419.17L771.011 426.653Z" fill="white"/>
<path d="M766.62 460.915L768.313 461.306L770.394 461.734L782.69 464.576L784.33 464.953C787.082 465.594 788.507 467.195 788.138 469.321C787.764 471.486 785.89 472.338 783.138 471.696L781.551 471.334L756.276 465.486C752.995 464.733 751.797 463.073 752.305 460.159C752.679 457.995 753.484 457.2 756.625 456.285L778.706 449.902C778.067 449.8 777.637 449.7 777.326 449.633C776.479 449.437 775.997 449.323 775.839 449.336C775.151 449.183 774.669 449.068 774.51 449.026L761.044 445.917L759.457 445.554C756.593 444.895 755.28 443.311 755.649 441.185C756.03 439.065 757.78 438.19 760.585 438.845L762.226 439.222L787.611 445.086C790.74 445.815 791.98 447.538 791.445 450.533C791.064 452.653 790.339 453.352 787.784 454.095L765.239 460.619L766.62 460.915Z" fill="white"/>
<path d="M758.648 491.759C759.394 489.025 760.601 488.153 762.734 488.827C764.767 489.462 765.428 491.143 764.725 493.736L762.727 500.987C762.174 503.004 760.978 503.623 758.798 502.924L745.993 498.891C743.495 498.108 742.536 496.654 743.078 494.686C743.631 492.67 745.043 492.068 747.642 492.889C745.822 489.242 745.468 485.989 746.419 482.543C748.729 474.144 757.963 470.374 768.334 473.645C779.159 477.057 784.734 485.81 782.118 495.317C780.673 500.552 776.732 504.623 772.262 505.46C771.54 505.602 770.661 505.527 769.936 505.299C768.009 504.692 766.809 502.689 767.308 500.863C767.593 499.852 768.326 499.197 769.451 498.828L770.507 498.478C773.181 497.592 774.872 495.991 775.629 493.207C777.095 487.875 773.477 483.141 766.135 480.819C758.946 478.549 753.593 480.359 752.181 485.501C751.52 487.898 751.987 490.501 753.436 492.633C754.417 493.988 755.241 494.718 757.495 496L758.648 491.759Z" fill="white"/>
<path d="M753.561 514.831L744.853 511.43L743.224 510.8C740.272 509.645 739.104 507.755 739.904 505.553C740.698 503.361 742.777 502.78 745.676 503.921L747.305 504.551L769.514 513.221L771.143 513.851C774.047 514.981 775.286 516.853 774.486 519.055C773.692 521.246 771.565 521.803 768.661 520.673L767.031 520.043L759.9 517.258L755.702 528.792L762.834 531.577L764.463 532.207C767.367 533.337 768.584 535.252 767.784 537.454C766.989 539.645 764.852 540.251 761.948 539.121L760.319 538.491L738.21 529.859L736.534 529.205C733.582 528.05 732.423 526.111 733.213 523.958C734.007 521.767 736.097 521.136 738.996 522.277L740.672 522.931L749.38 526.332L753.561 514.831Z" fill="white"/>
<path d="M730.772 538.452C729.001 537.053 728.539 535.367 729.331 533.556C730.184 531.6 732.292 530.761 734.29 531.665C734.787 531.896 735.282 532.276 735.796 532.735L756.448 551.191C759.802 554.177 760.312 555.452 759.144 558.131C757.77 561.261 757.052 561.542 751.511 560.935L725.269 558.075C724.424 557.963 723.613 557.758 723.063 557.513C721.017 556.585 720.105 554.432 720.969 552.482C721.789 550.618 722.97 550.114 725.769 550.521L729.77 551.077L734.158 541.087L730.772 538.452ZM736.314 552.07L744.884 553.394C746.685 553.664 749.019 554.183 751.638 554.878C750.806 554.336 750.217 553.907 749.79 553.657C749.665 553.551 748.944 552.998 747.592 552.008C746.818 551.442 746.288 551.043 746.031 550.814L739.307 545.309L736.314 552.07Z" fill="white"/>
<path d="M720.79 568.181L719.222 567.406C716.369 566.002 715.385 564.017 716.41 561.933C717.407 559.874 719.566 559.457 722.371 560.835L723.987 561.635L745.293 572.127L746.909 572.927C749.714 574.305 750.745 576.315 749.743 578.357C748.724 580.459 746.512 580.862 743.712 579.472L742.096 578.672L720.79 568.181Z" fill="white"/>
<path d="M706.996 599.485C710.092 602.01 710.818 602.524 714.795 605.931C717.18 608.059 718.722 609.435 719.464 610.121L724.97 615.074C727.751 617.599 728.033 619.11 726.245 622.256C724.041 626.141 722.049 626.672 718.172 624.518L696.18 612.251L694.792 611.474C692.261 610.061 691.457 608.252 692.511 606.4C693.543 604.592 695.541 604.282 698.025 605.67L699.459 606.471L708.642 611.592L713.707 614.529L717.315 616.708L719.682 618.09L717.509 616.249C711.813 611.429 710.48 610.231 708.164 608.085L701.543 602.006C697.728 598.519 697.5 597.597 699.165 594.658C700.758 591.86 701.839 591.605 707.544 593.197L715.357 595.396L721.377 597.221L726.697 598.83L730.025 599.84L727.178 598.426L722.703 596.206L718.564 594.065L709.381 588.944L707.994 588.167C705.463 586.754 704.681 584.902 705.713 583.093C706.767 581.242 708.743 580.975 711.227 582.363L712.661 583.164L734.031 595.094C738.673 597.687 739.279 599.271 737.053 603.199C735.192 606.485 733.923 606.956 729.913 605.81L722.441 603.679L716.759 602.044L711.632 600.439C709.616 599.772 708.349 599.344 707.777 599.141C707.299 598.988 706.626 598.72 705.735 598.406L706.996 599.485Z" fill="white"/>
<path d="M703.337 631.96L697.268 641.565C695.731 643.997 694.126 644.593 692.209 643.418C690.44 642.334 690.259 640.657 691.65 638.477L697.848 628.652L689.775 623.714L683.12 634.241C681.341 637.052 679.957 637.599 677.957 636.381C676.081 635.241 675.94 633.517 677.432 631.171L685.854 617.827C687.678 614.93 688.946 614.663 692.033 616.543L715.894 631.119C718.328 632.604 718.702 634.053 717.244 636.363L708.445 650.288C707.127 652.384 705.469 652.939 703.652 651.83C701.836 650.721 701.518 648.96 702.734 647.029L709.777 635.871L703.337 631.96Z" fill="white"/>
<path d="M697.62 654.745C698.879 652.905 700.763 652.467 702.462 653.57C704.339 654.793 704.484 656.423 702.971 658.635L692.149 674.508C690.772 676.518 688.994 677.011 687.206 675.848C685.507 674.746 685.206 672.952 686.448 671.144L689.971 665.968L670.316 653.173L668.854 652.221C666.198 650.498 665.521 648.386 666.803 646.503C668.124 644.572 670.342 644.418 672.945 646.127L674.406 647.079L694.103 659.91L697.62 654.745Z" fill="white"/>
<path d="M657.28 665.806C655.806 664.126 655.688 662.414 656.866 660.818C658.127 659.088 660.392 658.671 662.2 659.912C662.652 660.23 663.06 660.688 663.477 661.218L680.236 682.844C682.959 686.347 683.207 687.663 681.476 690.035C679.462 692.805 678.687 692.934 673.286 691.336L647.724 683.729C646.899 683.463 646.142 683.124 645.643 682.782C643.793 681.505 643.335 679.262 644.596 677.533C645.802 675.883 647.07 675.615 649.788 676.526L653.655 677.802L660.105 668.968L657.28 665.806ZM659.999 679.987L668.267 682.845C670.006 683.437 672.228 684.375 674.7 685.526C673.982 684.852 673.478 684.317 673.102 683.998C672.993 683.86 672.398 683.209 671.252 681.999C670.603 681.307 670.153 680.813 669.942 680.553L664.379 674.003L659.999 679.987Z" fill="white"/>
<path d="M646.958 702.9L657.031 715.303C659.02 717.73 659.316 719.302 658.108 720.869C656.861 722.484 654.511 722.747 652.743 721.458C652.249 721.106 651.685 720.512 651.233 719.935L635.979 699.408C632.389 694.593 632.221 693.728 633.99 691.458C635.969 688.901 637.117 688.749 642.714 690.722L667.258 699.244C667.954 699.497 668.753 699.899 669.247 700.252C671.021 701.53 671.368 703.756 670.052 705.444C668.918 706.899 667.34 707.155 664.902 706.2L649.523 700.199L645.958 698.834L643.493 697.728L641.701 696.918C644.249 699.717 645.053 700.544 646.958 702.9Z" fill="white"/>
<path d="M637.5 723.411L630.289 732.23C628.461 734.47 626.787 734.88 625.006 733.53C623.356 732.276 623.379 730.611 625.014 728.598L632.39 719.577L624.866 713.874L616.956 723.544C614.844 726.127 613.392 726.516 611.521 725.106C609.782 723.791 609.845 722.079 611.6 719.924L621.621 707.671C623.79 705.009 625.108 704.877 627.962 707.058L650.172 723.911C652.424 725.629 652.641 727.092 650.903 729.215L640.451 742.007C638.878 743.929 637.156 744.315 635.464 743.025C633.772 741.735 633.665 739.974 635.113 738.205L643.493 727.949L637.5 723.411Z" fill="white"/>
<path d="M606.584 735.6L605.219 734.521C602.738 732.548 602.29 730.488 603.785 728.743C605.275 727.009 607.452 727.079 609.885 729L611.25 730.079L631.123 745.838C633.949 748.073 634.036 749.727 631.37 752.826L624.865 760.377C620.219 765.773 614.988 766.595 609.95 762.595C607.821 760.901 606.462 758.884 606.126 756.84C605.79 755.056 606.022 754.032 607.246 751.941C604.432 754.281 602.453 754.179 597.647 751.322C595.042 749.762 594.094 749.268 593.381 749.02L592.342 748.643C592.06 748.55 591.693 748.386 591.395 748.149C589.862 746.929 589.735 745.062 591.071 743.508C592.698 741.627 595.041 741.579 598.351 743.492L601.903 745.546C604.791 747.2 606.338 746.832 608.862 743.891L612.177 740.039L606.584 735.6ZM614.155 747.519C610.715 751.524 610.535 753.981 613.439 756.297C616.009 758.33 618.289 757.854 620.956 754.755L624.919 750.15L617.18 744.021L614.155 747.519Z" fill="white"/>
<path d="M592.416 766.232C598.496 762.333 602.948 762.196 607.018 765.569C612.186 769.841 612.002 776.21 606.491 782.314C601.805 787.498 594.965 789.474 591.522 786.632C589.881 785.273 589.698 783.05 591.059 781.536C591.867 780.648 592.703 780.373 594.426 780.561C597.914 780.918 599.364 780.446 601.483 778.112C603.789 775.562 604.076 772.956 602.279 771.462C600.764 770.209 599.437 770.473 595.994 772.663L591.67 775.417C586.004 779.013 581.358 779.118 577.24 775.72C571.774 771.211 571.905 764.337 577.541 758.079C582.79 752.275 589.996 750.203 593.953 753.477C595.552 754.8 595.748 757.084 594.45 758.536C593.619 759.467 592.378 759.857 590.745 759.553L589.623 759.337C586.797 758.807 584.646 759.815 582.272 762.438C579.829 765.135 579.584 767.776 581.72 769.542C583.534 771.032 585.138 770.872 588.616 768.645L592.416 766.232Z" fill="white"/>
<path d="M577.889 791.563L570.046 799.891C568.063 801.995 566.351 802.304 564.65 800.859C563.079 799.509 563.214 797.861 564.998 795.967L573.006 787.467L565.852 781.342L557.263 790.467C554.971 792.902 553.488 793.207 551.708 791.681C550.054 790.26 550.223 788.576 552.144 786.534L563.024 774.974C565.384 772.466 566.704 772.417 569.433 774.751L590.579 792.837C592.735 794.682 592.841 796.156 590.961 798.15L579.601 810.224C577.886 812.045 576.133 812.319 574.52 810.934C572.907 809.549 572.917 807.795 574.496 806.121L583.598 796.444L577.889 791.563Z" fill="white"/>
<path d="M532.402 830.848L541.749 844.155C543.178 846.181 543.285 847.682 542.086 848.886C540.636 850.34 538.382 850.449 536.923 849.144C536.523 848.785 535.938 848.058 535.471 847.365L520.991 824.744C518.82 821.309 518.8 820.017 520.746 818.071C522.761 816.051 524.278 816.145 528.315 818.629L540.782 826.346C542.604 827.445 544.277 828.684 546.68 830.576C544.471 828.253 543.196 826.771 541.981 825.143L532.963 813.343C530.413 809.97 530.34 808.432 532.355 806.413C534.187 804.571 535.657 804.409 538.53 805.918L563.507 819.247C564.377 819.687 564.855 820.127 565.298 820.52C566.834 821.907 566.948 823.944 565.533 825.361C564.117 826.779 562.559 826.65 559.487 824.887L544.695 816.341C542.205 814.908 540.539 813.741 537.682 811.45C541.02 814.783 542.209 816.056 543.417 817.612L553.619 830.751C555.913 833.691 555.989 834.903 554.02 836.892C551.691 839.226 550.695 839.144 545.715 836.073L534.204 829.004C530.595 826.771 529.761 826.146 526.663 823.565C529.302 826.507 530.052 827.524 532.402 830.848Z" fill="white"/>
<path d="M521.153 849.13L512.892 857.076C510.807 859.086 509.07 859.328 507.437 857.809C505.923 856.408 506.146 854.765 508.02 852.958L516.464 844.835L509.59 838.433L500.54 847.141C498.123 849.47 496.627 849.713 494.915 848.113C493.324 846.63 493.575 844.961 495.598 843.014L507.064 831.977C509.549 829.575 510.882 829.587 513.497 832.026L533.822 850.938C535.892 852.861 535.927 854.326 533.951 856.242L521.976 867.764C520.171 869.498 518.41 869.699 516.86 868.251C515.31 866.804 515.408 865.054 517.065 863.462L526.657 854.232L521.153 849.13Z" fill="white"/>
<path d="M500.279 869.016L491.898 876.845C489.783 878.826 488.046 879.04 486.423 877.5C484.933 876.083 485.173 874.436 487.077 872.658L495.641 864.652L488.84 858.166L479.647 866.745C477.189 869.038 475.691 869.254 473.997 867.65C472.429 866.151 472.71 864.484 474.762 862.565L486.402 851.687C488.923 849.331 490.251 849.354 492.849 851.825L512.91 870.982C514.952 872.932 514.97 874.4 512.952 876.282L500.797 887.628C498.974 889.338 497.195 889.517 495.656 888.048C494.129 886.585 494.256 884.837 495.931 883.268L505.667 874.167L500.279 869.016Z" fill="white"/>
<path d="M453.955 889.55C452.891 889.282 452.204 888.952 451.612 888.385C450.054 886.865 450.094 884.649 451.575 883.306C452.725 882.255 454.052 882.018 456.148 882.591L472.786 887.243L472.597 882.371L467.709 877.59L466.475 876.375C464.217 874.177 463.984 872.051 465.728 870.463C467.439 868.913 469.674 869.217 471.89 871.38L473.166 872.631L489.993 889.095L491.269 890.346C493.485 892.508 493.76 894.67 492.049 896.221C490.305 897.808 488.016 897.462 485.811 895.305L484.577 894.09L479.192 888.818L480.352 904.723C480.421 906.123 480.147 907.112 479.391 907.783C478.087 908.958 475.884 908.766 474.53 907.434C473.673 906.592 473.317 905.684 473.279 904.11L472.943 894.402L453.955 889.55Z" fill="white"/>
<path d="M759.966 317.587C764.545 319.97 770.007 318.54 772.167 314.392C774.326 310.244 772.365 304.949 767.785 302.565C763.206 300.181 757.743 301.611 755.584 305.76C753.425 309.908 755.386 315.203 759.966 317.587Z" fill="white"/>
<path d="M435.438 868.701C645.968 719.813 721.478 515.067 721.478 515.067" stroke="white" stroke-miterlimit="10"/>
</svg>
